<svg width="200" height="179" viewBox="0 0 200 179" fill="none" xmlns="http://www.w3.org/2000/svg">
<path d="M112.702 159.652H0V160.621H112.702V159.652Z" fill="#AF8B18"/>
<path d="M200 159.652H121.717V160.621H200V159.652Z" fill="#AF8B18"/>
<path d="M6.49494 150.979V146.858L6.31827 145.359C5.8266 145.222 5.39327 145.138 5.01911 145.138C4.05328 145.138 3.30578 145.515 2.81412 146.266C2.38162 146.916 2.16245 147.804 2.16245 148.888C2.16245 150.845 2.95161 152.18 4.23161 152.18C5.09744 152.181 5.8466 151.789 6.49494 150.979ZM7.87493 144.807L7.6766 146.739V149.894C7.61827 150.073 7.44243 150.488 7.1241 151.097C6.27994 152.498 5.21661 153.189 3.95494 153.189C3.06828 153.189 2.35995 152.854 1.78829 152.163C1.17829 151.393 0.881621 150.428 0.923288 149.243C1.01995 146.244 2.71328 144.431 5.44994 144.431C6.3391 144.433 7.14743 144.55 7.87493 144.807Z" fill="#FEFEFE"/>
<path d="M15.2811 152.106V145.319H13.8636C12.0311 145.319 11.0069 146.76 11.0069 149.047C11.0069 151.08 11.7561 152.106 13.2319 152.106H15.2811ZM20.4977 153.053H16.5011C16.2828 155.36 15.0628 156.817 12.8003 157.429L12.4836 156.918C13.4686 156.543 14.1953 155.931 14.6894 155.084C15.0628 154.451 15.2611 153.781 15.2803 153.053H12.9353C12.0094 153.053 11.2428 152.755 10.6728 152.165C10.0603 151.494 9.76611 150.585 9.76611 149.442C9.76611 148.002 10.1603 146.859 10.9294 145.99C11.7161 145.124 12.7403 144.687 14.0003 144.687H16.5011V152.106H20.4977V153.053Z" fill="#FEFEFE"/>
<path d="M32.0626 153.052H19.9893V152.106H30.8809V148.375C30.8809 146.698 29.4234 145.673 27.1584 145.673H21.1134C23.1034 143.644 24.6767 141.868 25.8776 140.309H27.4542L25.4851 142.126L23.2009 144.687H27.5926C28.9126 144.687 29.9759 145.004 30.8026 145.614C31.6492 146.226 32.0634 147.035 32.0634 148.02V153.052H32.0626Z" fill="#FEFEFE"/>
<path d="M36.3573 152.301C36.3573 155.003 35.114 156.698 32.6548 157.39L32.3398 156.857C33.344 156.482 34.0923 155.869 34.6048 155.025C34.9798 154.372 35.1557 153.702 35.1557 152.971V147.546L34.8407 145.063L36.3582 144.684L36.3573 152.301Z" fill="#FEFEFE"/>
<path d="M43.0731 153.053H41.3781C39.7056 153.053 38.8581 152.145 38.8581 150.33V143.033L38.5439 140.685L40.0398 140.332V149.973C40.0398 151.395 40.6498 152.107 41.8514 152.107H43.0731V153.053Z" fill="#FEFEFE"/>
<path d="M45.2208 152.085H42.5425V153.053H45.2208V152.085Z" fill="#FEFEFE"/>
<path d="M47.2703 152.085H44.5903V153.053H47.2703V152.085Z" fill="#FEFEFE"/>
<path d="M49.3159 152.085H46.6367V153.053H49.3159V152.085Z" fill="#FEFEFE"/>
<path d="M51.3639 152.085H48.6855V153.053H51.3639V152.085Z" fill="#FEFEFE"/>
<path d="M53.4135 152.085H50.7344V153.053H53.4135V152.085Z" fill="#FEFEFE"/>
<path d="M55.4606 152.085H52.7822V153.053H55.4606V152.085Z" fill="#FEFEFE"/>
<path d="M57.5117 152.085H54.8325V153.053H57.5117V152.085Z" fill="#FEFEFE"/>
<path d="M59.5579 152.085H56.8779V153.053H59.5579V152.085Z" fill="#FEFEFE"/>
<path d="M61.6045 152.085H58.9287V153.053H61.6045V152.085Z" fill="#FEFEFE"/>
<path d="M63.6528 152.085H60.9736V153.053H63.6528V152.085Z" fill="#FEFEFE"/>
<path d="M65.7047 152.085H63.0264V153.053H65.7047V152.085Z" fill="#FEFEFE"/>
<path d="M67.7505 152.085H65.0713V153.053H67.7505V152.085Z" fill="#FEFEFE"/>
<path d="M69.7989 152.085H67.1206V153.053H69.7989V152.085Z" fill="#FEFEFE"/>
<path d="M71.8455 152.085H69.168V153.053H71.8455V152.085Z" fill="#FEFEFE"/>
<path d="M82.5001 141.198C82.5001 141.751 82.2051 142.029 81.6334 142.029C81.0634 142.029 80.7876 141.751 80.7876 141.178C80.7876 140.606 81.0634 140.31 81.6334 140.31C82.1068 140.31 82.5001 140.704 82.5001 141.198ZM81.2018 138.852C81.2018 139.425 80.9243 139.719 80.3543 139.719C79.7818 139.719 79.4884 139.424 79.4884 138.852C79.4884 138.258 79.7826 137.965 80.3543 137.965C80.8076 137.965 81.2018 138.378 81.2018 138.852ZM79.9218 141.198C79.9218 141.751 79.6251 142.029 79.0534 142.029C78.4834 142.029 78.1876 141.751 78.1876 141.178C78.1876 140.606 78.4826 140.31 79.0534 140.31C79.5268 140.31 79.9218 140.704 79.9218 141.198ZM88.6059 153.054H87.3851C86.5184 153.054 85.8701 152.776 85.4159 152.223C84.9634 152.776 84.3326 153.054 83.5259 153.054C82.4018 153.054 81.4951 152.519 80.8084 151.435C80.4334 152.52 79.6459 153.054 78.4843 153.054C77.4601 153.054 76.5743 152.559 75.8459 151.575C75.7276 151.871 75.5684 152.125 75.3526 152.344C74.9001 152.817 74.2893 153.055 73.5218 153.055H71.2168V152.108H73.0285C74.2501 152.108 74.8593 151.397 74.8593 149.974L74.8801 145.834L76.0418 145.538V150.491C76.0418 150.666 76.0218 150.824 76.0034 150.982C76.6909 151.693 77.3609 152.048 77.9718 152.048C79.1709 152.048 79.7818 151.356 79.7818 149.956V145.834L80.9434 145.538V150.863C81.6334 151.654 82.3434 152.048 83.0526 152.048C84.2334 152.048 84.8251 151.356 84.8251 149.956V147.548L84.4909 145.065L86.0067 144.689V150.034C86.0067 151.412 86.6159 152.107 87.8384 152.107H88.6059V153.054Z" fill="#FEFEFE"/>
<path d="M95.9349 146.74L95.7374 145.24C95.2457 145.104 94.8124 145.024 94.4382 145.024C93.4724 145.024 92.7241 145.399 92.2332 146.149C91.7991 146.8 91.5824 147.666 91.5824 148.791C91.5824 150.742 92.3699 152.107 93.6299 152.107C95.2832 152.107 96.1124 151.02 96.1124 148.869C96.1116 148.338 96.0507 147.628 95.9349 146.74ZM97.2932 144.685L97.1357 146.622V149.661C97.1357 151.926 95.8166 153.052 93.1774 153.052H88.1558V152.106H91.2091C90.6366 151.373 90.3416 150.407 90.3416 149.184C90.3416 147.706 90.7566 146.523 91.5632 145.637C92.3899 144.748 93.4932 144.294 94.8732 144.294C95.7557 144.295 96.5632 144.434 97.2932 144.685Z" fill="#FEFEFE"/>
<path d="M104.698 151.869V145.32H103.282C101.45 145.32 100.425 146.761 100.425 149.048C100.425 151.18 101.174 152.244 102.65 152.244C103.26 152.244 103.951 152.124 104.698 151.869ZM105.919 152.302C105.919 155.004 104.678 156.699 102.219 157.392L101.901 156.859C103.773 156.168 104.697 154.848 104.697 152.856C103.713 153.109 102.866 153.25 102.177 153.25C100.365 153.25 99.1836 151.808 99.1836 149.443C99.1836 148.003 99.5778 146.86 100.345 145.991C101.134 145.125 102.159 144.687 103.419 144.687H105.919V152.302Z" fill="#FEFEFE"/>
<path d="M119.354 160.152C119.354 160.706 119.057 160.981 118.486 160.981C117.894 160.981 117.601 160.706 117.601 160.133C117.601 159.56 117.894 159.264 118.486 159.264C118.958 159.264 119.354 159.661 119.354 160.152ZM116.773 160.152C116.773 160.706 116.478 160.981 115.888 160.981C115.317 160.981 115.021 160.706 115.021 160.133C115.021 159.56 115.317 159.264 115.888 159.264C116.339 159.264 116.773 159.661 116.773 160.152ZM122.919 152.108L122.878 153.073C122.662 155.361 121.44 156.82 119.195 157.45L116.202 157.531C112.736 157.531 111.003 155.462 111.003 151.317V147.908H112.165V151.238C112.165 152.975 112.538 154.355 113.268 155.402C113.997 156.444 115.08 156.979 116.479 156.979L118.881 156.92C119.864 156.545 120.595 155.954 121.084 155.105C121.46 154.453 121.659 153.783 121.678 153.052L119.333 153.073C118.409 153.073 117.663 152.777 117.09 152.167C116.461 151.514 116.144 150.606 116.144 149.443C116.144 148.003 116.537 146.86 117.307 146.01C118.094 145.144 119.138 144.709 120.418 144.709H121.817L121.678 145.32H120.24C118.43 145.32 117.424 146.779 117.424 149.088C117.424 151.1 118.153 152.107 119.632 152.107L122.919 152.108Z" fill="#FEFEFE"/>
<path d="M127.213 152.302C127.213 155.003 125.972 156.698 123.512 157.391L123.195 156.858C124.201 156.482 124.948 155.87 125.462 155.026C125.836 154.372 126.015 153.703 126.015 152.972V147.547L125.697 145.064L127.213 144.685V152.302Z" fill="#FEFEFE"/>
<path d="M133.928 153.054H132.234C130.562 153.054 129.714 152.146 129.714 150.331V143.033L129.399 140.686L130.897 140.333V149.974C130.897 151.396 131.507 152.108 132.709 152.108H133.929L133.928 153.054Z" fill="#FEFEFE"/>
<path d="M136.074 152.085H133.396V153.053H136.074V152.085Z" fill="#FEFEFE"/>
<path d="M138.124 152.085H135.446V153.053H138.124V152.085Z" fill="#FEFEFE"/>
<path d="M140.171 152.085H137.493V153.053H140.171V152.085Z" fill="#FEFEFE"/>
<path d="M142.222 152.085H139.543V153.053H142.222V152.085Z" fill="#FEFEFE"/>
<path d="M144.267 152.085H141.59V153.053H144.267V152.085Z" fill="#FEFEFE"/>
<path d="M146.316 152.085H143.638V153.053H146.316V152.085Z" fill="#FEFEFE"/>
<path d="M148.363 152.085H145.686V153.053H148.363V152.085Z" fill="#FEFEFE"/>
<path d="M150.412 152.085H147.734V153.053H150.412V152.085Z" fill="#FEFEFE"/>
<path d="M152.461 152.085H149.782V153.053H152.461V152.085Z" fill="#FEFEFE"/>
<path d="M154.51 152.085H151.833V153.053H154.51V152.085Z" fill="#FEFEFE"/>
<path d="M156.556 152.085H153.879V153.053H156.556V152.085Z" fill="#FEFEFE"/>
<path d="M158.605 152.085H155.928V153.053H158.605V152.085Z" fill="#FEFEFE"/>
<path d="M160.653 152.085H157.975V153.053H160.653V152.085Z" fill="#FEFEFE"/>
<path d="M162.702 152.085H160.024V153.053H162.702V152.085Z" fill="#FEFEFE"/>
<path d="M176.843 152.107V148.574C176.843 146.86 175.424 145.874 173.158 145.874C170.855 145.874 168.768 147.945 166.917 152.108H176.843V152.107ZM180.78 153.054H165.895V152.382C165.362 152.835 164.85 153.054 164.377 153.054H162.072V152.107H163.885C165.107 152.107 165.717 151.395 165.717 149.973L165.736 145.833L166.898 145.537V150.074C168.572 146.604 170.815 144.868 173.594 144.868C174.912 144.868 175.997 145.184 176.824 145.816C177.649 146.425 178.062 147.234 178.062 148.22V152.088H180.78V153.054Z" fill="#FEFEFE"/>
<path d="M184.328 141.196C184.328 141.749 184.033 142.027 183.462 142.027C182.892 142.027 182.595 141.749 182.595 141.177C182.595 140.604 182.892 140.309 183.462 140.309C183.936 140.309 184.328 140.705 184.328 141.196ZM185.49 150.33C185.49 152.046 184.505 153.052 182.948 153.052H180.312V152.106H182.457C183.697 152.106 184.308 151.394 184.308 149.972V147.509L183.994 145.063L185.49 144.684V150.33Z" fill="#FEFEFE"/>
<path d="M195.277 150.33C195.277 151.89 194.353 153.05 192.797 153.05H187.834L188.288 152.107H192.267C192.481 152.107 192.678 152.066 192.875 152.006L188.798 144.685L187.38 142.854H188.975L193.662 151.453C193.957 151.099 194.096 150.604 194.096 149.975V143.169L193.763 140.684L195.276 140.309L195.277 150.33ZM190.296 141.612H186.712V141.1H187.381V140.764C187.381 139.68 187.815 139.127 188.7 139.127C189.114 139.127 189.489 139.285 189.824 139.621L189.606 139.935C189.39 139.759 189.154 139.661 188.937 139.661C188.306 139.661 187.991 140.056 187.991 140.863V141.1H189.096L189.605 141.018L190.296 141.612Z" fill="#FEFEFE"/>
<path d="M199.061 140.309L198.884 142.659V153.053H197.702V142.659L197.426 140.449L199.061 140.309Z" fill="#FEFEFE"/>
<path d="M4.10138 171.838C4.43221 171.838 4.77721 171.846 5.13221 171.86C5.48888 171.871 5.83221 171.877 6.16387 171.877C6.52054 171.877 6.87721 171.875 7.23387 171.866C7.59137 171.862 7.9472 171.852 8.30387 171.838L6.18387 166.978L4.10138 171.838ZM12.5639 177.791C12.3864 177.766 12.218 177.753 12.0589 177.753H11.553H11.0455C10.8872 177.753 10.7164 177.766 10.5405 177.791C10.4522 177.498 10.3305 177.144 10.178 176.729C10.0247 176.316 9.8547 175.881 9.67053 175.427C9.48553 174.975 9.29886 174.516 9.10637 174.051C8.91553 173.586 8.7372 173.142 8.57137 172.719C8.16303 172.706 7.75054 172.698 7.3297 172.693C6.90887 172.684 6.48887 172.68 6.06887 172.68C5.67388 172.68 5.28554 172.684 4.90221 172.693C4.52138 172.698 4.13305 172.707 3.73805 172.719C3.32888 173.715 2.96138 174.662 2.62972 175.561C2.29805 176.46 2.04889 177.205 1.88472 177.791C1.66722 177.766 1.43306 177.753 1.17806 177.753C0.922225 177.753 0.687226 177.766 0.469727 177.791C1.50222 175.559 2.50805 173.339 3.48972 171.13C4.46971 168.926 5.45721 166.679 6.45221 164.397H6.81304C7.12054 165.135 7.45137 165.937 7.8072 166.795C8.16387 167.658 8.52803 168.53 8.89637 169.409C9.26636 170.289 9.6347 171.165 10.0047 172.032C10.3747 172.897 10.7214 173.708 11.0455 174.452C11.3705 175.197 11.6639 175.864 11.9247 176.451C12.1864 177.039 12.3997 177.486 12.5639 177.791Z" fill="#FEFEFE"/>
<path d="M15.5914 167.458C15.5839 166.948 15.5756 166.442 15.5623 165.946C15.5498 165.446 15.5348 164.973 15.5139 164.518C15.4948 164.065 15.4739 163.68 15.4473 163.36C15.8023 163.425 16.0906 163.456 16.3064 163.456C16.5231 163.456 16.8089 163.425 17.1664 163.36C17.1414 163.68 17.1181 164.065 17.1006 164.518C17.0806 164.973 17.0648 165.446 17.0523 165.946C17.0389 166.442 17.0306 166.948 17.0231 167.458C17.0164 167.967 17.0123 168.441 17.0123 168.875V172.336C17.0123 172.771 17.0156 173.242 17.0231 173.754C17.0306 174.26 17.0398 174.767 17.0523 175.263C17.0648 175.763 17.0798 176.233 17.1006 176.681C17.1181 177.127 17.1414 177.498 17.1664 177.791C16.8723 177.765 16.5881 177.75 16.3064 177.75C16.0273 177.75 15.7398 177.765 15.4473 177.791C15.4739 177.497 15.4948 177.127 15.5139 176.681C15.5339 176.233 15.5498 175.762 15.5623 175.263C15.5756 174.767 15.5839 174.261 15.5914 173.754C15.5973 173.242 15.6014 172.771 15.6014 172.336V168.875C15.6014 168.441 15.5981 167.968 15.5914 167.458Z" fill="#FEFEFE"/>
<path d="M25.2889 172.738H20.5322V173.926H25.2889V172.738Z" fill="#FEFEFE"/>
<path d="M30.8132 171.838C31.144 171.838 31.4881 171.845 31.8456 171.86C32.2006 171.87 32.5448 171.877 32.8773 171.877C33.2323 171.877 33.5898 171.875 33.9465 171.865C34.3023 171.861 34.6598 171.851 35.0165 171.838L32.8956 166.978L30.8132 171.838ZM39.279 177.791C39.1006 177.765 38.9306 177.753 38.7715 177.753H38.264H37.759C37.5981 177.753 37.4298 177.765 37.2523 177.791C37.1631 177.497 37.0415 177.144 36.8873 176.729C36.7365 176.316 36.5656 175.881 36.3831 175.427C36.1973 174.974 36.0098 174.515 35.819 174.05C35.6265 173.586 35.449 173.142 35.284 172.718C34.8765 172.706 34.4606 172.698 34.0406 172.693C33.6223 172.684 33.2006 172.68 32.7798 172.68C32.3848 172.68 31.9965 172.684 31.6148 172.693C31.2323 172.698 30.8431 172.707 30.449 172.718C30.0407 173.715 29.6723 174.662 29.3423 175.561C29.009 176.46 28.7623 177.204 28.5957 177.791C28.3773 177.765 28.1423 177.753 27.8865 177.753C27.6323 177.753 27.3982 177.765 27.1807 177.791C28.2123 175.559 29.219 173.339 30.2007 171.13C31.1807 168.926 32.1681 166.679 33.1615 164.396H33.5256C33.8315 165.134 34.1623 165.937 34.5181 166.795C34.8765 167.657 35.2381 168.529 35.6073 169.409C35.9773 170.289 36.3481 171.165 36.7165 172.032C37.0848 172.897 37.4323 173.707 37.7581 174.452C38.0823 175.197 38.3748 175.864 38.6365 176.451C38.899 177.039 39.1123 177.486 39.279 177.791Z" fill="#FEFEFE"/>
<path d="M47.4952 170.24C47.1227 169.75 46.6143 169.505 45.966 169.505C45.0735 169.505 44.4202 169.779 44.0068 170.328C43.5935 170.877 43.3877 171.649 43.3877 172.642V174.268C43.3877 174.844 43.396 175.447 43.4143 176.079C43.4343 176.712 43.4752 177.28 43.5393 177.791C43.2443 177.765 42.9577 177.75 42.6793 177.75C42.3985 177.75 42.1118 177.765 41.8193 177.791C41.8818 177.281 41.9252 176.712 41.9435 176.079C41.961 175.447 41.9718 174.844 41.9718 174.268V172.278C41.9718 171.705 41.961 171.1 41.9435 170.47C41.9252 169.838 41.8818 169.249 41.8193 168.698C42.176 168.764 42.4618 168.795 42.6793 168.795C42.781 168.795 42.8918 168.786 43.0127 168.767C43.1343 168.745 43.2768 168.728 43.4427 168.698C43.4052 169.208 43.3877 169.722 43.3877 170.23H43.4235C43.7818 169.684 44.2102 169.258 44.7085 168.96C45.2052 168.659 45.8002 168.51 46.491 168.51C46.8468 168.51 47.2093 168.561 47.5743 168.662C47.9377 168.765 48.2668 168.939 48.5601 169.187C48.8551 169.438 49.0926 169.777 49.2793 170.202C49.4643 170.632 49.5585 171.176 49.5585 171.838C49.5585 172.388 49.5435 172.953 49.5193 173.533C49.4943 174.114 49.4826 174.728 49.4826 175.38V176.623C49.4826 176.828 49.4835 177.03 49.491 177.226C49.4951 177.423 49.5076 177.611 49.5193 177.792C49.2626 177.766 48.9893 177.751 48.706 177.751C48.436 177.751 48.1718 177.766 47.9143 177.792C47.9401 177.128 47.9685 176.446 47.9993 175.743C48.0318 175.042 48.0485 174.321 48.0485 173.581V172.416C48.0485 171.458 47.8635 170.733 47.4952 170.24Z" fill="#FEFEFE"/>
<path d="M53.4079 176.431C53.5413 176.585 53.7021 176.728 53.8846 176.863C54.0704 176.996 54.2804 177.111 54.5163 177.198C54.7504 177.288 55.0029 177.331 55.2712 177.331C55.5121 177.331 55.7446 177.293 55.9679 177.216C56.1912 177.141 56.3879 177.032 56.5596 176.891C56.7312 176.751 56.8687 176.572 56.9704 176.355C57.0729 176.139 57.1229 175.888 57.1229 175.608C57.1229 175.211 57.0121 174.91 56.7896 174.699C56.5662 174.488 56.2904 174.315 55.9563 174.182C55.6254 174.049 55.2629 173.929 54.8679 173.828C54.4729 173.726 54.1096 173.584 53.7788 173.399C53.4488 173.213 53.1713 172.965 52.9479 172.661C52.7238 172.356 52.6138 171.93 52.6138 171.396C52.6138 170.976 52.6829 170.591 52.8221 170.237C52.9629 169.889 53.1671 169.584 53.4346 169.329C53.7021 169.074 54.0321 168.872 54.4279 168.727C54.8229 168.579 55.2754 168.507 55.7829 168.507C56.2546 168.507 56.6529 168.569 56.9779 168.696C57.3037 168.824 57.6112 168.94 57.9054 169.04C57.8037 169.232 57.7079 169.471 57.6179 169.75C57.5296 170.031 57.4721 170.248 57.4471 170.401H57.2171C57.1137 170.095 56.9171 169.819 56.6246 169.579C56.3312 169.334 55.9679 169.216 55.5346 169.216C55.3437 169.216 55.1529 169.247 54.9613 169.311C54.7704 169.375 54.5988 169.47 54.4471 169.596C54.2929 169.723 54.1663 169.891 54.0646 170.095C53.9621 170.298 53.9121 170.541 53.9121 170.821C53.9121 171.233 54.0238 171.545 54.2454 171.769C54.4696 171.995 54.7454 172.169 55.0771 172.295C55.4079 172.425 55.7729 172.532 56.1662 172.631C56.5612 172.725 56.9246 172.859 57.2554 173.03C57.5854 173.207 57.8629 173.443 58.0862 173.751C58.3096 174.055 58.4221 174.476 58.4221 175.013C58.4221 175.381 58.3421 175.747 58.1837 176.105C58.0246 176.462 57.7946 176.784 57.4954 177.069C57.1954 177.355 56.8362 177.579 56.4154 177.74C55.9971 177.9 55.5179 177.978 54.9829 177.978C54.3962 177.978 53.9054 177.921 53.5113 177.805C53.1154 177.693 52.7846 177.557 52.5171 177.404C52.5938 177.241 52.6729 177.012 52.7571 176.726C52.8396 176.438 52.8804 176.2 52.8804 176.008H53.1096C53.1754 176.14 53.2729 176.28 53.4079 176.431Z" fill="#FEFEFE"/>
<path d="M65.5414 173.218C65.2581 173.269 64.9681 173.321 64.6781 173.381C64.3856 173.437 64.0972 173.511 63.8114 173.603C63.5264 173.69 63.2739 173.811 63.0514 173.963C62.8306 174.118 62.6522 174.31 62.5197 174.538C62.3864 174.767 62.3197 175.061 62.3197 175.418C62.3197 176.018 62.4914 176.47 62.8331 176.778C63.1756 177.084 63.5556 177.237 63.9722 177.237C64.4564 177.237 64.8964 177.105 65.2956 176.836C65.6931 176.567 66.0022 176.254 66.2164 175.898L66.2922 173.026C66.0781 173.102 65.8272 173.167 65.5414 173.218ZM63.1589 168.739C63.6439 168.585 64.1414 168.511 64.6506 168.511C65.1089 168.511 65.5297 168.578 65.9139 168.709C66.2956 168.844 66.6231 169.037 66.8939 169.286C67.1656 169.531 67.3789 169.834 67.5339 170.186C67.6881 170.534 67.7639 170.92 67.7639 171.338C67.7639 172.07 67.7522 172.792 67.7272 173.513C67.7014 174.235 67.6897 174.999 67.6897 175.799C67.6897 175.955 67.693 176.116 67.6989 176.289C67.7047 176.46 67.7331 176.612 67.7847 176.748C67.8364 176.883 67.9089 176.993 68.0039 177.083C68.1014 177.173 68.2439 177.213 68.4339 177.213C68.4989 177.213 68.5655 177.213 68.6355 177.206C68.7055 177.199 68.7722 177.178 68.8372 177.141V177.56C68.6964 177.624 68.5205 177.675 68.3097 177.713C68.1014 177.75 67.8681 177.771 67.6122 177.771C67.1997 177.771 66.8831 177.666 66.6639 177.454C66.4439 177.245 66.3156 176.974 66.2747 176.641C65.8189 177.103 65.3689 177.439 64.9239 177.656C64.4789 177.872 63.9339 177.98 63.2864 177.98C62.9672 177.98 62.6564 177.937 62.3531 177.848C62.0489 177.757 61.7781 177.611 61.5422 177.406C61.3089 177.204 61.1189 176.958 60.9722 176.671C60.8247 176.382 60.7539 176.056 60.7539 175.685C60.7539 174.921 60.9897 174.325 61.4681 173.907C61.9439 173.484 62.5989 173.205 63.4381 173.064C64.1231 172.948 64.6606 172.85 65.0481 172.768C65.4347 172.683 65.7206 172.597 65.9047 172.509C66.0872 172.422 66.1972 172.316 66.2364 172.192C66.2739 172.07 66.2931 171.914 66.2931 171.723C66.2931 171.405 66.2581 171.098 66.1797 170.807C66.1056 170.511 65.9814 170.257 65.8164 170.04C65.6522 169.82 65.4339 169.647 65.1672 169.511C64.8989 169.379 64.5739 169.311 64.1931 169.311C63.6831 169.311 63.2064 169.428 62.7697 169.658C62.3306 169.888 62.0006 170.206 61.7847 170.614H61.5747V169.617C62.1489 169.185 62.6756 168.891 63.1589 168.739Z" fill="#FEFEFE"/>
<path d="M75.7256 170.061C75.5398 169.998 75.354 169.965 75.1615 169.965C74.8573 169.965 74.5823 170.034 74.3423 170.173C74.0981 170.316 73.8948 170.504 73.729 170.739C73.564 170.976 73.4365 171.257 73.3473 171.582C73.2581 171.907 73.2131 172.254 73.2131 172.625V174.73C73.2131 175.583 73.214 176.237 73.2215 176.693C73.2281 177.144 73.2515 177.513 73.2898 177.792C73.0356 177.766 72.7798 177.753 72.5248 177.753C72.2456 177.753 71.9773 177.766 71.7231 177.792C71.7606 177.357 71.7831 176.766 71.7898 176.021C71.7965 175.273 71.799 174.36 71.799 173.274V172.664C71.799 172.166 71.7965 171.592 71.7898 170.939C71.784 170.289 71.7606 169.542 71.7231 168.703C71.8623 168.729 71.9973 168.747 72.124 168.769C72.2498 168.788 72.3848 168.797 72.5248 168.797C72.6398 168.797 72.7606 168.788 72.8881 168.769C73.0148 168.747 73.149 168.729 73.2898 168.703C73.2381 169.161 73.2098 169.523 73.2023 169.79C73.1965 170.061 73.1948 170.317 73.1948 170.559L73.2315 170.578C73.9823 169.198 74.8256 168.511 75.7556 168.511C75.869 168.511 75.9681 168.518 76.0498 168.529C76.134 168.542 76.2381 168.573 76.3665 168.623C76.3015 168.777 76.264 169.011 76.2515 169.322C76.2381 169.635 76.2323 169.917 76.2323 170.173L76.0973 170.272C76.0323 170.192 75.9098 170.123 75.7256 170.061Z" fill="#FEFEFE"/>
<path d="M79.3173 170.472C79.2981 169.84 79.2565 169.25 79.1931 168.7C79.549 168.766 79.8365 168.796 80.0523 168.796C80.2706 168.796 80.5556 168.766 80.914 168.7C80.849 169.25 80.8081 169.84 80.7906 170.472C80.7698 171.102 80.7606 171.704 80.7606 172.279V174.269C80.7606 174.845 80.7698 175.448 80.7906 176.08C80.8081 176.71 80.8498 177.281 80.914 177.792C80.6198 177.766 80.3331 177.754 80.0523 177.754C79.774 177.754 79.4856 177.766 79.1931 177.792C79.2565 177.282 79.2981 176.71 79.3173 176.08C79.3365 175.448 79.3456 174.846 79.3456 174.269V172.279C79.3456 171.703 79.3365 171.102 79.3173 170.472ZM79.3656 164.683C79.5556 164.49 79.7856 164.396 80.0523 164.396C80.3223 164.396 80.5498 164.489 80.7406 164.683C80.9323 164.875 81.029 165.102 81.029 165.37C81.029 165.638 80.9331 165.867 80.7406 166.059C80.5498 166.25 80.3223 166.348 80.0523 166.348C79.7856 166.348 79.5556 166.251 79.3656 166.059C79.1748 165.867 79.0781 165.638 79.0781 165.37C79.0781 165.102 79.1748 164.875 79.3656 164.683Z" fill="#FEFEFE"/>
<path d="M97.1836 165.88C96.9111 165.579 96.5353 165.427 96.0669 165.427C95.5694 165.427 95.1744 165.6 94.8803 165.947C94.5886 166.29 94.4411 166.715 94.4411 167.228C94.4411 167.61 94.5536 168.056 94.7769 168.568C94.9986 169.077 95.2886 169.55 95.6444 169.984C96.2936 169.575 96.7819 169.098 97.1078 168.556C97.4319 168.016 97.5936 167.502 97.5936 167.015C97.5936 166.557 97.4553 166.179 97.1836 165.88ZM92.6844 175.523C92.8236 175.851 93.0186 176.136 93.2669 176.383C93.5136 176.634 93.8103 176.831 94.1544 176.978C94.4994 177.126 94.8736 177.199 95.2828 177.199C95.9319 177.199 96.4853 177.08 96.9436 176.845C97.4044 176.61 97.8552 176.269 98.3019 175.819C97.6528 175.055 97.0328 174.296 96.4461 173.543C95.8619 172.791 95.2828 172.013 94.7094 171.21C94.0078 171.628 93.4603 172.088 93.0653 172.586C92.6703 173.082 92.4744 173.728 92.4744 174.518C92.4736 174.863 92.5428 175.199 92.6844 175.523ZM93.3228 166.634C93.4703 166.29 93.6728 165.987 93.9361 165.725C94.1961 165.464 94.5044 165.259 94.8619 165.113C95.2186 164.966 95.6128 164.892 96.0444 164.892C96.7836 164.892 97.3919 165.074 97.8703 165.437C98.3494 165.801 98.5853 166.335 98.5853 167.034C98.5853 167.394 98.5036 167.739 98.3377 168.07C98.1727 168.4 97.9586 168.712 97.6994 168.995C97.4369 169.283 97.1536 169.545 96.8469 169.781C96.5411 170.018 96.2478 170.22 95.9694 170.383C96.5411 171.124 97.1019 171.849 97.6519 172.557C98.1977 173.264 98.7594 173.93 99.3319 174.556C99.7927 173.905 100.21 173.283 100.582 172.689C100.959 172.098 101.299 171.458 101.606 170.766C101.684 170.932 101.789 171.075 101.92 171.199C102.054 171.32 102.192 171.432 102.333 171.531C101.937 172.145 101.542 172.739 101.146 173.314C100.752 173.886 100.287 174.479 99.7536 175.095L102.199 177.791C101.994 177.765 101.791 177.75 101.589 177.75H100.975H100.429C100.245 177.75 100.065 177.765 99.8852 177.791C99.7844 177.649 99.6277 177.438 99.4186 177.147C99.2086 176.862 98.9636 176.555 98.6836 176.22C98.1211 176.782 97.5203 177.226 96.8778 177.551C96.2353 177.878 95.4603 178.041 94.5561 178.041C94.0594 178.041 93.5911 177.979 93.1511 177.858C92.7119 177.736 92.3278 177.542 91.9944 177.275C91.6636 177.009 91.3994 176.671 91.2028 176.271C91.0044 175.867 90.9053 175.4 90.9053 174.862C90.9053 174.441 90.9944 174.028 91.1744 173.628C91.3528 173.228 91.5978 172.845 91.9111 172.478C92.2219 172.118 92.5878 171.789 93.0086 171.495C93.4286 171.201 93.8886 170.953 94.3853 170.748C94.0136 170.211 93.7069 169.701 93.4653 169.219C93.2244 168.732 93.1036 168.248 93.1036 167.761C93.1044 167.356 93.1769 166.978 93.3228 166.634Z" fill="#FEFEFE"/>
<path d="M112.288 171.838C112.618 171.838 112.962 171.845 113.319 171.86C113.674 171.87 114.018 171.877 114.351 171.877C114.707 171.877 115.064 171.875 115.419 171.865C115.778 171.861 116.132 171.851 116.491 171.838L114.369 166.978L112.288 171.838ZM120.751 177.791C120.574 177.765 120.404 177.753 120.246 177.753H119.74H119.233C119.074 177.753 118.905 177.765 118.728 177.791C118.638 177.497 118.517 177.144 118.364 176.729C118.211 176.316 118.043 175.881 117.86 175.427C117.674 174.974 117.485 174.515 117.294 174.05C117.103 173.586 116.924 173.142 116.759 172.718C116.351 172.706 115.937 172.698 115.518 172.693C115.097 172.684 114.677 172.68 114.255 172.68C113.86 172.68 113.473 172.684 113.09 172.693C112.709 172.698 112.319 172.707 111.926 172.718C111.518 173.715 111.147 174.662 110.819 175.561C110.485 176.46 110.239 177.204 110.072 177.791C109.857 177.765 109.619 177.753 109.364 177.753C109.11 177.753 108.874 177.765 108.658 177.791C109.689 175.559 110.694 173.339 111.678 171.13C112.658 168.926 113.644 166.679 114.639 164.396H115.003C115.309 165.134 115.64 165.937 115.995 166.795C116.352 167.657 116.713 168.529 117.087 169.409C117.454 170.289 117.825 171.165 118.194 172.032C118.561 172.897 118.909 173.707 119.234 174.452C119.561 175.197 119.851 175.864 120.114 176.451C120.373 177.039 120.587 177.486 120.751 177.791Z" fill="#FEFEFE"/>
<path d="M123.495 176.431C123.628 176.585 123.787 176.728 123.972 176.863C124.158 176.996 124.368 177.111 124.602 177.198C124.839 177.288 125.091 177.331 125.356 177.331C125.599 177.331 125.833 177.293 126.054 177.216C126.276 177.141 126.474 177.032 126.648 176.891C126.82 176.751 126.956 176.572 127.059 176.355C127.161 176.139 127.212 175.888 127.212 175.608C127.212 175.211 127.099 174.91 126.875 174.699C126.654 174.488 126.379 174.315 126.047 174.182C125.714 174.049 125.352 173.929 124.955 173.828C124.561 173.726 124.197 173.584 123.866 173.399C123.535 173.213 123.259 172.965 123.035 172.661C122.812 172.356 122.702 171.93 122.702 171.396C122.702 170.976 122.772 170.591 122.914 170.237C123.053 169.889 123.257 169.584 123.524 169.329C123.789 169.074 124.122 168.872 124.517 168.727C124.911 168.579 125.363 168.507 125.874 168.507C126.344 168.507 126.744 168.569 127.066 168.696C127.394 168.824 127.701 168.94 127.995 169.04C127.894 169.232 127.798 169.471 127.708 169.75C127.618 170.031 127.561 170.248 127.534 170.401H127.307C127.205 170.095 127.009 169.819 126.714 169.579C126.422 169.334 126.059 169.216 125.624 169.216C125.434 169.216 125.244 169.247 125.051 169.311C124.859 169.375 124.687 169.47 124.534 169.596C124.381 169.723 124.256 169.891 124.152 170.095C124.051 170.298 124 170.541 124 170.821C124 171.233 124.112 171.545 124.332 171.769C124.558 171.995 124.835 172.169 125.166 172.295C125.495 172.425 125.86 172.532 126.255 172.631C126.651 172.725 127.013 172.859 127.344 173.03C127.674 173.207 127.953 173.443 128.176 173.751C128.399 174.055 128.509 174.476 128.509 175.013C128.509 175.381 128.429 175.747 128.269 176.105C128.113 176.462 127.881 176.784 127.582 177.069C127.282 177.355 126.923 177.579 126.502 177.74C126.082 177.9 125.604 177.978 125.071 177.978C124.484 177.978 123.993 177.921 123.599 177.805C123.203 177.693 122.87 177.557 122.604 177.404C122.681 177.241 122.759 177.012 122.843 176.726C122.927 176.438 122.966 176.2 122.966 176.008H123.197C123.262 176.14 123.361 176.28 123.495 176.431Z" fill="#FEFEFE"/>
<path d="M131.69 176.431C131.824 176.585 131.983 176.728 132.167 176.863C132.353 176.996 132.562 177.111 132.799 177.198C133.035 177.288 133.286 177.331 133.552 177.331C133.796 177.331 134.027 177.293 134.25 177.216C134.474 177.141 134.671 177.032 134.842 176.891C135.016 176.751 135.15 176.572 135.255 176.355C135.355 176.139 135.406 175.888 135.406 175.608C135.406 175.211 135.294 174.91 135.071 174.699C134.85 174.488 134.573 174.315 134.241 174.182C133.909 174.049 133.548 173.929 133.151 173.828C132.756 173.726 132.395 173.584 132.061 173.399C131.732 173.213 131.454 172.965 131.232 172.661C131.007 172.356 130.896 171.93 130.896 171.396C130.896 170.976 130.966 170.591 131.108 170.237C131.247 169.889 131.451 169.584 131.72 169.329C131.985 169.074 132.318 168.872 132.712 168.727C133.108 168.579 133.559 168.507 134.07 168.507C134.538 168.507 134.937 168.569 135.262 168.696C135.589 168.824 135.896 168.94 136.191 169.04C136.088 169.232 135.993 169.471 135.903 169.75C135.813 170.031 135.756 170.248 135.731 170.401H135.501C135.401 170.095 135.202 169.819 134.91 169.579C134.618 169.334 134.255 169.216 133.821 169.216C133.629 169.216 133.438 169.247 133.247 169.311C133.056 169.375 132.882 169.47 132.73 169.596C132.577 169.723 132.451 169.891 132.348 170.095C132.246 170.298 132.195 170.541 132.195 170.821C132.195 171.233 132.308 171.545 132.528 171.769C132.753 171.995 133.03 172.169 133.361 172.295C133.691 172.425 134.056 172.532 134.451 172.631C134.846 172.725 135.207 172.859 135.539 173.03C135.869 173.207 136.148 173.443 136.371 173.751C136.595 174.055 136.706 174.476 136.706 175.013C136.706 175.381 136.623 175.747 136.464 176.105C136.307 176.462 136.076 176.784 135.778 177.069C135.478 177.355 135.119 177.579 134.697 177.74C134.277 177.9 133.801 177.978 133.266 177.978C132.679 177.978 132.189 177.921 131.795 177.805C131.398 177.693 131.066 177.557 130.8 177.404C130.877 177.241 130.956 177.012 131.039 176.726C131.123 176.438 131.162 176.2 131.162 176.008H131.391C131.458 176.14 131.556 176.28 131.69 176.431Z" fill="#FEFEFE"/>
<path d="M140.728 174.824C140.824 175.323 140.986 175.768 141.217 176.157C141.444 176.545 141.749 176.855 142.132 177.084C142.514 177.313 142.987 177.428 143.548 177.428C144.107 177.428 144.579 177.313 144.96 177.084C145.344 176.855 145.647 176.545 145.878 176.157C146.107 175.768 146.27 175.323 146.366 174.824C146.46 174.326 146.509 173.812 146.509 173.274C146.509 172.74 146.46 172.223 146.366 171.725C146.27 171.227 146.107 170.785 145.878 170.396C145.648 170.006 145.344 169.699 144.96 169.468C144.579 169.237 144.107 169.123 143.548 169.123C142.987 169.123 142.514 169.237 142.132 169.468C141.749 169.699 141.444 170.007 141.217 170.396C140.986 170.785 140.824 171.227 140.728 171.725C140.633 172.224 140.584 172.741 140.584 173.274C140.584 173.812 140.633 174.326 140.728 174.824ZM139.315 171.065C139.588 170.459 139.946 169.967 140.394 169.589C140.839 169.215 141.34 168.939 141.894 168.768C142.449 168.595 142.999 168.51 143.548 168.51C144.107 168.51 144.662 168.595 145.209 168.768C145.756 168.939 146.254 169.215 146.699 169.589C147.145 169.967 147.505 170.459 147.778 171.065C148.053 171.67 148.189 172.408 148.189 173.273C148.189 174.143 148.053 174.879 147.778 175.483C147.505 176.089 147.145 176.579 146.699 176.958C146.254 177.336 145.756 177.599 145.209 177.75C144.662 177.906 144.107 177.981 143.548 177.981C142.999 177.981 142.449 177.906 141.894 177.75C141.34 177.598 140.839 177.336 140.394 176.958C139.946 176.58 139.588 176.089 139.315 175.483C139.041 174.878 138.905 174.143 138.905 173.273C138.905 172.408 139.041 171.669 139.315 171.065Z" fill="#FEFEFE"/>
<path d="M150.846 171.13C151.127 170.531 151.493 170.036 151.944 169.649C152.397 169.259 152.917 168.97 153.503 168.788C154.087 168.602 154.687 168.511 155.297 168.511C155.997 168.511 156.626 168.596 157.18 168.769C157.732 168.94 158.132 169.134 158.373 169.353C158.287 169.542 158.206 169.744 158.135 169.955C158.067 170.164 158.006 170.385 157.955 170.616H157.802C157.712 170.45 157.591 170.283 157.437 170.107C157.286 169.935 157.105 169.776 156.894 169.629C156.683 169.485 156.452 169.363 156.196 169.268C155.941 169.17 155.66 169.123 155.354 169.123C154.781 169.123 154.287 169.228 153.874 169.439C153.459 169.65 153.123 169.94 152.861 170.309C152.601 170.681 152.41 171.117 152.287 171.621C152.166 172.125 152.105 172.669 152.105 173.256C152.105 174.571 152.387 175.565 152.948 176.232C153.507 176.903 154.329 177.239 155.41 177.239C155.667 177.239 155.928 177.201 156.195 177.132C156.462 177.061 156.725 176.965 156.977 176.844C157.234 176.723 157.472 176.578 157.695 176.412C157.917 176.246 158.111 176.068 158.277 175.875L158.371 175.935C158.308 176.24 158.27 176.554 158.258 176.869C157.876 177.178 157.401 177.44 156.834 177.656C156.267 177.871 155.677 177.98 155.067 177.98C154.519 177.98 153.967 177.903 153.413 177.742C152.859 177.585 152.359 177.314 151.913 176.939C151.468 176.561 151.108 176.075 150.836 175.473C150.561 174.876 150.423 174.142 150.423 173.272C150.426 172.446 150.566 171.731 150.846 171.13Z" fill="#FEFEFE"/>
<path d="M161.861 170.472C161.843 169.84 161.803 169.25 161.738 168.7C162.094 168.766 162.381 168.796 162.599 168.796C162.813 168.796 163.1 168.766 163.458 168.7C163.392 169.25 163.353 169.84 163.334 170.472C163.316 171.102 163.306 171.704 163.306 172.279V174.269C163.306 174.845 163.316 175.448 163.334 176.08C163.353 176.71 163.392 177.281 163.458 177.792C163.163 177.766 162.878 177.754 162.599 177.754C162.318 177.754 162.028 177.766 161.738 177.792C161.803 177.282 161.843 176.71 161.861 176.08C161.881 175.448 161.889 174.846 161.889 174.269V172.279C161.89 171.703 161.882 171.102 161.861 170.472ZM161.909 164.683C162.1 164.49 162.33 164.396 162.599 164.396C162.863 164.396 163.095 164.489 163.285 164.683C163.476 164.875 163.573 165.102 163.573 165.37C163.573 165.638 163.476 165.867 163.285 166.059C163.094 166.25 162.863 166.348 162.599 166.348C162.33 166.348 162.1 166.251 161.909 166.059C161.718 165.867 161.623 165.638 161.623 165.37C161.623 165.102 161.718 164.875 161.909 164.683Z" fill="#FEFEFE"/>
<path d="M171.61 173.218C171.325 173.269 171.037 173.321 170.744 173.381C170.453 173.437 170.165 173.511 169.878 173.603C169.594 173.69 169.341 173.811 169.121 173.963C168.896 174.118 168.72 174.31 168.588 174.538C168.453 174.767 168.388 175.061 168.388 175.418C168.388 176.018 168.558 176.47 168.899 176.778C169.241 177.084 169.624 177.237 170.04 177.237C170.522 177.237 170.963 177.105 171.364 176.836C171.762 176.567 172.07 176.254 172.284 175.898L172.363 173.026C172.146 173.102 171.895 173.167 171.61 173.218ZM169.227 168.739C169.71 168.585 170.208 168.511 170.717 168.511C171.176 168.511 171.596 168.578 171.979 168.709C172.363 168.844 172.691 169.037 172.962 169.286C173.231 169.531 173.444 169.834 173.6 170.186C173.754 170.534 173.833 170.92 173.833 171.338C173.833 172.07 173.818 172.792 173.794 173.513C173.769 174.235 173.755 174.999 173.755 175.799C173.755 175.955 173.758 176.116 173.766 176.289C173.772 176.46 173.799 176.612 173.851 176.748C173.902 176.883 173.976 176.993 174.073 177.083C174.168 177.173 174.31 177.213 174.503 177.213C174.564 177.213 174.632 177.213 174.702 177.206C174.77 177.199 174.84 177.178 174.903 177.141V177.56C174.762 177.624 174.587 177.675 174.377 177.713C174.168 177.75 173.935 177.771 173.68 177.771C173.267 177.771 172.948 177.666 172.73 177.454C172.509 177.245 172.378 176.974 172.343 176.641C171.884 177.103 171.432 177.439 170.993 177.656C170.547 177.872 170.001 177.98 169.353 177.98C169.035 177.98 168.723 177.937 168.421 177.848C168.115 177.757 167.848 177.611 167.611 177.406C167.376 177.204 167.183 176.958 167.038 176.671C166.893 176.382 166.818 176.056 166.818 175.685C166.818 174.921 167.056 174.325 167.532 173.907C168.008 173.484 168.665 173.205 169.503 173.064C170.189 172.948 170.725 172.85 171.112 172.768C171.5 172.683 171.784 172.597 171.969 172.509C172.155 172.422 172.264 172.316 172.302 172.192C172.341 172.07 172.361 171.914 172.361 171.723C172.361 171.405 172.321 171.098 172.243 170.807C172.167 170.511 172.047 170.257 171.882 170.04C171.714 169.82 171.498 169.647 171.23 169.511C170.965 169.379 170.639 169.311 170.256 169.311C169.748 169.311 169.273 169.428 168.833 169.658C168.394 169.888 168.067 170.206 167.852 170.614H167.638V169.617C168.215 169.185 168.743 168.891 169.227 168.739Z" fill="#FEFEFE"/>
<path d="M179.529 166.135C179.489 166.618 179.461 167.095 179.442 167.56C179.422 168.027 179.4 168.494 179.376 168.968C179.515 168.968 179.775 168.963 180.16 168.959C180.54 168.951 180.954 168.935 181.399 168.91C181.386 168.946 181.381 169.018 181.381 169.12V169.313V169.521C181.381 169.611 181.387 169.676 181.399 169.713C181.234 169.699 181.061 169.693 180.884 169.685C180.704 169.677 180.515 169.675 180.312 169.675H179.375C179.361 169.724 179.345 169.931 179.325 170.288C179.308 170.644 179.289 171.069 179.276 171.559C179.265 172.051 179.256 172.564 179.249 173.099C179.24 173.634 179.239 174.112 179.239 174.535C179.239 174.893 179.249 175.244 179.268 175.586C179.287 175.933 179.349 176.241 179.45 176.515C179.554 176.788 179.705 177.01 179.909 177.176C180.113 177.339 180.406 177.425 180.787 177.425C180.89 177.425 181.027 177.414 181.197 177.388C181.368 177.361 181.521 177.329 181.647 177.291V177.748C181.43 177.789 181.192 177.837 180.932 177.894C180.67 177.95 180.419 177.979 180.177 177.979C179.375 177.979 178.782 177.782 178.401 177.388C178.018 176.991 177.828 176.41 177.828 175.646C177.828 175.302 177.833 174.93 177.845 174.526C177.857 174.124 177.873 173.684 177.894 173.209C177.912 172.726 177.927 172.196 177.942 171.618C177.955 171.04 177.959 170.39 177.959 169.676H177.349C177.246 169.676 177.139 169.678 177.024 169.686C176.909 169.694 176.79 169.701 176.661 169.713C176.672 169.636 176.68 169.564 176.688 169.494C176.695 169.425 176.697 169.35 176.697 169.275C176.697 169.21 176.695 169.143 176.688 169.083C176.68 169.018 176.671 168.954 176.661 168.89C177.234 168.93 177.652 168.946 177.922 168.946C177.908 168.693 177.899 168.375 177.894 167.99C177.888 167.608 177.87 167.211 177.845 166.803L179.429 166.135H179.529Z" fill="#FEFEFE"/>
<path d="M186.3 169.448C185.975 169.666 185.706 169.933 185.497 170.262C185.287 170.584 185.128 170.942 185.022 171.332C184.912 171.722 184.846 172.087 184.821 172.435C185.216 172.446 185.627 172.456 186.051 172.47C186.48 172.486 186.897 172.49 187.305 172.49C187.723 172.49 188.153 172.485 188.584 172.47C189.018 172.456 189.437 172.446 189.846 172.435C189.846 172.087 189.818 171.724 189.759 171.339C189.705 170.96 189.588 170.602 189.415 170.272C189.245 169.939 189.006 169.666 188.701 169.448C188.392 169.232 187.992 169.122 187.497 169.122C187.023 169.122 186.624 169.231 186.3 169.448ZM184.198 169.849C184.943 168.956 186.03 168.51 187.457 168.51C188.13 168.51 188.714 168.616 189.204 168.825C189.695 169.037 190.106 169.317 190.437 169.669C190.767 170.017 191.012 170.431 191.173 170.902C191.331 171.375 191.41 171.878 191.41 172.415C191.41 172.54 191.407 172.663 191.4 172.785C191.395 172.908 191.384 173.032 191.372 173.16C190.686 173.145 190.002 173.134 189.328 173.12C188.653 173.106 187.972 173.102 187.285 173.102C186.862 173.102 186.445 173.107 186.034 173.12C185.619 173.134 185.202 173.145 184.779 173.16C184.768 173.222 184.762 173.318 184.762 173.446V173.697C184.762 174.194 184.836 174.661 184.982 175.093C185.128 175.528 185.34 175.9 185.623 176.213C185.902 176.524 186.247 176.773 186.653 176.959C187.061 177.144 187.534 177.237 188.067 177.237C188.322 177.237 188.583 177.201 188.852 177.133C189.12 177.061 189.378 176.966 189.633 176.845C189.89 176.724 190.127 176.578 190.348 176.412C190.574 176.246 190.767 176.069 190.932 175.876L191.027 175.935L190.914 176.872C190.53 177.179 190.057 177.441 189.489 177.656C188.923 177.872 188.332 177.981 187.721 177.981C187.036 177.981 186.407 177.877 185.839 177.666C185.272 177.454 184.782 177.147 184.367 176.747C183.953 176.346 183.637 175.87 183.412 175.322C183.192 174.772 183.082 174.181 183.082 173.541C183.082 171.973 183.454 170.744 184.198 169.849Z" fill="#FEFEFE"/>
<path d="M194.384 176.431C194.517 176.585 194.675 176.728 194.862 176.863C195.046 176.996 195.257 177.111 195.492 177.198C195.729 177.288 195.981 177.331 196.247 177.331C196.488 177.331 196.723 177.293 196.944 177.216C197.167 177.141 197.365 177.032 197.537 176.891C197.71 176.751 197.845 176.572 197.947 176.355C198.049 176.139 198.102 175.888 198.102 175.608C198.102 175.211 197.989 174.91 197.765 174.699C197.544 174.488 197.266 174.315 196.937 174.182C196.603 174.049 196.241 173.929 195.843 173.828C195.451 173.726 195.087 173.584 194.756 173.399C194.425 173.213 194.148 172.965 193.925 172.661C193.702 172.356 193.592 171.93 193.592 171.396C193.592 170.976 193.661 170.591 193.802 170.237C193.942 169.889 194.147 169.584 194.414 169.329C194.678 169.074 195.011 168.872 195.407 168.727C195.801 168.579 196.252 168.507 196.763 168.507C197.232 168.507 197.633 168.569 197.957 168.696C198.282 168.824 198.591 168.94 198.884 169.04C198.782 169.232 198.687 169.471 198.596 169.75C198.508 170.031 198.45 170.248 198.425 170.401H198.196C198.095 170.095 197.898 169.819 197.603 169.579C197.311 169.334 196.947 169.216 196.513 169.216C196.323 169.216 196.132 169.247 195.94 169.311C195.749 169.375 195.577 169.47 195.423 169.596C195.272 169.723 195.144 169.891 195.041 170.095C194.938 170.298 194.888 170.541 194.888 170.821C194.888 171.233 195.002 171.545 195.222 171.769C195.446 171.995 195.723 172.169 196.054 172.295C196.385 172.425 196.749 172.532 197.145 172.631C197.541 172.725 197.902 172.859 198.233 173.03C198.563 173.207 198.842 173.443 199.066 173.751C199.287 174.055 199.398 174.476 199.398 175.013C199.398 175.381 199.318 175.747 199.157 176.105C199.002 176.462 198.77 176.784 198.473 177.069C198.172 177.355 197.812 177.579 197.392 177.74C196.973 177.9 196.494 177.978 195.96 177.978C195.373 177.978 194.882 177.921 194.487 177.805C194.092 177.693 193.761 177.557 193.494 177.404C193.571 177.241 193.65 177.012 193.733 176.726C193.817 176.438 193.857 176.2 193.857 176.008H194.086C194.152 176.14 194.251 176.28 194.384 176.431Z" fill="#FEFEFE"/>
<path d="M132.602 125.956C132.207 126.147 131.733 125.99 131.542 125.598C131.35 125.206 131.511 124.732 131.892 124.535C132.293 124.343 132.767 124.502 132.947 124.894C133.144 125.288 132.989 125.759 132.602 125.956ZM132.617 122.757C132.713 122.289 133.272 121.809 133.693 121.684L133.539 121.7L123.999 102.536L125.496 98.0489L123.447 97.3604L121.653 102.743L130.853 121.197C130.853 121.197 131.233 121.944 130.716 122.198C130.197 122.458 129.845 121.702 129.845 121.702L120.642 103.242L115.272 101.445L114.591 103.499L119.075 104.997L128.61 124.161L128.554 124.243C128.966 123.984 129.582 123.847 129.949 124.089C129.272 124.995 129.411 125.993 129.599 126.367C131.061 129.302 136.21 126.778 134.735 123.803C134.555 123.43 134.061 122.768 132.617 122.757Z" fill="#AF8B18"/>
<path d="M75.3641 125.046L75.3933 124.966C75.6558 124.444 75.9008 123.685 75.9508 123.604C89.3158 128.256 101.809 129.155 114.215 126.264C114.215 126.264 118.281 124.919 120.156 126.173C106.771 131.351 90.8532 130.465 75.3641 125.046ZM126.298 124.53C126.048 123.998 125.944 123.77 125.656 123.15C125.656 123.15 125.426 122.621 125.154 122.043C125.236 121.928 125.301 121.831 125.367 121.703C126.213 120.065 123.434 116.566 123.933 117.705C124.376 118.686 125.198 120.384 123.286 121.158C121.182 122.1 122.372 123.16 122.671 123.278C122.789 123.321 123.032 123.408 123.363 123.393C123.899 123.898 124.449 125.21 125.336 127.132C125.77 128.06 123.752 129.552 122.681 127.214C122.668 127.196 122.657 127.186 122.638 127.162C122.656 127.157 122.668 127.15 122.688 127.147C121.493 121.738 113.915 124.553 113.915 124.553C102.578 127.196 90.2141 126.591 77.7541 122.278L76.6566 122.504C76.6566 122.504 77.23 121.798 77.455 121.236C78.9066 120.194 78.7125 116.1 78.47 117.272C78.2533 118.33 77.9191 120.186 75.9091 119.683C73.6608 119.208 74.0008 120.772 74.1791 121.043C74.2391 121.138 74.3841 121.336 74.6233 121.506C74.835 122.055 74.2391 123.099 73.1675 125.27C72.3541 126.908 70.4383 126.157 70.9058 124.31L70.9766 124.131L71.0341 124.147L70.9933 124.098L71.3033 123.409H71.2925L80.5133 104.907L85.0008 103.408L84.3041 101.355L78.9316 103.151L69.7342 121.608L69.0217 123.537C68.9883 123.584 68.9642 123.629 68.9475 123.687C68.915 123.753 68.8433 123.891 68.8433 123.891L68.8567 123.899C68.4933 124.886 68.5725 126.103 68.9825 126.789C70.4175 129.164 73.5508 129.349 74.8816 126.759C74.8966 126.738 74.9091 126.763 75.0216 126.802C90.9908 132.262 105.757 133.367 120.596 127.913L120.638 127.868C120.638 127.868 120.719 127.844 120.851 127.802L121.322 128.993C121.822 129.986 122.906 130.794 123.752 130.863C126.45 131.069 128.304 128.904 127.102 126.319L126.298 124.53Z" fill="#AF8B18"/>
<path d="M123.798 119.23C123.798 118.419 123.152 117.773 122.355 117.773C121.545 117.773 120.904 118.419 120.904 119.23C120.904 120.03 121.546 120.679 122.355 120.679C123.151 120.68 123.798 120.03 123.798 119.23Z" fill="#AF8B18"/>
<path d="M58.1402 121.178C57.5793 121.037 57.026 121.248 56.6818 121.661C56.7202 121.575 56.7802 121.495 56.8093 121.398C57.001 120.619 56.526 119.83 55.7527 119.635C54.9668 119.442 54.1735 119.913 53.9877 120.694C53.7852 121.473 54.2668 122.262 55.0493 122.459C55.6035 122.594 56.1568 122.385 56.5035 121.971C56.4577 122.06 56.3985 122.14 56.3735 122.236C56.1852 123.015 56.6543 123.802 57.431 123.999C58.2152 124.192 59.0002 123.725 59.196 122.942C59.3893 122.159 58.9135 121.373 58.1402 121.178Z" fill="#AF8B18"/>
<path d="M62.297 119.54C63.4495 117.857 63.0811 116.58 63.0811 116.58C62.1453 113.294 60.952 109.598 59.7128 105.275L59.3853 104.211C59.0703 102.996 60.6128 102.612 60.897 103.557C61.2661 104.809 61.7661 106.296 62.1328 107.39C62.8111 109.432 62.652 111.639 64.4828 112.041C66.3111 112.441 66.4486 110.085 66.4486 110.085C67.9186 110.788 69.0703 111.274 70.3911 111.158C72.7578 110.958 75.6336 108.089 75.6336 108.089C73.3119 109.654 69.4203 109.413 67.1678 108.548C67.1678 108.548 67.1503 108.541 67.1461 108.536C67.1295 108.531 67.1053 108.523 67.0903 108.515C67.0511 108.505 66.992 108.484 66.9386 108.456C66.9386 108.456 66.9261 108.456 66.917 108.449C66.4445 108.253 65.3795 107.695 64.4828 106.386C63.807 105.417 63.2636 104.434 62.7711 102.607C61.827 99.3013 56.4503 100.925 57.5578 104.915C58.1395 107.032 60.4711 114.635 61.1945 117.119C61.1945 117.119 61.0095 119.704 58.0953 118.154C56.3045 117.206 56.502 115.59 56.6253 114.622C56.7612 113.651 58.1387 112.401 58.1387 112.401C58.1387 112.401 56.7687 111.75 55.782 114.511C55.1895 116.148 52.5912 116.67 51.437 116.827C52.4303 116.775 54.5887 116.958 56.3128 119.086C58.0303 121.102 61.147 121.215 62.297 119.54Z" fill="#AF8B18"/>
<path d="M51.4375 116.826C51.0875 116.841 50.8809 116.883 50.8809 116.883C50.8809 116.883 51.0934 116.869 51.4375 116.826Z" fill="#AF8B18"/>
<path d="M69.1292 112.915C68.9159 113.968 68.5892 115.822 66.5767 115.327C64.3276 114.854 64.6684 116.412 64.8417 116.683C64.9342 116.822 65.1976 117.193 65.7301 117.366C66.5392 118.454 66.5767 120.323 65.2209 121.56C63.6184 123.043 61.4026 121.235 61.0367 120.726C61.0192 121.575 62.8859 124.641 65.7376 123.702C67.6576 123.056 69.0234 119.527 68.4109 116.603C69.5467 115.262 69.3625 111.834 69.1292 112.915Z" fill="#AF8B18"/>
<path d="M129.887 106.757C131.59 107.468 134.84 104.402 133.747 105C132.808 105.523 131.186 106.48 130.257 104.635C129.171 102.657 128.232 103.834 128.107 104.175C127.469 103.517 126.688 102.741 125.599 102.611C127.249 105.959 133.185 118.529 134.637 121.432C135.225 121.146 135.807 120.854 136.397 120.572C134.821 117.367 131.561 110.403 129.76 106.696C129.812 106.712 129.844 106.737 129.887 106.757Z" fill="#AF8B18"/>
<path d="M40.5472 99.1325C40.1681 99.3269 39.6981 99.1767 39.4956 98.7794C39.2914 98.3897 39.4656 97.9189 39.8514 97.7211C40.2456 97.53 40.7147 97.6852 40.9064 98.0792C41.1039 98.4731 40.9456 98.938 40.5472 99.1325ZM62.8847 90.167L67.3571 91.6668L68.0388 89.6145L62.673 87.8193L44.2464 97.0259C44.2464 97.0259 43.5006 97.4023 43.2489 96.8957C42.9906 96.3799 43.7456 96.0135 43.7456 96.0135L62.1688 86.8052L63.973 81.427L61.918 80.7434L60.4213 85.2295L41.2856 94.7875L41.2014 94.7257C41.4597 95.1388 41.6056 95.7581 41.3547 96.1262C40.4556 95.4418 39.4589 95.5929 39.0931 95.774C36.1514 97.2396 38.6714 102.401 41.6372 100.924C42.0172 100.738 42.6789 100.248 42.6881 98.7961C43.1589 98.8971 43.6322 99.4546 43.7606 99.8644L43.7522 99.7259L62.8847 90.167Z" fill="#AF8B18"/>
<path d="M40.4005 41.4608L40.4797 41.49C41.0039 41.7537 41.7639 41.9924 41.8422 42.0425C37.2072 55.4373 36.3014 67.9481 39.1805 80.3655C39.1805 80.3655 40.5297 84.4451 39.2764 86.3138C34.1022 72.9141 34.9922 56.9721 40.4005 41.4608ZM40.9239 92.4633C41.4455 92.2204 41.683 92.1127 42.2939 91.8306C42.2939 91.8306 42.8222 91.5986 43.398 91.329C43.5114 91.4033 43.6139 91.4709 43.753 91.5377C45.3789 92.3831 48.8663 89.598 47.7297 90.1063C46.753 90.5495 45.0622 91.3699 44.2822 89.4536C43.3397 87.3446 42.293 88.5389 42.1747 88.8419C42.1305 88.9504 42.0372 89.2033 42.0514 89.5287C41.5539 90.0687 40.2439 90.6204 38.3214 91.5068C37.3922 91.94 35.9114 89.921 38.2422 88.8419C38.2605 88.8293 38.2714 88.8152 38.2905 88.8085C38.2964 88.8202 38.2997 88.8343 38.3122 88.8469C43.703 87.655 40.9005 80.0659 40.9005 80.0659C38.2572 68.7118 38.8539 56.3278 43.1647 43.852L42.9347 42.7503C42.9347 42.7503 43.6447 43.3228 44.2064 43.5432C45.243 45.0087 49.3347 44.8134 48.1638 44.5656C47.113 44.3477 45.2497 44.0139 45.753 42.0083C46.2264 39.7482 44.668 40.0987 44.3972 40.2715C44.2972 40.3324 44.103 40.4726 43.9322 40.7188C43.3814 40.9358 42.3397 40.3407 40.1805 39.2608C38.548 38.4453 39.2855 36.519 41.1322 36.9898L41.3139 37.0666L41.2964 37.1183L41.3464 37.0774L42.0414 37.3862L60.513 46.612L62.0196 51.0989L64.058 50.4204L62.268 45.0355L43.8339 35.8288L41.9072 35.101V35.1035C41.8572 35.0818 41.8189 35.0518 41.7647 35.0343C41.6972 34.9959 41.558 34.9258 41.558 34.9258C41.558 34.9324 41.5547 34.9349 41.5547 34.9349C40.5655 34.5761 39.3555 34.6503 38.6597 35.0676C36.2906 36.5057 36.1072 39.6388 38.698 40.9742C38.7205 40.9801 38.698 40.9959 38.653 41.1086C33.2047 57.1082 32.0981 71.8967 37.5497 86.762L37.5905 86.7937C37.5905 86.7937 37.608 86.8797 37.6472 87.0149L36.4689 87.4839C35.4722 87.9864 34.6664 89.0672 34.5956 89.926C34.3914 92.6152 36.5514 94.4797 39.1364 93.2812L40.9239 92.4633Z" fill="#AF8B18"/>
<path d="M46.2032 87.0669C45.4048 87.0669 44.7632 87.7146 44.7632 88.52C44.7632 89.3212 45.4057 89.9747 46.2032 89.9747C47.0132 89.9747 47.6665 89.3212 47.6665 88.52C47.6673 87.7154 47.0132 87.0669 46.2032 87.0669Z" fill="#AF8B18"/>
<path d="M42.5111 25.2624C43.2811 25.4577 44.0694 24.9778 44.2644 24.2016C44.4069 23.6441 44.1852 23.0958 43.7844 22.7452C43.8702 22.7878 43.9519 22.8454 44.0477 22.8721C44.8311 23.0632 45.6152 22.5908 45.8077 21.8113C45.9961 21.0351 45.5161 20.2456 44.7544 20.0503C43.9727 19.8583 43.1819 20.3315 42.9894 21.1102C42.8436 21.6644 43.0586 22.2211 43.4769 22.5716C43.3836 22.5266 43.3127 22.4656 43.2144 22.4448C42.4252 22.2478 41.6394 22.721 41.4469 23.4997C41.2511 24.2793 41.7261 25.0696 42.5111 25.2624Z" fill="#AF8B18"/>
<path d="M44.7126 27.1163C43.8718 27.0855 40.8059 28.9592 41.7476 31.8085C42.3884 33.7398 45.9134 35.1011 48.8376 34.4935C50.1667 35.6294 53.5942 35.4458 52.5167 35.2154C51.4642 34.9968 49.6159 34.6654 50.1051 32.659C50.5834 30.3997 49.0176 30.7511 48.7526 30.9205C48.6101 31.0123 48.2401 31.2761 48.0759 31.8044C46.9851 32.6256 45.1159 32.659 43.8876 31.3103C42.3959 29.6895 44.2059 27.4844 44.7126 27.1163Z" fill="#AF8B18"/>
<path d="M48.611 17.4938C48.596 17.1491 48.5469 16.938 48.5469 16.938C48.5469 16.938 48.5577 17.1567 48.611 17.4938Z" fill="#AF8B18"/>
<path d="M45.8999 28.3741C47.5866 29.5242 48.8557 29.1536 48.8557 29.1536C52.139 28.218 55.8265 27.0212 60.1465 25.7934L61.2015 25.4521C62.4107 25.1416 62.8073 26.6815 61.8657 26.9644C60.6065 27.3417 59.1257 27.8349 58.039 28.2113C55.9932 28.8882 53.7857 28.7254 53.3924 30.5624C52.9949 32.3952 55.344 32.5338 55.344 32.5338C54.6407 34.0002 54.1615 35.1645 54.269 36.479C54.4632 38.8543 57.339 41.7296 57.339 41.7296C55.7449 39.3634 56.0215 35.3698 56.9157 33.1339C56.9307 33.1172 56.9307 33.0947 56.944 33.0763C56.9599 33.0354 56.9732 33.007 56.9907 32.9645C57.1965 32.477 57.7499 31.4463 59.0382 30.5624C60.0007 29.8864 60.9815 29.3381 62.8073 28.8456C66.1057 27.905 64.4882 22.5126 60.504 23.6243C58.399 24.2018 50.7982 26.5388 48.3224 27.2699C48.3224 27.2699 45.7324 27.0846 47.2907 24.1676C48.2316 22.3782 49.8391 22.5702 50.8124 22.6937C51.7874 22.8214 53.0224 24.2018 53.0224 24.2018C53.0224 24.2018 53.6824 22.8331 50.919 21.8482C49.2882 21.2598 48.7641 18.6516 48.6107 17.4949C48.6532 18.4972 48.4807 20.6505 46.3516 22.3907C44.3407 24.0908 44.2249 27.2256 45.8999 28.3741Z" fill="#AF8B18"/>
<path d="M66.6323 5.53427C67.0131 5.34315 67.4915 5.49839 67.6798 5.88982C67.8815 6.27792 67.7156 6.75782 67.3315 6.95145C66.9365 7.14258 66.4656 6.984 66.2648 6.59423C66.0781 6.20197 66.2306 5.72874 66.6323 5.53427ZM66.6106 8.72751C66.509 9.1999 65.9582 9.67313 65.5407 9.80249L65.6765 9.79248L75.2248 28.9569L73.7348 33.4446L75.7748 34.1282L77.5748 28.7432L68.379 10.2916C68.379 10.2916 67.9981 9.54376 68.5056 9.28837C69.0281 9.03465 69.3865 9.78663 69.3865 9.78663L78.5873 28.2475L83.9531 30.0444L84.6406 27.9904L80.1623 26.4889L70.6156 7.32369L70.6823 7.2444C70.2623 7.50063 69.6456 7.64084 69.2731 7.40047C69.9581 6.49742 69.8098 5.49839 69.634 5.12531C68.1656 2.1833 63.014 4.70967 64.4865 7.68174C64.6807 8.05648 65.1573 8.72083 66.6106 8.72751Z" fill="#AF8B18"/>
<path d="M123.861 6.44311L123.827 6.51989C123.575 7.04236 123.331 7.8077 123.278 7.88365C109.898 3.23652 97.4231 2.33263 85.0181 5.22457C85.0181 5.22457 80.944 6.56913 79.0773 5.31805C92.4498 0.13509 108.379 1.02229 123.861 6.44311ZM72.9248 6.96224C73.1773 7.49055 73.2806 7.72007 73.5656 8.33768C73.5656 8.33768 73.7923 8.86516 74.069 9.44939C73.999 9.56289 73.9231 9.65804 73.8523 9.78741C73.0156 11.4324 75.7906 14.9195 75.2898 13.7869C74.8423 12.8012 74.0231 11.1094 75.939 10.3332C78.0406 9.39263 76.8556 8.3285 76.549 8.21917C76.4365 8.1741 76.1915 8.08312 75.8715 8.09564C75.3298 7.59821 74.7781 6.28036 73.894 4.35991C73.4548 3.43015 75.4781 1.93953 76.549 4.27478C76.5681 4.29982 76.579 4.30983 76.5848 4.32736C76.5731 4.33654 76.5565 4.33654 76.5398 4.34906C77.7323 9.75235 85.3089 6.9397 85.3089 6.9397C96.6489 4.29815 109.011 4.89573 121.464 9.21736L122.582 8.98451C122.582 8.98451 122.001 9.69476 121.773 10.2565C120.324 11.3031 120.505 15.3885 120.758 14.2142C120.979 13.1576 121.309 11.3081 123.31 11.803C125.562 12.2796 125.216 10.7205 125.045 10.4476C124.985 10.3549 124.847 10.153 124.598 9.98104C124.381 9.4352 124.985 8.38776 126.05 6.22193C126.866 4.58359 128.79 5.32222 128.318 7.1784L128.243 7.35784L128.192 7.34032L128.227 7.38872L127.925 8.0873L118.713 26.5857L114.24 28.0872L114.921 30.137L120.282 28.3401L129.486 9.88339L130.213 7.95376C130.231 7.90869 130.256 7.86112 130.273 7.80854C130.316 7.73509 130.384 7.59988 130.384 7.59988L130.369 7.58987C130.732 6.60753 130.66 5.38565 130.238 4.70043C128.805 2.32345 125.677 2.14401 124.349 4.73632C124.33 4.75719 124.321 4.7263 124.209 4.69459C108.235 -0.772136 93.4689 -1.8755 78.6256 3.58288L78.5948 3.62378C78.5948 3.62378 78.5081 3.64548 78.3698 3.68637L77.9056 2.50539C77.4056 1.50219 76.3256 0.696785 75.4698 0.630016C72.7873 0.422197 70.9257 2.58886 72.1207 5.1795L72.9248 6.96224Z" fill="#AF8B18"/>
<path d="M75.4258 12.2604C75.4258 13.0608 76.0691 13.7184 76.8699 13.7184C77.6708 13.7184 78.3341 13.0608 78.3341 12.2604C78.3341 11.4541 77.6716 10.804 76.8708 10.804C76.0699 10.804 75.4258 11.4541 75.4258 12.2604Z" fill="#AF8B18"/>
<path d="M141.086 10.3089C141.642 10.4475 142.197 10.2347 142.544 9.82653C142.505 9.91333 142.446 9.99762 142.417 10.0928C142.226 10.8715 142.696 11.661 143.481 11.853C144.255 12.0474 145.042 11.5742 145.236 10.7972C145.436 10.0143 144.965 9.22811 144.179 9.03114C143.624 8.89176 143.065 9.10292 142.723 9.51772C142.762 9.42591 142.82 9.35163 142.845 9.25148C143.044 8.47195 142.568 7.68157 141.786 7.48961C141.021 7.29013 140.23 7.76503 140.036 8.5479C139.835 9.32993 140.312 10.1178 141.086 10.3089Z" fill="#AF8B18"/>
<path d="M147.783 14.6648C148.139 14.6439 148.339 14.603 148.339 14.603C148.339 14.603 148.121 14.6155 147.783 14.6648Z" fill="#AF8B18"/>
<path d="M136.926 11.9548C135.771 13.6299 136.146 14.9052 136.146 14.9052C137.087 18.1977 138.272 21.8884 139.504 26.2167L139.842 27.2792C140.153 28.4944 138.622 28.8783 138.331 27.9318C137.962 26.6808 137.457 25.1935 137.087 24.1026C136.414 22.0553 136.578 19.8486 134.741 19.4488C132.918 19.0482 132.772 21.3985 132.772 21.3985C131.312 20.7024 130.147 20.2133 128.832 20.3302C126.462 20.5321 123.596 23.3999 123.596 23.3999C125.916 21.835 129.787 22.0804 132.06 22.9442C132.06 22.9442 132.072 22.9484 132.082 22.9542C132.102 22.9609 132.127 22.9659 132.132 22.9692C132.177 22.9851 132.233 23.0076 132.306 23.0285C132.306 23.0343 132.306 23.036 132.316 23.0427C132.785 23.2396 133.841 23.7955 134.741 25.1025C135.414 26.0715 135.959 27.0497 136.456 28.885C137.397 32.1859 142.783 30.5634 141.671 26.5739C141.085 24.4665 138.762 16.8532 138.037 14.3735C138.037 14.3735 138.216 11.7846 141.124 13.3369C142.92 14.2826 142.726 15.9 142.597 16.8699C142.468 17.8447 141.086 19.0874 141.086 19.0874C141.086 19.0874 142.453 19.7426 143.447 16.9817C144.032 15.3433 146.64 14.82 147.783 14.6656C146.789 14.7099 144.639 14.5279 142.903 12.4022C141.198 10.3857 138.072 10.2706 136.926 11.9548Z" fill="#AF8B18"/>
<path d="M130.091 18.5727C130.317 17.5194 130.635 15.6674 132.646 16.1656C134.9 16.6364 134.552 15.0781 134.39 14.8077C134.297 14.6667 134.022 14.2961 133.502 14.1267C132.686 13.0367 132.646 11.1613 133.989 9.93107C135.607 8.43962 137.815 10.2557 138.181 10.7623C138.213 9.91355 136.339 6.84634 133.491 7.79029C131.566 8.43127 130.212 11.9575 130.817 14.8853C129.681 16.2257 129.866 19.6635 130.091 18.5727Z" fill="#AF8B18"/>
<path d="M69.335 24.7257C67.6342 24.023 64.3958 27.0869 65.475 26.4876C66.4175 25.9651 68.0325 25.0062 68.965 26.8523C70.0625 28.8304 70.9892 27.6486 71.1233 27.3114C71.7517 27.9774 72.5367 28.7511 73.6358 28.8813C71.98 25.5253 66.045 12.9594 64.5933 10.0532C64.0075 10.3453 63.4184 10.6358 62.8325 10.9179C64.4017 14.1236 67.66 21.0835 69.4625 24.7908C69.42 24.7666 69.3883 24.7491 69.335 24.7257Z" fill="#AF8B18"/>
<path d="M158.672 32.3526C159.066 32.1589 159.531 32.3125 159.734 32.7106C159.928 33.1004 159.765 33.5711 159.37 33.7681C158.986 33.9575 158.51 33.8023 158.319 33.4117C158.123 33.0152 158.282 32.5454 158.672 32.3526ZM136.343 41.323L131.865 39.8215L131.178 41.8738L136.55 43.6716L154.982 34.465C154.982 34.465 155.726 34.0861 155.981 34.5918C156.236 35.1085 155.481 35.4774 155.481 35.4774L137.053 44.684L135.259 50.0623L137.312 50.7466L138.806 46.2531L157.936 36.6976L158.022 36.7618C157.762 36.3462 157.626 35.7328 157.876 35.3597C158.771 36.0407 159.766 35.898 160.141 35.7127C163.082 34.2471 160.549 29.0926 157.582 30.5631C157.21 30.7518 156.548 31.2392 156.542 32.6923C156.071 32.5971 155.59 32.0371 155.467 31.6206L155.482 31.76L136.343 41.323Z" fill="#AF8B18"/>
<path d="M158.817 90.0262L158.748 89.9954C158.218 89.7358 157.46 89.4971 157.377 89.4453C162.025 76.054 162.928 63.5372 160.037 51.1265C160.037 51.1265 158.698 47.0453 159.947 45.1749C165.126 58.5738 164.236 74.5158 158.817 90.0262ZM160.527 90.512C160.508 90.5045 160.53 90.4911 160.577 90.3726C166.028 74.3789 167.127 59.592 161.681 44.7267L161.64 44.6933C161.64 44.6933 161.617 44.6015 161.575 44.4705L162.76 43.9997C163.755 43.5023 164.563 42.4215 164.623 41.5627C164.836 38.8694 162.669 37.0107 160.09 38.21L158.303 39.0254C157.776 39.2658 157.549 39.3777 156.932 39.6623C156.932 39.6623 156.406 39.8918 155.821 40.1572C155.719 40.0879 155.607 40.0203 155.481 39.951C153.843 39.1006 150.365 41.8857 151.486 41.3832C152.478 40.94 154.161 40.1171 154.938 42.0367C155.882 44.1433 156.935 42.9473 157.06 42.6452C157.099 42.5333 157.191 42.2838 157.173 41.9591C157.676 41.4174 158.988 40.8699 160.9 39.9827C161.833 39.5479 163.321 41.5668 160.994 42.6435C160.968 42.6543 160.958 42.6702 160.939 42.6777C160.933 42.6685 160.933 42.6502 160.917 42.6326C155.52 43.8278 158.328 51.417 158.328 51.417C160.969 62.7786 160.37 75.1609 156.057 87.6359L156.288 88.7409C156.288 88.7409 155.58 88.1692 155.016 87.9405C153.973 86.48 149.895 86.6769 151.072 86.9215C152.116 87.1401 153.968 87.469 153.476 89.4779C153.002 91.7347 154.558 91.3883 154.828 91.2131C154.922 91.1513 155.12 91.0136 155.294 90.7707C155.837 90.5571 156.893 91.1488 159.048 92.2246C160.682 93.0417 159.938 94.9688 158.092 94.4989L157.911 94.4163L157.926 94.3654L157.881 94.4046L157.186 94.0992V94.1017L138.714 84.8742L137.208 80.3831L135.166 81.0683L136.963 86.4466L155.389 95.6574L157.32 96.3868V96.3818C157.366 96.4052 157.409 96.4336 157.456 96.4536C157.535 96.4887 157.669 96.5596 157.669 96.5596C157.669 96.5496 157.677 96.5488 157.677 96.5488C158.663 96.9118 159.878 96.84 160.567 96.4169C162.937 94.9788 163.121 91.8482 160.527 90.512Z" fill="#AF8B18"/>
<path d="M153.004 44.4252C153.819 44.4252 154.468 43.7767 154.468 42.9646C154.468 42.1659 153.819 41.5132 153.004 41.5132C152.21 41.5132 151.562 42.1659 151.562 42.9646C151.562 43.7767 152.21 44.4252 153.004 44.4252Z" fill="#AF8B18"/>
<path d="M156.719 106.223C155.941 106.032 155.151 106.507 154.959 107.283C154.818 107.838 155.032 108.397 155.444 108.742C155.359 108.694 155.276 108.641 155.176 108.615C154.399 108.423 153.614 108.897 153.416 109.675C153.225 110.457 153.702 111.242 154.483 111.439C155.261 111.633 156.041 111.162 156.237 110.377C156.372 109.821 156.161 109.268 155.756 108.923C155.839 108.962 155.92 109.027 156.017 109.045C156.795 109.242 157.58 108.765 157.775 107.99C157.967 107.209 157.499 106.416 156.719 106.223Z" fill="#AF8B18"/>
<path d="M154.515 104.372C155.361 104.4 158.422 102.529 157.483 99.6836C156.843 97.749 153.318 96.3869 150.386 96.9911C149.049 95.8594 145.63 96.0472 146.72 96.2725C147.76 96.4962 149.607 96.8209 149.119 98.8281C148.645 101.087 150.202 100.741 150.477 100.567C150.618 100.476 150.984 100.214 151.153 99.6836C152.241 98.8673 154.112 98.8281 155.342 100.179C156.824 101.797 155.012 104.009 154.515 104.372Z" fill="#AF8B18"/>
<path d="M150.618 113.989C150.631 114.335 150.677 114.551 150.677 114.551C150.677 114.551 150.659 114.332 150.618 113.989Z" fill="#AF8B18"/>
<path d="M153.319 103.115C151.648 101.963 150.37 102.334 150.37 102.334C147.088 103.27 143.4 104.467 139.088 105.7L138.03 106.036C136.805 106.351 136.422 104.802 137.373 104.522C138.621 104.15 140.095 103.653 141.175 103.283H141.191C143.227 102.601 145.446 102.763 145.839 100.931C146.234 99.0944 143.884 98.9575 143.884 98.9575C144.587 97.4886 145.077 96.3235 144.964 95.0165C144.756 92.6362 141.901 89.7634 141.901 89.7634C143.487 92.1229 143.206 96.119 142.304 98.3541C142.3 98.3725 142.297 98.39 142.285 98.4142C142.267 98.4518 142.256 98.4835 142.239 98.5244C142.036 99.0168 141.462 100.043 140.185 100.931C139.223 101.602 138.245 102.148 136.414 102.642C133.123 103.585 134.741 108.979 138.721 107.87C140.822 107.284 148.427 104.948 150.896 104.223C150.896 104.223 153.484 104.406 151.945 107.323C150.993 109.118 149.378 108.924 148.414 108.793C147.442 108.664 146.202 107.284 146.202 107.284C146.202 107.284 145.546 108.652 148.302 109.644C149.935 110.231 150.459 112.836 150.619 113.99C150.568 112.99 150.752 110.84 152.882 109.102C154.892 107.392 154.999 104.263 153.319 103.115Z" fill="#AF8B18"/>
<path d="M140.567 35.4211C141.278 33.7135 138.217 30.4685 138.813 31.5593C139.327 32.4991 140.297 34.1174 138.445 35.0514C136.483 36.1422 137.647 37.077 137.988 37.2005C137.332 37.8457 136.551 38.6302 136.423 39.7202C139.761 38.0685 152.315 32.1185 155.222 30.6655C154.929 30.0787 154.643 29.4953 154.359 28.9053C151.154 30.4777 144.204 33.7452 140.506 35.548C140.524 35.5021 140.542 35.4704 140.567 35.4211Z" fill="#AF8B18"/>
<path d="M58.6617 96.0654C57.9525 97.7713 61.0117 101.02 60.415 99.9296C59.8984 98.9874 58.9392 97.369 60.775 96.4351C62.7442 95.3484 61.58 94.4112 61.2375 94.2818C61.9017 93.64 62.6725 92.8521 62.8075 91.7629C59.455 93.4196 46.9051 99.3688 44.0034 100.816C44.2951 101.409 44.5867 101.99 44.8709 102.584C48.0692 101.01 55.0184 97.7421 58.7242 95.9343C58.7009 95.9869 58.68 96.0153 58.6617 96.0654Z" fill="#AF8B18"/>
<path d="M85.5687 86.9431C85.5687 86.9431 85.5654 87.0591 85.5112 87.2294C85.5904 87.0499 85.5687 86.9431 85.5687 86.9431Z" fill="#AF8B18"/>
<path d="M78.4346 51.6735C78.4346 51.6735 78.3321 51.6694 78.1504 51.6301C78.3387 51.7036 78.4346 51.6735 78.4346 51.6735Z" fill="#AF8B18"/>
<path d="M113.65 44.5406C113.65 44.5406 113.667 44.4254 113.706 44.2551C113.635 44.4387 113.65 44.5406 113.65 44.5406Z" fill="#AF8B18"/>
<path d="M120.787 79.8068C120.787 79.8068 120.901 79.816 121.063 79.8586C120.883 79.7876 120.787 79.8068 120.787 79.8068Z" fill="#AF8B18"/>
<path d="M78.4276 53.116L69.9902 48.8912L67.5835 49.6924L68.2735 51.748L69.7818 51.2439L77.4226 55.0147C75.8318 58.2572 74.9235 61.8928 74.9235 65.7437C74.9235 69.2708 75.6826 72.6192 77.011 75.6547L78.9726 74.6666C77.7851 71.9249 77.1251 68.9111 77.1251 65.7437C77.1251 59.323 79.8368 53.5383 84.1593 49.432L83.1184 47.4014C81.2843 49.0556 79.7026 50.9869 78.4276 53.116Z" fill="#AF8B18"/>
<path d="M89.7129 43.1121L90.7079 45.0718C93.4504 43.8867 96.4554 43.2257 99.6195 43.2257C106.035 43.2257 111.817 45.9432 115.914 50.2773L117.959 49.2607C116.313 47.4129 114.383 45.8338 112.264 44.5485L116.441 36.0672L115.638 33.6643L113.588 34.352L114.09 35.8602L110.276 43.4844C107.051 41.9212 103.447 41.0206 99.6204 41.0206C96.097 41.0206 92.757 41.7751 89.7129 43.1121Z" fill="#AF8B18"/>
<path d="M120.759 78.4414L129.248 82.5953L131.645 81.7899L130.96 79.7434L129.444 80.2409L121.852 76.4025C123.406 73.1708 124.299 69.567 124.299 65.7436C124.299 62.2332 123.557 58.9064 122.236 55.8801L120.271 56.86C121.442 59.5883 122.096 62.5879 122.096 65.7444C122.096 72.1768 119.379 77.9715 115.046 82.0803L116.057 84.1368C117.9 82.4893 119.478 80.5613 120.759 78.4414Z" fill="#AF8B18"/>
<path d="M109.444 88.4149L108.479 86.4402C105.758 87.6145 102.769 88.2638 99.622 88.2638C93.222 88.2638 87.4412 85.5555 83.3403 81.238L81.2979 82.2671C82.982 84.1258 84.932 85.7324 87.0887 87.0186L82.7912 95.4156L83.5887 97.826L85.6362 97.1358L85.132 95.6251L89.0153 88.0326C92.2286 89.5825 95.8311 90.4764 99.6228 90.4764C103.114 90.4764 106.429 89.7327 109.444 88.4149Z" fill="#AF8B18"/>
<path d="M114.863 50.8047C110.995 46.8345 105.585 44.3582 99.6171 44.3582C96.6488 44.3582 93.8047 44.9774 91.2363 46.0833L92.2405 48.0513C94.5088 47.0957 97.003 46.5615 99.6171 46.5615C104.716 46.5615 109.34 48.5805 112.77 51.8438L114.863 50.8047Z" fill="#AF8B18"/>
<path d="M78.2632 65.7443C78.2632 68.7289 78.8765 71.5691 79.9882 74.1556L81.954 73.1599C80.9973 70.8806 80.4632 68.3742 80.4632 65.7443C80.4632 60.6332 82.4765 55.9927 85.7473 52.5482L84.6973 50.4734C80.7265 54.3627 78.2632 59.766 78.2632 65.7443Z" fill="#AF8B18"/>
<path d="M84.3862 80.7065C88.2687 84.66 93.6554 87.1272 99.6153 87.1272C102.585 87.1272 105.41 86.5187 107.966 85.4195L106.994 83.4407C104.726 84.393 102.229 84.9213 99.6153 84.9213C94.5262 84.9213 89.9037 82.9107 86.4687 79.6523L84.3862 80.7065Z" fill="#AF8B18"/>
<path d="M120.968 65.7441C120.968 62.7737 120.349 59.9402 119.256 57.3638L117.284 58.3461C118.235 60.6263 118.762 63.1218 118.762 65.7441C118.762 70.8495 116.753 75.4849 113.485 78.9235L114.522 81.0251C118.493 77.1375 120.968 71.7292 120.968 65.7441Z" fill="#AF8B18"/>
<path d="M102.749 67.5004L102.747 67.4937C102.157 68.5529 101.057 69.2781 99.7757 69.3382L99.7549 69.3482C99.7124 69.3482 99.6649 69.3624 99.6165 69.3624C99.5299 69.3624 99.4524 69.3382 99.3674 69.3307C99.1824 69.3224 98.994 69.299 98.8232 69.264C98.7574 69.2506 98.7057 69.2189 98.6424 69.203C98.429 69.1496 98.2257 69.0728 98.0307 68.9768C98.0307 68.9768 98.0107 68.9668 98.004 68.9618C96.8224 68.3692 96.004 67.1574 96.004 65.7452C96.004 65.6759 96.0249 65.6008 96.0265 65.5316L96.0249 65.5199C96.0266 65.494 96.0307 65.4639 96.0382 65.4364C96.0674 65.2261 96.0874 65.0216 96.1482 64.8171C96.1515 64.7762 96.1665 64.7387 96.184 64.6953C96.2474 64.5025 96.3107 64.3097 96.3999 64.1319C96.4082 64.1144 96.4082 64.1044 96.4207 64.0902C97.0032 62.9843 98.1165 62.2148 99.4415 62.1514L99.4524 62.1455C99.509 62.143 99.569 62.1263 99.6165 62.1263C99.719 62.1263 99.8324 62.1539 99.9324 62.1656C100.091 62.1814 100.247 62.1898 100.392 62.2231C100.473 62.2457 100.548 62.2724 100.623 62.2966C100.812 62.3483 100.999 62.4226 101.171 62.5052C101.184 62.5111 101.202 62.5136 101.223 62.5269L101.217 62.5286C101.919 62.8825 102.492 63.46 102.845 64.1736C102.851 64.182 102.859 64.1962 102.859 64.2095C102.945 64.3739 103.006 64.5592 103.062 64.7445C103.063 64.7862 103.089 64.8338 103.101 64.8806C103.147 65.0692 103.172 65.2695 103.193 65.4715C103.193 65.5032 103.2 65.5357 103.207 65.5658L103.2 65.5775C103.2 65.6325 103.214 65.6843 103.214 65.7452V65.7477L103.221 65.7594C103.221 65.807 103.207 65.8454 103.201 65.8888C103.194 66.1358 103.159 66.3787 103.102 66.6065C103.079 66.6616 103.062 66.7209 103.041 66.776C102.978 67.0138 102.884 67.2408 102.767 67.457C102.757 67.4662 102.757 67.4837 102.749 67.5004ZM129.334 48.5396L103.212 61.5287C102.882 61.2516 102.526 61.0096 102.136 60.8051L128.829 47.5306L129.642 45.1211L127.583 44.4408L127.082 45.9532L98.5007 60.2893C98.049 60.3761 97.6274 60.5389 97.2224 60.7359L84.7849 35.7717L85.2841 34.2585L83.2358 33.5667L82.4308 35.9737L95.4341 62.1046C95.1832 62.3959 94.9641 62.7089 94.7707 63.0452L81.4191 36.4811L79.0241 35.6791L78.3391 37.7272L79.8391 38.233L94.1432 66.6099C94.2249 67.1741 94.4024 67.6982 94.6474 68.1881L69.6758 80.5963L68.1741 80.0931L67.4941 82.1471L69.8883 82.9466L96.0057 69.9525C96.3382 70.2346 96.6957 70.4783 97.0932 70.6753L70.3916 83.9598L69.585 86.3652L71.645 87.0504L72.1375 85.5423L101.372 71.0016C101.563 70.939 101.756 70.8714 101.937 70.7855L114.446 95.7196L113.938 97.2319L115.996 97.9188L116.797 95.5176L103.724 69.4534C104.031 69.1146 104.286 68.7423 104.507 68.3317L117.808 95.0085L120.209 95.813L120.882 93.7607L118.896 92.2901L105.007 64.4332C104.9 64.0384 104.767 63.662 104.586 63.304L129.545 50.8866L131.055 51.3957L131.733 49.3367L129.334 48.5396Z" fill="#AF8B18"/>
<path d="M73.2533 106.402C74.2174 105.566 75.2849 103.492 76.4266 100.192C77.5841 96.883 79.1233 93.5988 81.4066 93.5454C80.4166 93.5663 78.2008 93.8409 77.0983 94.7873C75.5566 96.126 75.0566 97.8495 75.6274 99.9477C75.5924 99.7625 75.4783 99.5705 75.3083 99.3752C74.1941 98.0815 72.9733 98.1692 71.7758 98.7584C70.7966 99.2425 70.3175 100.371 70.4816 101.353C71.7208 100.171 73.2983 99.9828 74.0241 100.826C75.3041 102.313 74.3499 106.407 71.8358 106.966C69.3375 107.526 68.8733 105.786 68.7058 105.445C68.9483 105.641 69.2525 105.773 69.5866 105.773C70.3925 105.773 71.0449 105.126 71.0449 104.318C71.0449 103.518 70.3925 102.862 69.5866 102.862C69.5191 102.862 69.4525 102.891 69.3875 102.906H69.3841C69.0225 102.958 68.7058 103.132 68.4933 103.401C67.6266 104.193 67.5341 105.645 68.4191 106.676C69.7066 108.164 71.7041 107.731 73.2533 106.402Z" fill="#AF8B18"/>
<path d="M52.3683 115.82C52.4108 115.82 52.4575 115.807 52.4992 115.806C52.5333 115.807 52.5517 115.815 52.5892 115.82C52.56 115.82 52.5325 115.812 52.4992 115.806C54.7358 115.651 55.3717 113.004 54.0492 106.657C53.1858 102.47 56.3375 99.594 56.3375 99.594C56.3375 99.594 50.5125 101.46 53.51 108.037C55.2367 111.843 54.58 113.842 53.7175 114.857C53.7775 114.704 53.8158 114.54 53.8158 114.363C53.8158 113.562 53.1792 112.906 52.3692 112.906C51.575 112.906 50.915 113.562 50.915 114.363C50.915 114.887 51.21 115.321 51.6158 115.576C51.1333 115.422 50.5833 115.195 50.1442 114.91C49.2975 114.347 48.845 113.891 48.6142 113.298C47.8575 111.37 48.5825 109.843 50.3075 109.996C50.995 110.003 51.605 110.313 52.135 110.94C52.6708 109.369 51.4983 108.191 50.4567 108.275C49.8792 108.317 49.3058 108.514 48.7275 109.165C49.235 107.989 49.0042 105.551 48.3083 104.647C47.6025 103.75 46.885 103.235 46.145 103.109C46.7617 103.975 47.03 105.463 46.9567 107.569C46.885 109.679 47.0375 111.216 47.4175 112.177C48.065 113.814 49.335 115.28 51.8325 115.714C52.0067 115.775 52.18 115.82 52.3683 115.82Z" fill="#AF8B18"/>
<path d="M64.1027 103.574C65.2119 107.159 69.5869 107.556 69.5869 107.556C69.5869 107.556 67.5894 107.212 66.176 105.772C64.8385 104.414 63.9969 102.187 64.9344 100.002C65.1852 100.194 65.4735 100.327 65.8152 100.327C66.616 100.327 67.2694 99.6821 67.2694 98.875C67.2694 98.0654 66.6169 97.4194 65.8152 97.4194C65.5594 97.4194 65.3394 97.4954 65.1335 97.6114L65.1294 97.5964C65.1294 97.5964 62.6385 98.8274 64.1027 103.574Z" fill="#AF8B18"/>
<path d="M74.9985 91.8696C74.2461 93.6432 74.8294 95.2874 74.9486 95.688C74.9102 95.229 75.0344 93.1049 76.8552 92.1818C77.296 91.9606 77.8835 91.7353 78.4902 91.5116C79.6627 91.2837 81.2694 90.8773 82.7885 90.1387C84.8535 89.1421 85.3768 87.8101 85.511 87.2283C85.3777 87.5672 84.9135 88.169 83.3052 88.8884C83.2969 88.8934 83.286 88.9009 83.2785 88.9059C83.2269 88.9285 83.1485 88.9585 83.0935 88.9819C82.2177 89.2932 80.7094 89.5285 79.4352 88.1481C78.8977 87.4554 78.7669 86.8019 78.8194 86.2443C79.0235 86.7994 79.5444 87.2075 80.1785 87.2075C80.976 87.2075 81.6269 86.5565 81.6269 85.7486C81.6269 84.9465 80.976 84.2947 80.1785 84.2947C80.0477 84.2947 79.9344 84.3364 79.8102 84.3723C79.8535 84.3289 79.8785 84.3105 79.8785 84.3105C79.8344 84.3289 79.7952 84.3606 79.7494 84.3848C79.5094 84.4599 79.2902 84.5835 79.1219 84.7612C76.606 86.5223 77.6344 89.1688 79.896 89.708C77.5619 89.9008 75.8752 89.7956 74.9985 91.8696Z" fill="#AF8B18"/>
<path d="M49.6261 18.5584C49.7769 20.796 52.4211 21.4303 58.7652 20.1091C62.9402 19.2436 65.8052 22.3976 65.8052 22.3976C65.8052 22.3976 63.946 16.5703 57.3919 19.5658C53.5852 21.2942 51.5911 20.6407 50.5802 19.7819C50.7261 19.842 50.8927 19.8821 51.0652 19.8821C51.8761 19.8821 52.5186 19.2378 52.5186 18.4298C52.5186 17.6244 51.8761 16.9709 51.0652 16.9709C50.5444 16.9709 50.1044 17.2622 49.8519 17.6779C50.0094 17.1938 50.2402 16.6354 50.5211 16.1998C51.0819 15.3501 51.5352 14.9019 52.1352 14.6691C54.0486 13.9079 55.5744 14.6315 55.4269 16.3567C55.421 17.0511 55.1094 17.6628 54.4877 18.1836C56.0519 18.7253 57.2269 17.556 57.161 16.5136C57.1077 15.9385 56.9027 15.3585 56.2602 14.7834C57.431 15.2909 59.871 15.0572 60.7627 14.3553C61.6694 13.6542 62.1769 12.9322 62.3052 12.1936C61.4427 12.8087 59.951 13.085 57.8585 13.0099C55.7452 12.9406 54.2127 13.0925 53.2577 13.4722C51.6102 14.1141 50.1477 15.386 49.7261 17.8974C49.6594 18.0626 49.6169 18.2412 49.6169 18.4298C49.6152 18.4783 49.6261 18.5183 49.6261 18.5584C49.6261 18.5884 49.6152 18.616 49.6152 18.6435C49.6152 18.626 49.6219 18.5901 49.6261 18.5584Z" fill="#AF8B18"/>
<path d="M146.856 15.668C146.812 15.6705 146.772 15.6788 146.733 15.6788C146.699 15.6788 146.672 15.6705 146.64 15.668C146.66 15.6705 146.699 15.6788 146.733 15.6788C144.493 15.8357 143.855 18.4815 145.175 24.8329C146.042 29.0176 142.896 31.8979 142.896 31.8979C142.896 31.8979 148.71 30.0309 145.725 23.4533C143.994 19.6516 144.649 17.6477 145.5 16.6286C145.447 16.7838 145.404 16.9541 145.404 17.126C145.404 17.9256 146.046 18.5799 146.857 18.5799C147.664 18.5799 148.312 17.9256 148.312 17.126C148.312 16.6027 148.023 16.1696 147.605 15.91C148.087 16.0627 148.645 16.2906 149.089 16.5785C149.933 17.1419 150.37 17.5951 150.619 18.1943C151.364 20.1106 150.65 21.6446 148.925 21.4919C148.232 21.4844 147.618 21.1731 147.097 20.5413C146.559 22.1162 147.735 23.2938 148.777 23.2137C149.344 23.1728 149.923 22.9692 150.49 22.3257C149.988 23.4983 150.221 25.9346 150.918 26.8385C151.629 27.7432 152.336 28.2556 153.082 28.3791C152.475 27.5111 152.2 26.0264 152.265 23.9165C152.335 21.8074 152.186 20.2742 151.805 19.3136C151.162 17.6735 149.896 16.2063 147.386 15.7765C147.22 15.7122 147.035 15.668 146.856 15.668Z" fill="#AF8B18"/>
<path d="M149.596 112.929C149.447 110.692 146.799 110.052 140.462 111.376C136.282 112.244 133.419 109.089 133.419 109.089C133.419 109.089 135.275 114.916 141.837 111.926C145.635 110.191 147.639 110.848 148.645 111.7C148.494 111.648 148.337 111.604 148.159 111.604C147.362 111.604 146.704 112.258 146.704 113.058C146.704 113.863 147.362 114.514 148.159 114.514C148.685 114.514 149.111 114.226 149.374 113.807C149.214 114.29 148.991 114.851 148.698 115.286C148.141 116.138 147.699 116.584 147.09 116.821C145.174 117.578 143.648 116.858 143.806 115.133C143.806 114.436 144.113 113.827 144.74 113.304C143.168 112.761 141.994 113.933 142.074 114.979C142.125 115.553 142.317 116.128 142.969 116.705C141.788 116.198 139.356 116.431 138.458 117.133C137.554 117.837 137.043 118.555 136.927 119.296C137.789 118.678 139.271 118.41 141.377 118.479C143.487 118.548 145.019 118.397 145.97 118.011C147.609 117.372 149.077 116.099 149.504 113.59C149.573 113.428 149.608 113.249 149.608 113.059C149.608 113.011 149.603 112.974 149.596 112.932C149.603 112.9 149.608 112.873 149.608 112.841C149.607 112.864 149.602 112.899 149.596 112.929Z" fill="#AF8B18"/>
<path d="M59.0162 39.3432C59.8578 40.3097 61.9245 41.3738 65.2203 42.5256C68.5245 43.6798 71.802 45.2247 71.8503 47.5032C71.8278 46.5175 71.5561 44.2974 70.617 43.1983C69.2745 41.6459 67.5595 41.1576 65.4628 41.7285C65.652 41.6793 65.8386 41.5716 66.0353 41.4005C67.3236 40.2913 67.2303 39.0644 66.652 37.8751C66.1628 36.8877 65.0361 36.3987 64.0578 36.5689C65.2378 37.8066 65.4236 39.3949 64.582 40.1144C63.092 41.3997 59.0128 40.4449 58.4487 37.9218C57.8953 35.4347 59.6312 34.9523 59.9762 34.787C59.7803 35.0382 59.6487 35.3354 59.6487 35.6784C59.6487 36.4796 60.2987 37.1289 61.0953 37.1289C61.9012 37.1289 62.552 36.4796 62.552 35.6784C62.552 35.5999 62.517 35.5348 62.5103 35.4697C62.4528 35.105 62.2828 34.7945 62.0195 34.5734C61.2187 33.7087 59.7695 33.6144 58.737 34.5074C57.257 35.7869 57.6962 37.7941 59.0162 39.3432Z" fill="#AF8B18"/>
<path d="M61.8356 30.184C58.2656 31.2866 57.8647 35.68 57.8647 35.68C57.8647 35.68 58.2123 33.6752 59.6489 32.2539C61.0014 30.916 63.2339 30.073 65.4089 31.0111C65.2147 31.2599 65.0806 31.5595 65.0806 31.8975C65.0806 32.7004 65.7372 33.3514 66.5314 33.3514C67.3364 33.3514 67.988 32.7004 67.988 31.8975C67.988 31.6454 67.9122 31.4209 67.7947 31.2139L67.8055 31.2089C67.8047 31.2073 66.5839 28.7185 61.8356 30.184Z" fill="#AF8B18"/>
<path d="M73.2135 42.9465C73.431 43.3905 73.6585 43.9755 73.8851 44.5873C74.101 45.7616 74.516 47.3699 75.2551 48.8923C76.251 50.9613 77.5835 51.4929 78.151 51.6306C77.8168 51.4929 77.2201 51.0197 76.4968 49.4081C76.4935 49.3997 76.4935 49.3997 76.486 49.3905C76.461 49.3329 76.436 49.2528 76.4118 49.1994C76.0968 48.3239 75.8576 46.8049 77.2426 45.5388C77.9618 44.9913 78.6235 44.8619 79.1843 44.9295C78.5985 45.1165 78.1693 45.6498 78.1693 46.2958C78.1693 47.1045 78.8118 47.7522 79.6243 47.7522C80.431 47.7522 81.0743 47.1045 81.0743 46.2958C81.0743 46.1497 81.0385 46.0212 81.0001 45.8927C81.0485 45.9444 81.0743 45.982 81.0743 45.982C81.0443 45.9177 81.0051 45.8684 80.9793 45.8033C80.9393 45.6898 80.8785 45.5914 80.801 45.492C79.0543 42.6318 76.236 43.6576 75.6868 45.9961C75.4918 43.6617 75.5968 41.9666 73.521 41.0886C71.7527 40.3391 70.1202 40.9192 69.7085 41.0385C70.1627 40.9968 72.2877 41.1203 73.2135 42.9465Z" fill="#AF8B18"/>
<path d="M125.972 25.0918C125.004 25.9255 123.953 27.9996 122.795 31.3021C121.646 34.603 120.104 37.8922 117.817 37.9482C118.81 37.9206 121.029 37.6477 122.125 36.6979C123.67 35.3609 124.161 33.6407 123.601 31.54C123.637 31.7303 123.753 31.9164 123.914 32.1134C125.024 33.4079 126.25 33.3169 127.448 32.7302C128.431 32.2494 128.914 31.1193 128.738 30.1378C127.508 31.3247 125.915 31.5058 125.199 30.6628C123.922 29.1755 124.867 25.0868 127.392 24.52C129.875 23.965 130.353 25.7002 130.524 26.0466C130.274 25.8504 129.978 25.7144 129.63 25.7144C128.83 25.7144 128.182 26.3637 128.182 27.1691C128.182 27.9762 128.83 28.6272 129.63 28.6272C129.714 28.6272 129.768 28.5946 129.845 28.5838C130.207 28.5304 130.524 28.3584 130.735 28.0889C131.59 27.296 131.694 25.8454 130.805 24.8105C129.522 23.3257 127.531 23.7639 125.972 25.0918Z" fill="#AF8B18"/>
<path d="M135.12 27.913C134.018 24.3325 129.63 23.9336 129.63 23.9336C129.63 23.9336 131.64 24.2775 133.051 25.713C134.39 27.0734 135.225 29.3027 134.297 31.4877C134.042 31.2907 133.747 31.1605 133.418 31.1605C132.602 31.1605 131.957 31.8065 131.957 32.6153C131.957 33.4165 132.602 34.0708 133.418 34.0708C133.661 34.0708 133.889 33.9882 134.092 33.8789V33.888C134.092 33.888 136.578 32.6687 135.12 27.913Z" fill="#AF8B18"/>
<path d="M124.23 39.6139C124.975 37.8403 124.4 36.2019 124.273 35.7988C124.322 36.2562 124.205 38.382 122.374 39.3059C121.932 39.5321 121.339 39.7557 120.738 39.9777C119.571 40.2039 117.963 40.6129 116.445 41.3448C114.374 42.3472 113.839 43.6843 113.708 44.2551C113.839 43.9088 114.374 43.2628 116.152 42.4991C117.022 42.1903 118.524 41.9683 119.79 43.3421C120.405 44.1516 120.486 44.8995 120.355 45.5187C120.248 44.8235 119.677 44.281 118.946 44.281C118.145 44.281 117.495 44.9303 117.495 45.7374C117.495 46.5428 118.145 47.1913 118.946 47.1913C119.12 47.1913 119.282 47.1471 119.435 47.0945C119.384 47.1471 119.34 47.178 119.34 47.178C122.805 45.4628 121.792 42.3656 119.326 41.7763C121.66 41.586 123.356 41.687 124.23 39.6139Z" fill="#AF8B18"/>
<path d="M140.209 92.1458C139.373 91.1751 137.302 90.1152 133.998 88.9642C130.702 87.8091 127.425 86.2643 127.373 83.9824C127.393 84.9706 127.666 87.194 128.61 88.2865C129.948 89.8381 131.663 90.3313 133.767 89.763C133.577 89.8055 133.384 89.914 133.201 90.086C131.898 91.1993 131.983 92.4204 132.57 93.6172C133.057 94.6004 134.189 95.0878 135.165 94.9175C133.982 93.6865 133.805 92.0957 134.638 91.3729C136.123 90.0885 140.208 91.0499 140.768 93.5638C141.328 96.0501 139.586 96.535 139.249 96.7003C139.444 96.4532 139.579 96.1494 139.579 95.8139C139.579 95.0094 138.93 94.3584 138.133 94.3584C137.33 94.3584 136.67 95.0094 136.67 95.8139C136.67 95.8832 136.705 95.9508 136.712 96.0159V96.0259C136.774 96.3848 136.939 96.6961 137.206 96.9139C137.998 97.7828 139.461 97.8754 140.474 96.979C141.968 95.6979 141.533 93.694 140.209 92.1458Z" fill="#AF8B18"/>
<path d="M137.387 101.307C140.967 100.202 141.361 95.814 141.361 95.814C141.361 95.814 141.022 97.8154 139.58 99.2359C138.22 100.574 135.996 101.418 133.807 100.476C134.012 100.232 134.137 99.9336 134.137 99.5914C134.137 98.7885 133.492 98.1359 132.694 98.1359C131.889 98.1359 131.235 98.7885 131.235 99.5914C131.235 99.8435 131.319 100.069 131.426 100.277L131.412 100.281C131.412 100.281 132.638 102.769 137.387 101.307Z" fill="#AF8B18"/>
<path d="M126.014 88.5408C125.787 88.101 125.562 87.5117 125.337 86.9058C125.121 85.7315 124.713 84.1182 123.973 82.595C122.973 80.5277 121.646 79.9952 121.064 79.8591C121.4 79.9952 122.001 80.4692 122.725 82.0742C122.729 82.0817 122.741 82.0892 122.741 82.0984C122.759 82.1643 122.795 82.2353 122.821 82.297C123.134 83.1684 123.363 84.6824 121.991 85.9443C121.224 86.5302 120.521 86.6412 119.928 86.5427C120.569 86.3892 121.049 85.8442 121.049 85.1564C121.049 84.3535 120.39 83.7009 119.585 83.7009C118.796 83.7009 118.132 84.3535 118.132 85.1564C118.132 85.315 118.176 85.4502 118.227 85.5913C118.172 85.5429 118.156 85.5036 118.156 85.5036C118.172 85.5679 118.214 85.6138 118.244 85.6664C118.27 85.7565 118.319 85.8275 118.371 85.9017C120.12 88.8746 122.98 87.8531 123.536 85.4936C123.734 87.8297 123.633 89.5215 125.706 90.4028C127.473 91.1506 129.118 90.5689 129.511 90.4496C129.066 90.4921 126.933 90.3661 126.014 88.5408Z" fill="#AF8B18"/>
<path d="M95.8085 80.1137C94.6468 78.5046 93.9635 78.2183 93.1526 77.9404C91.1651 77.2827 88.501 78.5788 88.501 78.5788C88.501 78.5788 90.6768 77.5331 93.3693 80.0828C95.7868 82.3638 97.8843 82.7269 100.018 82.3454C103.015 81.7604 103.308 79.9426 103.173 78.8059C103.173 78.7783 103.193 78.7541 103.193 78.7332C103.193 78.4987 103.123 78.28 103.019 78.0872C102.98 77.9495 102.943 77.8594 102.943 77.8594C102.943 77.8594 102.956 77.9295 102.98 78.0246C102.735 77.5848 102.281 77.2718 101.738 77.2718C100.94 77.2718 100.28 77.9228 100.28 78.7341C100.28 79.5336 100.94 80.1813 101.738 80.1813C102.313 80.1813 102.808 79.8333 103.04 79.3425C102.981 79.8391 102.809 80.3766 102.389 80.8131C101.747 81.4966 100.039 81.924 98.6759 81.5993C96.0318 80.965 97.4751 74.9182 97.4751 74.9182C96.361 75.9798 95.4885 77.0907 95.8601 78.9986C96.2226 80.8949 97.9193 81.5142 97.9193 81.5142C97.9193 81.5142 96.6376 81.2671 95.8085 80.1137Z" fill="#AF8B18"/>
<path d="M82.8965 65.9591C83.4907 68.9604 85.299 69.25 86.4381 69.114C86.4631 69.114 86.4815 69.1282 86.5173 69.1282C86.744 69.1282 86.954 69.0631 87.1481 68.9654C87.284 68.9245 87.3706 68.8869 87.3706 68.8869C87.3706 68.8869 87.304 68.9061 87.2081 68.9245C87.6556 68.6783 87.9656 68.2201 87.9656 67.6751C87.9656 66.8689 87.319 66.2212 86.5173 66.2212C85.7181 66.2212 85.0615 66.8689 85.0615 67.6751C85.0615 68.2551 85.4048 68.7526 85.8973 68.9788C85.4048 68.9203 84.8673 68.7484 84.4282 68.3344C83.7448 67.6884 83.3215 65.9725 83.6373 64.6104C84.2807 61.9605 90.3215 63.4035 90.3215 63.4035C89.254 62.2927 88.1456 61.4222 86.2506 61.7886C84.3515 62.1516 83.7273 63.8467 83.7273 63.8467C83.7273 63.8467 83.9723 62.5614 85.1315 61.7401C86.744 60.575 87.024 59.8906 87.2973 59.0761C87.9656 57.0913 86.6548 54.4172 86.6548 54.4172C86.6548 54.4172 87.7056 56.5964 85.154 59.2989C82.8715 61.7134 82.519 63.8133 82.8965 65.9591Z" fill="#AF8B18"/>
<path d="M103.473 51.0463C104.638 52.6521 105.319 52.9359 106.14 53.208C108.115 53.8715 110.78 52.5687 110.78 52.5687C110.78 52.5687 108.609 53.6211 105.916 51.0697C103.498 48.7812 101.404 48.4273 99.2529 48.8113C96.2671 49.3946 95.9771 51.2133 96.1088 52.3458C96.1088 52.3734 96.0921 52.4001 96.0921 52.4176C96.0921 52.658 96.1654 52.8717 96.2579 53.0636C96.2971 53.2038 96.3354 53.2948 96.3354 53.2948C96.3354 53.2948 96.3154 53.2197 96.2971 53.1237C96.5479 53.5719 97.0037 53.8799 97.5496 53.8799C98.3546 53.8799 99.0012 53.2297 99.0012 52.4168C99.0012 51.6181 98.3546 50.9679 97.5496 50.9679C96.9671 50.9679 96.4729 51.3193 96.2463 51.8084C96.2971 51.3101 96.4729 50.7776 96.8896 50.3411C97.5337 49.6576 99.2379 49.2261 100.605 49.5524C103.254 50.1834 101.809 56.241 101.809 56.241C102.915 55.1727 103.789 54.0651 103.423 52.1581C103.061 50.2568 101.372 49.6367 101.372 49.6367C101.372 49.6367 102.648 49.8821 103.473 51.0463Z" fill="#AF8B18"/>
<path d="M116.378 65.1967C115.796 62.1988 113.987 61.91 112.853 62.0377C112.823 62.0377 112.806 62.0219 112.769 62.0219C112.536 62.0219 112.331 62.0936 112.13 62.1838C111.994 62.2322 111.903 62.2631 111.903 62.2631C111.903 62.2631 111.983 62.248 112.073 62.2305C111.636 62.4817 111.313 62.9308 111.313 63.4824C111.313 64.2845 111.971 64.9363 112.769 64.9363C113.579 64.9363 114.23 64.2845 114.23 63.4824C114.23 62.8949 113.88 62.4008 113.386 62.1696C113.88 62.2322 114.414 62.405 114.849 62.8223C115.533 63.4683 115.959 65.1809 115.64 66.5413C115.012 69.1904 108.967 67.7482 108.967 67.7482C110.026 68.8607 111.136 69.7312 113.043 69.3631C114.933 69.0026 115.553 67.3041 115.553 67.3041C115.553 67.3041 115.311 68.5911 114.153 69.4115C112.542 70.5767 112.264 71.2619 111.989 72.0781C111.317 74.067 112.628 76.7378 112.628 76.7378C112.628 76.7378 111.577 74.5561 114.128 71.8536C116.414 69.4416 116.762 67.3434 116.378 65.1967Z" fill="#AF8B18"/>
<path d="M101.684 65.7443C101.684 64.5992 100.759 63.6753 99.6118 63.6753C98.4701 63.6753 97.5435 64.5984 97.5435 65.7443C97.5435 66.8861 98.4701 67.8183 99.6118 67.8183C100.758 67.8192 101.684 66.8861 101.684 65.7443Z" fill="#AF8B18"/>
<path d="M110.508 34.9436L118.521 32.2528L117.688 29.7557L115.14 30.622L115.318 31.1795L112.38 32.1694L110.322 26.1284L107.807 26.9614L110.508 34.9436Z" fill="#AF8B18"/>
<path d="M114.725 30.9381L113.699 27.8309L116.722 26.7901L115.882 24.1995L110.758 25.9163L112.662 31.6292L114.725 30.9381Z" fill="#AF8B18"/>
<path d="M75.8756 37.3791L69.7881 35.3084L68.9414 37.8365L76.9555 40.5448L79.6414 32.5108L77.143 31.677L76.2989 34.2393L76.8555 34.4279L75.8756 37.3791Z" fill="#AF8B18"/>
<path d="M74.1926 30.6687L71.6293 29.7832L69.9126 34.9169L75.6159 36.8232L76.3001 34.7542L73.2009 33.7134L74.1926 30.6687Z" fill="#AF8B18"/>
<path d="M81.1823 29.6611L80.3506 32.1591L88.3647 34.8441L91.0631 26.8167L88.5381 25.9646L86.4839 32.0748L83.5447 31.0774L83.7306 30.5216L81.1823 29.6611Z" fill="#AF8B18"/>
<path d="M82.9881 24.1047L82.1548 26.6945L85.1706 27.732L84.1339 30.8417L86.2064 31.5286L88.1114 25.8199L82.9881 24.1047Z" fill="#AF8B18"/>
<path d="M130.366 76.6518L133.049 84.685L135.556 83.847L134.689 81.2998L134.125 81.4859L133.139 78.5397L139.17 76.4732L138.339 73.9543L130.366 76.6518Z" fill="#AF8B18"/>
<path d="M134.363 80.889L137.473 79.8549L138.505 82.8779L141.1 82.0432L139.373 76.9087L133.671 78.8183L134.363 80.889Z" fill="#AF8B18"/>
<path d="M127.937 41.9698L129.995 35.8771L127.474 35.0266L124.775 43.0531L132.785 45.7397L133.628 43.2409L131.075 42.3921L130.885 42.9504L127.937 41.9698Z" fill="#AF8B18"/>
<path d="M134.636 40.2891L135.515 37.711L130.401 35.9976L128.484 41.7122L130.557 42.3982L131.591 39.2968L134.636 40.2891Z" fill="#AF8B18"/>
<path d="M135.64 47.2858L133.143 46.4487L130.471 54.4844L138.479 57.181L139.332 54.6563L133.234 52.5982L134.224 49.6478L134.773 49.8381L135.64 47.2858Z" fill="#AF8B18"/>
<path d="M141.191 49.0939L138.595 48.2576L137.567 51.2789L134.461 50.2498L133.772 52.3163L139.483 54.2276L141.191 49.0939Z" fill="#AF8B18"/>
<path d="M88.7194 96.5486L80.6978 99.2344L81.5378 101.732L84.0752 100.874L83.8927 100.312L86.8411 99.3153L88.9019 105.361L91.4061 104.529L88.7194 96.5486Z" fill="#AF8B18"/>
<path d="M84.4931 100.545L85.5214 103.659L82.5039 104.698L83.3389 107.291L88.4631 105.572L86.5614 99.8618L84.4931 100.545Z" fill="#AF8B18"/>
<path d="M123.345 94.113L129.434 96.182L130.29 93.6489L122.265 90.9431L119.583 98.9796L122.077 99.8134L122.923 97.2553L122.372 97.0683L123.345 94.113Z" fill="#AF8B18"/>
<path d="M125.031 100.817L127.601 101.706L129.322 96.5754L123.605 94.6599L122.919 96.7339L126.017 97.7772L125.031 100.817Z" fill="#AF8B18"/>
<path d="M118.047 101.831L118.875 99.3275L110.856 96.645L108.165 104.674L110.68 105.529L112.731 99.4134L115.682 100.41L115.494 100.964L118.047 101.831Z" fill="#AF8B18"/>
<path d="M116.24 107.383L117.078 104.794L114.058 103.758L115.084 100.651L113.012 99.9595L111.113 105.669L116.24 107.383Z" fill="#AF8B18"/>
<path d="M68.862 54.8345L66.1754 46.8005L63.672 47.6368L64.5312 50.1899L65.0954 50.0055L66.0862 52.9567L60.0537 55.0148L60.8904 57.5312L68.862 54.8345Z" fill="#AF8B18"/>
<path d="M64.8661 50.6019L61.7578 51.636L60.7245 48.613L58.1387 49.4468L59.8378 54.5797L65.5428 52.6693L64.8661 50.6019Z" fill="#AF8B18"/>
<path d="M71.2893 89.5161L69.2202 95.6147L71.7468 96.466L74.4518 88.437L66.436 85.7495L65.5894 88.2467L68.1485 89.0972L68.3402 88.5405L71.2893 89.5161Z" fill="#AF8B18"/>
<path d="M64.5926 91.2006L63.7051 93.7762L68.8267 95.493L70.7317 89.7784L68.6742 89.0857L67.6334 92.1963L64.5926 91.2006Z" fill="#AF8B18"/>
<path d="M63.5862 84.206L66.0795 85.0365L68.7528 77.0058L60.7387 74.3125L59.8887 76.8314L65.9978 78.8879L64.9928 81.8407L64.447 81.6504L63.5862 84.206Z" fill="#AF8B18"/>
<path d="M58.0366 82.3943L60.6174 83.2348L61.6524 80.2076L64.7708 81.2417L65.4533 79.1719L59.7474 77.2598L58.0366 82.3943Z" fill="#AF8B18"/>
</svg>
