<svg width="88" height="78" viewBox="0 0 88 78" fill="none" xmlns="http://www.w3.org/2000/svg">
<path d="M49.375 69.9434H0V70.3679H49.375V69.9434Z" fill="#AF8B18"/>
<path d="M87.6202 69.9434H53.3242V70.3679H87.6202V69.9434Z" fill="#AF8B18"/>
<path d="M2.84498 66.1458V64.3403L2.76759 63.6839C2.55219 63.6236 2.36234 63.587 2.19842 63.587C1.77529 63.587 1.44781 63.752 1.23241 64.081C1.04293 64.3659 0.946912 64.7549 0.946912 65.2299C0.946912 66.087 1.29265 66.672 1.85342 66.672C2.23274 66.6724 2.56095 66.5005 2.84498 66.1458ZM3.44956 63.4419L3.36267 64.2884V65.6705C3.33712 65.7487 3.26008 65.9308 3.12062 66.1978C2.75079 66.8113 2.28494 67.1141 1.73221 67.1141C1.34376 67.1141 1.03344 66.9674 0.782989 66.6647C0.515748 66.3272 0.385778 65.9045 0.404032 65.3853C0.446382 64.0715 1.18823 63.2773 2.38717 63.2773C2.77671 63.2781 3.13084 63.3293 3.44956 63.4419Z" fill="black"/>
<path d="M6.69347 66.6389V63.6655H6.07246C5.26964 63.6655 4.82095 64.2966 4.82095 65.2988C4.82095 66.1895 5.14916 66.6389 5.79573 66.6389H6.69347ZM8.97889 67.0535H7.22795C7.1323 68.0646 6.59782 68.7026 5.60661 68.971L5.46788 68.7469C5.89941 68.5827 6.21776 68.3147 6.43426 67.9435C6.59782 67.666 6.68471 67.3728 6.6931 67.0535H5.66576C5.26015 67.0535 4.92427 66.9234 4.67456 66.6649C4.40622 66.3705 4.27734 65.9727 4.27734 65.4718C4.27734 64.841 4.45003 64.3401 4.787 63.9594C5.13164 63.5799 5.58033 63.3887 6.13234 63.3887H7.22795V66.6389H8.97889V67.0535Z" fill="black"/>
<path d="M14.0471 67.0538H8.75781V66.6391H13.5295V65.0047C13.5295 64.2701 12.8909 63.8211 11.8986 63.8211H9.25031C10.1221 62.9318 10.8114 62.1541 11.3375 61.4707H12.0282L11.1655 62.2667L10.1648 63.3889H12.0888C12.6671 63.3889 13.133 63.5278 13.4951 63.7951C13.8661 64.0631 14.0475 64.4174 14.0475 64.8493V67.0538H14.0471Z" fill="black"/>
<path d="M15.928 66.7256C15.928 67.9092 15.3833 68.6518 14.306 68.9553L14.168 68.7216C14.6079 68.5571 14.9357 68.2887 15.1603 67.919C15.3246 67.6327 15.4016 67.3395 15.4016 67.0192V64.6425L15.2636 63.5547L15.9284 63.3887L15.928 66.7256Z" fill="black"/>
<path d="M18.8709 67.0537H18.1284C17.3956 67.0537 17.0244 66.6558 17.0244 65.8609V62.6637L16.8867 61.6351L17.542 61.4805V65.7044C17.542 66.3275 17.8093 66.6394 18.3357 66.6394H18.8709V67.0537Z" fill="black"/>
<path d="M19.8101 66.6289H18.6367V67.0531H19.8101V66.6289Z" fill="black"/>
<path d="M20.7093 66.6289H19.5352V67.0531H20.7093V66.6289Z" fill="black"/>
<path d="M21.6073 66.6289H20.4336V67.0531H21.6073V66.6289Z" fill="black"/>
<path d="M22.5015 66.6289H21.3281V67.0531H22.5015V66.6289Z" fill="black"/>
<path d="M23.4003 66.6289H22.2266V67.0531H23.4003V66.6289Z" fill="black"/>
<path d="M24.2984 66.6289H23.125V67.0531H24.2984V66.6289Z" fill="black"/>
<path d="M25.1972 66.6289H24.0234V67.0531H25.1972V66.6289Z" fill="black"/>
<path d="M26.0921 66.6289H24.918V67.0531H26.0921V66.6289Z" fill="black"/>
<path d="M26.9887 66.6289H25.8164V67.0531H26.9887V66.6289Z" fill="black"/>
<path d="M27.8886 66.6289H26.7148V67.0531H27.8886V66.6289Z" fill="black"/>
<path d="M28.7867 66.6289H27.6133V67.0531H28.7867V66.6289Z" fill="black"/>
<path d="M29.6816 66.6289H28.5078V67.0531H29.6816V66.6289Z" fill="black"/>
<path d="M30.5796 66.6289H29.4062V67.0531H30.5796V66.6289Z" fill="black"/>
<path d="M31.4777 66.6289H30.3047V67.0531H31.4777V66.6289Z" fill="black"/>
<path d="M36.1425 61.8576C36.1425 62.1 36.0132 62.2217 35.7628 62.2217C35.513 62.2217 35.3922 62.1 35.3922 61.8491C35.3922 61.5983 35.513 61.4689 35.7628 61.4689C35.9701 61.4689 36.1425 61.6415 36.1425 61.8576ZM35.5737 60.8301C35.5737 61.0809 35.4521 61.21 35.2024 61.21C34.9516 61.21 34.823 61.0806 34.823 60.8301C34.823 60.5697 34.9519 60.4414 35.2024 60.4414C35.401 60.4414 35.5737 60.6224 35.5737 60.8301ZM35.0129 61.8576C35.0129 62.1 34.8829 62.2217 34.6325 62.2217C34.3827 62.2217 34.2531 62.1 34.2531 61.8491C34.2531 61.5983 34.3824 61.4689 34.6325 61.4689C34.8398 61.4689 35.0129 61.6415 35.0129 61.8576ZM38.8174 67.0519H38.2826C37.9029 67.0519 37.6189 66.9302 37.4199 66.6877C37.2216 66.9302 36.9453 67.0519 36.5919 67.0519C36.0994 67.0519 35.7022 66.8175 35.4013 66.3426C35.237 66.8179 34.892 67.0519 34.3831 67.0519C33.9344 67.0519 33.5463 66.8351 33.2273 66.404C33.1754 66.5334 33.1057 66.645 33.0111 66.7408C32.8129 66.9481 32.5453 67.0523 32.209 67.0523H31.1992V66.6376H31.9929C32.5281 66.6376 32.795 66.3258 32.795 65.7027L32.8041 63.8887L33.3131 63.7593V65.929C33.3131 66.0058 33.3043 66.0749 33.2963 66.144C33.5975 66.4556 33.891 66.611 34.1586 66.611C34.6839 66.611 34.9516 66.3082 34.9516 65.6946V63.8887L35.4605 63.7593V66.0921C35.7628 66.4384 36.0738 66.611 36.3845 66.611C36.9018 66.611 37.161 66.3082 37.161 65.6946V64.6398L37.0146 63.552L37.6787 63.3871V65.7286C37.6787 66.3327 37.9456 66.6369 38.4812 66.6369H38.8174V67.0519Z" fill="black"/>
<path d="M42.0292 64.2866L41.9426 63.6295C41.7272 63.5695 41.5374 63.5348 41.3735 63.5348C40.9503 63.5348 40.6225 63.699 40.4074 64.0277C40.2172 64.3129 40.1223 64.6921 40.1223 65.1849C40.1223 66.0398 40.4673 66.6377 41.0193 66.6377C41.7437 66.6377 42.1069 66.1616 42.1069 65.2193C42.1065 64.9868 42.0799 64.6756 42.0292 64.2866ZM42.6242 63.3863L42.5552 64.2346V65.5659C42.5552 66.5587 41.9773 67.0519 40.8211 67.0519H38.6211V66.6373H39.9588C39.7079 66.3163 39.5787 65.8928 39.5787 65.3572C39.5787 64.7096 39.7605 64.1915 40.1139 63.8032C40.4761 63.4138 40.9595 63.2148 41.564 63.2148C41.9507 63.2152 42.3044 63.2763 42.6242 63.3863Z" fill="black"/>
<path d="M45.8689 66.5335V63.6642H45.2486C44.4462 63.6642 43.9971 64.2953 43.9971 65.2976C43.9971 66.2314 44.3249 66.6976 44.9719 66.6976C45.2391 66.6976 45.5418 66.645 45.8689 66.5335ZM46.4041 66.7232C46.4041 67.9068 45.8601 68.6495 44.7828 68.953L44.6437 68.7193C45.4636 68.4169 45.8685 67.8385 45.8685 66.9657C45.4374 67.0768 45.0664 67.1386 44.7645 67.1386C43.9708 67.1386 43.4531 66.5068 43.4531 65.4705C43.4531 64.8398 43.6258 64.3389 43.9621 63.9582C44.3078 63.5787 44.7568 63.3867 45.3085 63.3867H46.4041V66.7232Z" fill="black"/>
<path d="M52.2874 70.162C52.2874 70.4048 52.1571 70.5251 51.907 70.5251C51.6478 70.5251 51.5193 70.4048 51.5193 70.1536C51.5193 69.9024 51.6478 69.773 51.907 69.773C52.114 69.773 52.2874 69.947 52.2874 70.162ZM51.1568 70.162C51.1568 70.4048 51.0275 70.5251 50.7687 70.5251C50.5186 70.5251 50.389 70.4048 50.389 70.1536C50.389 69.9024 50.5186 69.773 50.7687 69.773C50.9665 69.773 51.1568 69.947 51.1568 70.162ZM53.8492 66.6379L53.8314 67.0606C53.7364 68.0632 53.2012 68.7024 52.2177 68.9781L50.9063 69.0139C49.3879 69.0139 48.6289 68.1071 48.6289 66.2913V64.798H49.1378V66.2569C49.1378 67.0178 49.301 67.6223 49.6212 68.0811C49.9403 68.5375 50.4149 68.7718 51.0279 68.7718L52.08 68.7459C52.5108 68.5817 52.831 68.3228 53.0453 67.951C53.21 67.665 53.2972 67.3718 53.3053 67.0515L52.2783 67.0606C51.8734 67.0606 51.5467 66.9308 51.2955 66.6635C51.0198 66.3776 50.8811 65.9798 50.8811 65.4704C50.8811 64.8397 51.0531 64.3388 51.3904 63.9665C51.7354 63.587 52.1929 63.3965 52.7533 63.3965H53.3662L53.3056 63.6641H52.6755C51.8825 63.6641 51.4419 64.3033 51.4419 65.315C51.4419 66.1962 51.7613 66.6376 52.409 66.6376L53.8492 66.6379Z" fill="black"/>
<path d="M55.7292 66.7236C55.7292 67.9072 55.1856 68.6498 54.1079 68.9533L53.9688 68.7197C54.4098 68.5551 54.7369 68.2867 54.9621 67.9171C55.1257 67.6308 55.2042 67.3375 55.2042 67.0172V64.6405L55.0651 63.5527L55.7292 63.3867V66.7236Z" fill="black"/>
<path d="M58.6717 67.0517H57.9295C57.1972 67.0517 56.8255 66.6539 56.8255 65.859V62.6618L56.6875 61.6332L57.3439 61.4785V65.7025C57.3439 66.3255 57.6112 66.6374 58.1376 66.6374H58.6721L58.6717 67.0517Z" fill="black"/>
<path d="M59.6144 66.6289H58.4414V67.0531H59.6144V66.6289Z" fill="black"/>
<path d="M60.5132 66.6289H59.3398V67.0531H60.5132V66.6289Z" fill="black"/>
<path d="M61.4078 66.6289H60.2344V67.0531H61.4078V66.6289Z" fill="black"/>
<path d="M62.3062 66.6289H61.1328V67.0531H62.3062V66.6289Z" fill="black"/>
<path d="M63.2043 66.6289H62.0312V67.0531H63.2043V66.6289Z" fill="black"/>
<path d="M64.1027 66.6289H62.9297V67.0531H64.1027V66.6289Z" fill="black"/>
<path d="M64.9972 66.6289H63.8242V67.0531H64.9972V66.6289Z" fill="black"/>
<path d="M65.896 66.6289H64.7227V67.0531H65.896V66.6289Z" fill="black"/>
<path d="M66.7945 66.6289H65.6211V67.0531H66.7945V66.6289Z" fill="black"/>
<path d="M67.6925 66.6289H66.5195V67.0531H67.6925V66.6289Z" fill="black"/>
<path d="M68.5871 66.6289H67.4141V67.0531H68.5871V66.6289Z" fill="black"/>
<path d="M69.4855 66.6289H68.3125V67.0531H69.4855V66.6289Z" fill="black"/>
<path d="M70.3804 66.6289H69.207V67.0531H70.3804V66.6289Z" fill="black"/>
<path d="M71.2788 66.6289H70.1055V67.0531H71.2788V66.6289Z" fill="black"/>
<path d="M77.4754 66.6365V65.0887C77.4754 64.3376 76.8536 63.9058 75.8606 63.9058C74.8519 63.9058 73.9377 64.813 73.1265 66.6368H77.4754V66.6365ZM79.2 67.0511H72.6789V66.7568C72.4453 66.9553 72.2211 67.0511 72.0137 67.0511H71.0039V66.6365H71.7983C72.3335 66.6365 72.6008 66.3246 72.6008 65.7015L72.6092 63.8875L73.1185 63.7581V65.7457C73.8516 64.2254 74.8344 63.4648 76.0519 63.4648C76.6291 63.4648 77.1045 63.6034 77.467 63.8802C77.8284 64.1471 78.0091 64.5014 78.0091 64.9333V66.6281H79.2V67.0511Z" fill="black"/>
<path d="M80.7558 61.8574C80.7558 62.0999 80.6266 62.2216 80.3761 62.2216C80.1264 62.2216 79.9964 62.0999 79.9964 61.849C79.9964 61.5982 80.1264 61.4688 80.3761 61.4688C80.5838 61.4688 80.7558 61.6424 80.7558 61.8574ZM81.2647 65.8591C81.2647 66.6108 80.8332 67.0518 80.1512 67.0518H78.9961V66.6372H79.9358C80.4794 66.6372 80.747 66.3253 80.747 65.7022V64.6232L80.6094 63.5518L81.2647 63.3858V65.8591Z" fill="black"/>
<path d="M85.5531 65.8592C85.5531 66.5426 85.1482 67.0509 84.4666 67.0509H82.2925L82.4912 66.6373H84.2344C84.3283 66.6373 84.4144 66.6194 84.5009 66.5931L82.7146 63.386L82.0936 62.5838H82.7924L84.8456 66.351C84.9748 66.196 85.0358 65.9792 85.0358 65.7035V62.722L84.8898 61.6331L85.5528 61.4689L85.5531 65.8592ZM83.371 62.0397H81.8008V61.8152H82.0939V61.6682C82.0939 61.1932 82.2842 60.9512 82.6719 60.9512C82.853 60.9512 83.0172 61.0203 83.164 61.1673L83.0687 61.3048C82.9742 61.228 82.8708 61.1848 82.7756 61.1848C82.4992 61.1848 82.3612 61.3578 82.3612 61.7113V61.8152H82.8453L83.0684 61.7794L83.371 62.0397Z" fill="black"/>
<path d="M87.2085 61.4707L87.1307 62.5004V67.0538H86.613V62.5004L86.4922 61.5321L87.2085 61.4707Z" fill="black"/>
<path d="M1.79807 75.2835C1.943 75.2835 2.09415 75.2868 2.24968 75.293C2.40593 75.2978 2.55635 75.3007 2.70165 75.3007C2.8579 75.3007 3.01416 75.2996 3.17042 75.2956C3.32704 75.2938 3.48293 75.2894 3.63918 75.2835L2.71041 73.1544L1.79807 75.2835ZM5.50549 77.8917C5.42773 77.8804 5.35398 77.8749 5.28425 77.8749H5.06265H4.84031C4.77094 77.8749 4.6961 77.8804 4.61907 77.8917C4.58037 77.763 4.52707 77.608 4.46026 77.4262C4.39308 77.2452 4.31861 77.0547 4.23792 76.8558C4.15687 76.6576 4.07509 76.4565 3.99076 76.2529C3.90716 76.0492 3.82903 75.8547 3.75638 75.6693C3.57749 75.6638 3.39677 75.6602 3.2124 75.658C3.02803 75.6543 2.84403 75.6525 2.66003 75.6525C2.48698 75.6525 2.31685 75.6543 2.14891 75.658C1.98207 75.6602 1.81194 75.6642 1.63889 75.6693C1.45963 76.1059 1.29863 76.5209 1.15333 76.9147C1.00803 77.3085 0.898865 77.6346 0.826944 77.8917C0.731657 77.8804 0.629068 77.8749 0.517352 77.8749C0.405272 77.8749 0.302318 77.8804 0.207031 77.8917C0.65937 76.9136 1.10003 75.941 1.5301 74.9735C1.95943 74.0078 2.39206 73.0235 2.82797 72.0234H2.98605C3.12077 72.3467 3.2657 72.6984 3.42159 73.0743C3.57785 73.452 3.73739 73.8341 3.89876 74.2195C4.06086 74.6049 4.22222 74.9888 4.38432 75.3684C4.54642 75.7475 4.69829 76.1026 4.84031 76.4287C4.98269 76.7553 5.1112 77.0474 5.22547 77.3045C5.34011 77.5622 5.43357 77.7579 5.50549 77.8917Z" fill="black"/>
<path d="M6.83269 73.3637C6.82941 73.1403 6.82575 72.9183 6.81991 72.7011C6.81444 72.4821 6.80787 72.2748 6.79874 72.0755C6.79034 71.877 6.78121 71.7084 6.76953 71.5684C6.92506 71.5965 7.05138 71.6104 7.14593 71.6104C7.24085 71.6104 7.36608 71.5965 7.5227 71.5684C7.51175 71.7084 7.50152 71.877 7.49386 72.0755C7.4851 72.2748 7.47816 72.4821 7.47268 72.7011C7.46684 72.9183 7.46319 73.1399 7.45991 73.3637C7.45698 73.5867 7.45516 73.7944 7.45516 73.9846V75.5005C7.45516 75.691 7.45662 75.8976 7.45991 76.1218C7.46319 76.3437 7.46721 76.5656 7.47268 76.7828C7.47816 77.0019 7.48473 77.2081 7.49386 77.4041C7.50152 77.5997 7.51175 77.762 7.5227 77.8904C7.39382 77.879 7.26933 77.8725 7.14593 77.8725C7.02363 77.8725 6.89768 77.879 6.76953 77.8904C6.78121 77.7617 6.79034 77.5997 6.79874 77.4041C6.8075 77.2081 6.81444 77.0015 6.81991 76.7828C6.82575 76.5656 6.82941 76.3441 6.83269 76.1218C6.83525 75.8976 6.83707 75.691 6.83707 75.5005V73.9846C6.83707 73.7944 6.83561 73.5871 6.83269 73.3637Z" fill="black"/>
<path d="M11.08 75.6758H8.99609V76.1961H11.08V75.6758Z" fill="black"/>
<path d="M13.4976 75.2816C13.6426 75.2816 13.7934 75.2849 13.95 75.2911C14.1055 75.2958 14.2563 75.2988 14.402 75.2988C14.5575 75.2988 14.7141 75.2977 14.8704 75.2937C15.0263 75.2918 15.1829 75.2874 15.3391 75.2816L14.41 73.1524L13.4976 75.2816ZM17.2065 77.8897C17.1284 77.8784 17.0539 77.8729 16.9842 77.8729H16.7619H16.5406C16.4702 77.8729 16.3964 77.8784 16.3187 77.8897C16.2796 77.761 16.2263 77.606 16.1587 77.4243C16.0927 77.2433 16.0178 77.0528 15.9379 76.8539C15.8565 76.6557 15.7743 76.4546 15.6907 76.2509C15.6064 76.0473 15.5286 75.8527 15.4563 75.6673C15.2778 75.6619 15.0956 75.6582 14.9116 75.656C14.7283 75.6524 14.5436 75.6505 14.3592 75.6505C14.1862 75.6505 14.0161 75.6524 13.8489 75.656C13.6813 75.6582 13.5108 75.6622 13.3381 75.6673C13.1592 76.1039 12.9979 76.5189 12.8533 76.9127C12.7072 77.3065 12.5992 77.6327 12.5262 77.8897C12.4305 77.8784 12.3276 77.8729 12.2155 77.8729C12.1041 77.8729 12.0015 77.8784 11.9062 77.8897C12.3582 76.9116 12.7992 75.939 13.2293 74.9715C13.6587 74.0058 14.0913 73.0215 14.5265 72.0215H14.686C14.82 72.3447 14.9649 72.6965 15.1208 73.0723C15.2778 73.4501 15.4362 73.8322 15.598 74.2176C15.7601 74.6029 15.9225 74.9869 16.0839 75.3664C16.2453 75.7456 16.3975 76.1006 16.5403 76.4268C16.6823 76.7533 16.8104 77.0455 16.9251 77.3025C17.0401 77.5603 17.1335 77.7559 17.2065 77.8897Z" fill="black"/>
<path d="M20.8069 74.5822C20.6437 74.3676 20.421 74.2601 20.137 74.2601C19.746 74.2601 19.4597 74.3804 19.2787 74.6206C19.0976 74.8612 19.0074 75.1994 19.0074 75.6345V76.3468C19.0074 76.5991 19.0111 76.8635 19.0191 77.1403C19.0278 77.4174 19.0457 77.6664 19.0738 77.8902C18.9446 77.8789 18.819 77.8723 18.6971 77.8723C18.574 77.8723 18.4485 77.8789 18.3203 77.8902C18.3477 77.6668 18.3667 77.4174 18.3747 77.1403C18.3824 76.8635 18.3871 76.5995 18.3871 76.3468V75.4751C18.3871 75.2239 18.3824 74.9592 18.3747 74.6831C18.3667 74.4063 18.3477 74.1482 18.3203 73.9069C18.4766 73.9357 18.6018 73.9493 18.6971 73.9493C18.7416 73.9493 18.7902 73.9452 18.8431 73.9368C18.8964 73.9273 18.9588 73.9197 19.0315 73.9069C19.0151 74.1303 19.0074 74.3551 19.0074 74.5778H19.0231C19.1801 74.3387 19.3677 74.1522 19.5861 74.0213C19.8036 73.8897 20.0643 73.8242 20.367 73.8242C20.5229 73.8242 20.6817 73.8465 20.8416 73.8908C21.0008 73.9361 21.145 74.0122 21.2735 74.1211C21.4027 74.2308 21.5068 74.3793 21.5885 74.5657C21.6696 74.7541 21.7108 74.9921 21.7108 75.2824C21.7108 75.5234 21.7043 75.7709 21.6937 76.025C21.6827 76.2795 21.6776 76.5483 21.6776 76.8342V77.3787C21.6776 77.4683 21.678 77.5567 21.6813 77.643C21.6831 77.7293 21.6886 77.8116 21.6937 77.8906C21.5812 77.8792 21.4615 77.8727 21.3374 77.8727C21.2191 77.8727 21.1033 77.8792 20.9905 77.8906C21.0019 77.5999 21.0143 77.3012 21.0278 76.9933C21.042 76.6861 21.0493 76.3702 21.0493 76.0459V75.5354C21.0493 75.1161 20.9683 74.7983 20.8069 74.5822Z" fill="black"/>
<path d="M23.3981 77.2957C23.4565 77.3633 23.527 77.4258 23.6069 77.4851C23.6883 77.5432 23.7803 77.5937 23.8836 77.6317C23.9862 77.6712 24.0969 77.6902 24.2144 77.6902C24.3199 77.6902 24.4218 77.6734 24.5196 77.6397C24.6175 77.6068 24.7036 77.5589 24.7788 77.4975C24.854 77.4361 24.9143 77.3575 24.9588 77.2624C25.0037 77.1677 25.0256 77.058 25.0256 76.9351C25.0256 76.7615 24.9771 76.6295 24.8796 76.5369C24.7818 76.4444 24.6609 76.3687 24.5145 76.3106C24.3696 76.2521 24.2108 76.1998 24.0377 76.1552C23.8647 76.1106 23.7055 76.0484 23.5605 75.9673C23.416 75.8861 23.2944 75.7775 23.1966 75.644C23.0984 75.5106 23.0502 75.3241 23.0502 75.0901C23.0502 74.9058 23.0805 74.7372 23.1414 74.5822C23.2031 74.4297 23.2926 74.2963 23.4098 74.1844C23.527 74.0729 23.6715 73.9844 23.845 73.9207C24.018 73.856 24.2162 73.8242 24.4386 73.8242C24.6452 73.8242 24.8197 73.8516 24.9621 73.9072C25.1049 73.9632 25.2396 74.014 25.3684 74.0579C25.3239 74.142 25.2819 74.2465 25.2425 74.3687C25.2038 74.4919 25.1786 74.587 25.1676 74.6542H25.0669C25.0216 74.52 24.9355 74.399 24.8073 74.2941C24.6788 74.1866 24.5196 74.135 24.3298 74.135C24.2462 74.135 24.1626 74.1485 24.0786 74.1767C23.995 74.2045 23.9198 74.2462 23.8533 74.3014C23.7858 74.357 23.7303 74.4305 23.6858 74.52C23.6409 74.6089 23.619 74.7153 23.619 74.8382C23.619 75.0184 23.6679 75.1552 23.765 75.2532C23.8632 75.3523 23.984 75.4287 24.1294 75.4839C24.2743 75.5406 24.4342 75.5877 24.6065 75.6309C24.7796 75.6722 24.9387 75.7311 25.0837 75.806C25.2283 75.8835 25.3498 75.9866 25.4477 76.1216C25.5455 76.255 25.5948 76.4393 25.5948 76.6744C25.5948 76.8357 25.5597 76.9962 25.4904 77.1531C25.4207 77.3096 25.3199 77.4503 25.1888 77.5754C25.0574 77.7008 24.9 77.7988 24.7157 77.8694C24.5324 77.9396 24.3225 77.9736 24.0881 77.9736C23.8311 77.9736 23.616 77.9487 23.4434 77.8979C23.2699 77.8489 23.125 77.7893 23.0078 77.722C23.0414 77.6507 23.0761 77.5502 23.113 77.4251C23.1491 77.299 23.167 77.1947 23.167 77.1106H23.2674C23.2962 77.1684 23.3389 77.2295 23.3981 77.2957Z" fill="black"/>
<path d="M28.7146 75.8865C28.5905 75.9088 28.4634 75.9318 28.3364 75.9578C28.2082 75.9823 28.0819 76.0148 27.9567 76.055C27.8318 76.0931 27.7212 76.1464 27.6237 76.213C27.527 76.2806 27.4488 76.3647 27.3908 76.4646C27.3324 76.5651 27.3032 76.6938 27.3032 76.8503C27.3032 77.1132 27.3784 77.3114 27.5281 77.4459C27.6781 77.5801 27.8446 77.6471 28.0271 77.6471C28.2393 77.6471 28.432 77.5893 28.6069 77.4715C28.781 77.3538 28.9165 77.2167 29.0103 77.0606L29.0435 75.8024C28.9497 75.8356 28.8398 75.8642 28.7146 75.8865ZM27.6708 73.9244C27.8833 73.8568 28.1013 73.8242 28.3243 73.8242C28.5251 73.8242 28.7095 73.8538 28.8778 73.9112C29.045 73.9701 29.1885 74.0549 29.3071 74.1639C29.4261 74.2714 29.5196 74.4041 29.5875 74.5581C29.6551 74.7105 29.6883 74.8798 29.6883 75.063C29.6883 75.3833 29.6832 75.7 29.6722 76.0155C29.6609 76.3318 29.6558 76.6668 29.6558 77.017C29.6558 77.0854 29.6572 77.156 29.6598 77.2317C29.6624 77.3066 29.6748 77.3732 29.6974 77.4328C29.72 77.492 29.7518 77.5403 29.7934 77.5798C29.8361 77.6193 29.8986 77.6368 29.9818 77.6368C30.0103 77.6368 30.0395 77.6368 30.0702 77.6335C30.1008 77.6306 30.13 77.6215 30.1585 77.605V77.7886C30.0968 77.8167 30.0198 77.839 29.9274 77.8558C29.8361 77.8719 29.7339 77.8811 29.6218 77.8811C29.4411 77.8811 29.3024 77.835 29.2064 77.7421C29.11 77.6507 29.0538 77.5319 29.0359 77.386C28.8362 77.5885 28.639 77.7359 28.4441 77.8306C28.2491 77.9253 28.0103 77.9728 27.7267 77.9728C27.5869 77.9728 27.4507 77.9538 27.3178 77.9147C27.1845 77.8752 27.0659 77.8109 26.9626 77.7213C26.8603 77.6328 26.7771 77.5249 26.7128 77.3991C26.6482 77.2726 26.6172 77.1297 26.6172 76.9673C26.6172 76.6324 26.7205 76.3713 26.9301 76.1881C27.1385 76.0031 27.4255 75.8806 27.7931 75.8188C28.0932 75.768 28.3287 75.7252 28.4985 75.6894C28.6679 75.6521 28.7931 75.6144 28.8738 75.5757C28.9537 75.5376 29.0019 75.4912 29.0191 75.4371C29.0355 75.3837 29.0439 75.3153 29.0439 75.2316C29.0439 75.0923 29.0286 74.9577 28.9942 74.8301C28.9618 74.7007 28.9074 74.5892 28.8351 74.4941C28.7632 74.3979 28.6675 74.3222 28.5507 74.2626C28.4331 74.2045 28.2907 74.1749 28.1239 74.1749C27.9005 74.1749 27.6916 74.2261 27.5003 74.3266C27.3079 74.4275 27.1634 74.5668 27.0688 74.7456H26.9768V74.3091C27.2283 74.1197 27.4591 73.991 27.6708 73.9244Z" fill="black"/>
<path d="M33.1754 74.5032C33.094 74.4758 33.0125 74.4612 32.9282 74.4612C32.795 74.4612 32.6745 74.4915 32.5693 74.5526C32.4624 74.6151 32.3733 74.6974 32.3006 74.8005C32.2283 74.9043 32.1725 75.0276 32.1334 75.1698C32.0944 75.312 32.0746 75.4641 32.0746 75.6269V76.549C32.0746 76.9227 32.075 77.209 32.0783 77.409C32.0812 77.6065 32.0914 77.7681 32.1082 77.8902C31.9969 77.8789 31.8848 77.8734 31.7731 77.8734C31.6508 77.8734 31.5332 77.8789 31.4219 77.8902C31.4383 77.6997 31.4482 77.4408 31.4511 77.1143C31.454 76.7867 31.4551 76.3867 31.4551 75.911V75.6437C31.4551 75.4257 31.454 75.1742 31.4511 74.8879C31.4485 74.6034 31.4383 74.2762 31.4219 73.9083C31.4828 73.92 31.542 73.9277 31.5975 73.9372C31.6526 73.9456 31.7118 73.9496 31.7731 73.9496C31.8235 73.9496 31.8764 73.9456 31.9323 73.9372C31.9878 73.9277 32.0465 73.92 32.1082 73.9083C32.0856 74.1091 32.0732 74.2677 32.0699 74.3848C32.0673 74.5036 32.0666 74.6155 32.0666 74.7215L32.0827 74.7299C32.4116 74.1255 32.7811 73.8242 33.1885 73.8242C33.2382 73.8242 33.2816 73.8275 33.3174 73.8323C33.3543 73.8381 33.3999 73.8516 33.4561 73.8732C33.4276 73.9409 33.4112 74.0432 33.4057 74.1796C33.3999 74.3167 33.3973 74.4403 33.3973 74.5526L33.3382 74.5957C33.3097 74.561 33.2561 74.5307 33.1754 74.5032Z" fill="black"/>
<path d="M34.7493 74.6834C34.7409 74.4066 34.7227 74.1484 34.6949 73.9071C34.8508 73.936 34.9768 73.9495 35.0713 73.9495C35.167 73.9495 35.2918 73.936 35.4488 73.9071C35.4203 74.1484 35.4024 74.4066 35.3948 74.6834C35.3857 74.9595 35.3816 75.2234 35.3816 75.4754V76.3471C35.3816 76.5994 35.3857 76.8637 35.3948 77.1405C35.4024 77.4166 35.4207 77.6667 35.4488 77.8905C35.3199 77.8791 35.1943 77.8737 35.0713 77.8737C34.9494 77.8737 34.8231 77.8791 34.6949 77.8905C34.7227 77.6671 34.7409 77.4166 34.7493 77.1405C34.7577 76.8637 34.7617 76.5997 34.7617 76.3471V75.4754C34.7617 75.2231 34.7577 74.9595 34.7493 74.6834ZM34.7705 72.1473C34.8537 72.0628 34.9545 72.0215 35.0713 72.0215C35.1896 72.0215 35.2893 72.0624 35.3729 72.1473C35.4568 72.2314 35.4992 72.3312 35.4992 72.4482C35.4992 72.5659 35.4572 72.6661 35.3729 72.7502C35.2893 72.8339 35.1896 72.8767 35.0713 72.8767C34.9545 72.8767 34.8537 72.8343 34.7705 72.7502C34.6869 72.6661 34.6445 72.5659 34.6445 72.4482C34.6445 72.3312 34.6869 72.2317 34.7705 72.1473Z" fill="black"/>
<path d="M42.5748 72.6712C42.4554 72.5396 42.2907 72.473 42.0855 72.473C41.8676 72.473 41.6945 72.5487 41.5657 72.7005C41.4379 72.8511 41.3733 73.0372 41.3733 73.2617C41.3733 73.4292 41.4226 73.6248 41.5204 73.849C41.6175 74.072 41.7446 74.279 41.9005 74.4691C42.1849 74.2903 42.3988 74.0811 42.5415 73.8435C42.6836 73.6069 42.7544 73.382 42.7544 73.1685C42.7544 72.9677 42.6938 72.8021 42.5748 72.6712ZM40.6037 76.8959C40.6646 77.0396 40.7501 77.1643 40.8589 77.2729C40.9669 77.3826 41.0969 77.4688 41.2477 77.5332C41.3988 77.5983 41.5627 77.6301 41.742 77.6301C42.0264 77.6301 42.2688 77.5782 42.4696 77.4751C42.6715 77.3723 42.869 77.2228 43.0647 77.0257C42.7803 76.6908 42.5087 76.3584 42.2517 76.0286C41.9957 75.6991 41.742 75.358 41.4908 75.0062C41.1834 75.1894 40.9436 75.3909 40.7705 75.6092C40.5975 75.8264 40.5117 76.1094 40.5117 76.4556C40.5113 76.6067 40.5416 76.754 40.6037 76.8959ZM40.8833 73.0017C40.9479 72.8511 41.0367 72.718 41.152 72.6036C41.2659 72.4891 41.401 72.3992 41.5576 72.3352C41.7139 72.2708 41.8866 72.2383 42.0757 72.2383C42.3995 72.2383 42.666 72.3184 42.8756 72.4774C43.0855 72.6368 43.1888 72.8705 43.1888 73.1769C43.1888 73.3345 43.1531 73.4859 43.0804 73.6307C43.0081 73.7755 42.9143 73.9118 42.8007 74.0362C42.6857 74.1623 42.5616 74.2771 42.4273 74.3802C42.2933 74.4841 42.1648 74.5726 42.0428 74.6442C42.2933 74.9689 42.539 75.2863 42.7799 75.5964C43.0191 75.9061 43.2651 76.1982 43.5159 76.4721C43.7178 76.1869 43.9007 75.9145 44.0636 75.6545C44.2286 75.3953 44.3779 75.1148 44.5123 74.8121C44.5462 74.8845 44.5922 74.9474 44.6499 75.0015C44.7083 75.0545 44.7689 75.1035 44.8306 75.147C44.6572 75.4161 44.4841 75.6761 44.3107 75.928C44.1381 76.1788 43.9343 76.4385 43.7007 76.7083L44.7718 77.8893C44.682 77.878 44.5933 77.8714 44.5046 77.8714H44.2359H43.9968C43.9161 77.8714 43.8372 77.878 43.7584 77.8893C43.7142 77.8272 43.6456 77.7347 43.5539 77.6074C43.4619 77.4827 43.3546 77.3478 43.2319 77.2012C42.9855 77.4476 42.7223 77.6422 42.4408 77.7844C42.1593 77.9277 41.8198 77.999 41.4237 77.999C41.2061 77.999 41.0009 77.972 40.8081 77.919C40.6157 77.8656 40.4474 77.7804 40.3014 77.6634C40.1564 77.5467 40.0407 77.399 39.9546 77.2235C39.8677 77.0465 39.8242 76.8421 39.8242 76.6063C39.8242 76.422 39.8633 76.241 39.9421 76.0655C40.0203 75.8904 40.1276 75.7225 40.2649 75.562C40.4011 75.404 40.5613 75.26 40.7457 75.1313C40.9297 75.0026 41.1312 74.8936 41.3488 74.804C41.186 74.5685 41.0516 74.3455 40.9458 74.1342C40.8402 73.9206 40.7873 73.7089 40.7873 73.4954C40.7877 73.318 40.8194 73.1524 40.8833 73.0017Z" fill="black"/>
<path d="M49.1919 75.2816C49.3364 75.2816 49.4872 75.2849 49.6435 75.2911C49.7994 75.2958 49.9498 75.2988 50.0958 75.2988C50.2517 75.2988 50.4083 75.2977 50.5639 75.2937C50.7208 75.2918 50.876 75.2874 51.0333 75.2816L50.1035 73.1524L49.1919 75.2816ZM52.8997 77.8897C52.8219 77.8784 52.7478 77.8729 52.6784 77.8729H52.4568H52.2345C52.1647 77.8729 52.091 77.8784 52.0132 77.8897C51.9738 77.761 51.9209 77.606 51.8537 77.4243C51.7869 77.2433 51.7131 77.0528 51.6332 76.8539C51.5514 76.6557 51.4689 76.4546 51.3849 76.2509C51.3013 76.0473 51.2228 75.8527 51.1505 75.6673C50.972 75.6619 50.7906 75.6582 50.6069 75.656C50.4226 75.6524 50.2386 75.6505 50.0538 75.6505C49.8808 75.6505 49.711 75.6524 49.5434 75.656C49.3762 75.6582 49.2057 75.6622 49.0334 75.6673C48.8545 76.1039 48.6921 76.5189 48.5486 76.9127C48.4022 77.3065 48.2941 77.6327 48.2211 77.8897C48.1269 77.8784 48.0229 77.8729 47.9112 77.8729C47.7998 77.8729 47.6965 77.8784 47.6016 77.8897C48.0532 76.9116 48.4938 75.939 48.9246 74.9715C49.354 74.0058 49.7862 73.0215 50.2218 72.0215H50.3813C50.5153 72.3447 50.6606 72.6965 50.8161 73.0723C50.9724 73.4501 51.1305 73.8322 51.2944 74.2176C51.4554 74.6029 51.6178 74.9869 51.7796 75.3664C51.9402 75.7456 52.0928 76.1006 52.2348 76.4268C52.3783 76.7533 52.5054 77.0455 52.6207 77.3025C52.7339 77.5603 52.8277 77.7559 52.8997 77.8897Z" fill="black"/>
<path d="M54.1012 77.2957C54.1593 77.3633 54.229 77.4258 54.31 77.4851C54.3915 77.5432 54.4835 77.5937 54.586 77.6317C54.6901 77.6712 54.8003 77.6902 54.9164 77.6902C55.023 77.6902 55.1253 77.6734 55.2224 77.6397C55.3195 77.6068 55.4064 77.5589 55.4823 77.4975C55.5579 77.4361 55.6174 77.3575 55.6623 77.2624C55.7072 77.1677 55.7295 77.058 55.7295 76.9351C55.7295 76.7615 55.6798 76.6295 55.582 76.5369C55.4852 76.4444 55.3648 76.3687 55.2191 76.3106C55.0734 76.2521 54.9146 76.1998 54.7408 76.1552C54.5682 76.1106 54.4086 76.0484 54.2637 75.9673C54.1187 75.8861 53.9975 75.7775 53.8997 75.644C53.8018 75.5106 53.7537 75.3241 53.7537 75.0901C53.7537 74.9058 53.7843 74.7372 53.8464 74.5822C53.9074 74.4297 53.9968 74.2963 54.114 74.1844C54.2297 74.0729 54.3758 73.9844 54.5488 73.9207C54.7215 73.856 54.9194 73.8242 55.1435 73.8242C55.3491 73.8242 55.5243 73.8516 55.6656 73.9072C55.8091 73.9632 55.9438 74.014 56.0727 74.0579C56.0281 74.142 55.9861 74.2465 55.9467 74.3687C55.9073 74.4919 55.8825 74.587 55.8708 74.6542H55.7711C55.7266 74.52 55.6404 74.399 55.5112 74.2941C55.3834 74.1866 55.2242 74.135 55.034 74.135C54.9504 74.135 54.8672 74.1485 54.7828 74.1767C54.6989 74.2045 54.6233 74.2462 54.5565 74.3014C54.4893 74.357 54.4345 74.4305 54.3889 74.52C54.3447 74.6089 54.3225 74.7153 54.3225 74.8382C54.3225 75.0184 54.3714 75.1552 54.4678 75.2532C54.5667 75.3523 54.6883 75.4287 54.8332 75.4839C54.9774 75.5406 55.1373 75.5877 55.3104 75.6309C55.4838 75.6722 55.6422 75.7311 55.7872 75.806C55.9317 75.8835 56.054 75.9866 56.1519 76.1216C56.2494 76.255 56.2979 76.4393 56.2979 76.6744C56.2979 76.8357 56.2625 76.9962 56.1924 77.1531C56.1241 77.3096 56.0227 77.4503 55.8916 77.5754C55.7602 77.7008 55.6028 77.7988 55.4184 77.8694C55.2344 77.9396 55.0249 77.9736 54.7916 77.9736C54.5346 77.9736 54.3192 77.9487 54.1465 77.8979C53.9731 77.8489 53.8274 77.7893 53.7109 77.722C53.7445 77.6507 53.7785 77.5502 53.8154 77.4251C53.8522 77.299 53.8694 77.1947 53.8694 77.1106H53.9705C53.999 77.1684 54.0424 77.2295 54.1012 77.2957Z" fill="black"/>
<path d="M57.6907 77.2957C57.7495 77.3633 57.8192 77.4258 57.8999 77.4851C57.9813 77.5432 58.0729 77.5937 58.1766 77.6317C58.2799 77.6712 58.3902 77.6902 58.5067 77.6902C58.6133 77.6902 58.7148 77.6734 58.8122 77.6397C58.9104 77.6068 58.9966 77.5589 59.0718 77.4975C59.1477 77.4361 59.2065 77.3575 59.2525 77.2624C59.2963 77.1677 59.319 77.058 59.319 76.9351C59.319 76.7615 59.2697 76.6295 59.1722 76.5369C59.0751 76.4444 58.9539 76.3687 58.8086 76.3106C58.6629 76.2521 58.5048 76.1998 58.331 76.1552C58.158 76.1106 57.9995 76.0484 57.8535 75.9673C57.7093 75.8861 57.5874 75.7775 57.4903 75.644C57.3917 75.5106 57.3431 75.3241 57.3431 75.0901C57.3431 74.9058 57.3738 74.7372 57.4359 74.5822C57.4968 74.4297 57.5863 74.2963 57.7038 74.1844C57.8199 74.0729 57.966 73.9844 58.1386 73.9207C58.3121 73.856 58.5096 73.8242 58.7334 73.8242C58.9385 73.8242 59.1134 73.8516 59.2558 73.9072C59.3989 73.9632 59.5336 74.014 59.6629 74.0579C59.6176 74.142 59.576 74.2465 59.5366 74.3687C59.4971 74.4919 59.4719 74.587 59.4613 74.6542H59.3606C59.3164 74.52 59.2295 74.399 59.1014 74.2941C58.9736 74.1866 58.8144 74.135 58.6242 74.135C58.5402 74.135 58.4566 74.1485 58.373 74.1767C58.2891 74.2045 58.2131 74.2462 58.1463 74.3014C58.0795 74.357 58.0244 74.4305 57.9791 74.52C57.9342 74.6089 57.9119 74.7153 57.9119 74.8382C57.9119 75.0184 57.9616 75.1552 58.058 75.2532C58.1565 75.3523 58.2777 75.4287 58.4227 75.4839C58.5673 75.5406 58.7275 75.5877 58.9002 75.6309C59.0736 75.6722 59.2317 75.7311 59.377 75.806C59.5216 75.8835 59.6439 75.9866 59.7417 76.1216C59.8396 76.255 59.8881 76.4393 59.8881 76.6744C59.8881 76.8357 59.852 76.9962 59.7823 77.1531C59.7136 77.3096 59.6125 77.4503 59.4818 77.5754C59.3504 77.7008 59.193 77.7988 59.0083 77.8694C58.8243 77.9396 58.6154 77.9736 58.3811 77.9736C58.124 77.9736 57.9094 77.9487 57.7367 77.8979C57.5629 77.8489 57.4176 77.7893 57.3008 77.722C57.3347 77.6507 57.369 77.5502 57.4056 77.4251C57.4424 77.299 57.4596 77.1947 57.4596 77.1106H57.56C57.5892 77.1684 57.6319 77.2295 57.6907 77.2957Z" fill="black"/>
<path d="M61.65 76.5903C61.6923 76.809 61.7632 77.0039 61.8643 77.1743C61.9636 77.3443 62.0976 77.4799 62.2652 77.5805C62.4327 77.6807 62.6397 77.7311 62.8854 77.7311C63.1304 77.7311 63.337 77.6807 63.5043 77.5805C63.6722 77.4799 63.8051 77.3443 63.9062 77.1743C64.0066 77.0039 64.0782 76.809 64.1202 76.5903C64.1614 76.372 64.1826 76.1468 64.1826 75.9113C64.1826 75.6773 64.1614 75.451 64.1202 75.2327C64.0782 75.0144 64.0066 74.8206 63.9062 74.6502C63.8055 74.4795 63.6722 74.3449 63.5043 74.2436C63.337 74.1427 63.1304 74.0926 62.8854 74.0926C62.6397 74.0926 62.4327 74.1427 62.2652 74.2436C62.0976 74.3449 61.964 74.4798 61.8643 74.6502C61.7632 74.8206 61.6923 75.0144 61.65 75.2327C61.6084 75.4513 61.5868 75.6777 61.5868 75.9113C61.5868 76.1468 61.6084 76.372 61.65 76.5903ZM61.0312 74.9435C61.1506 74.678 61.3076 74.4626 61.504 74.297C61.6989 74.1328 61.9183 74.0122 62.1608 73.9372C62.4039 73.8615 62.6452 73.8242 62.8854 73.8242C63.1304 73.8242 63.3736 73.8615 63.6131 73.9372C63.8529 74.0122 64.0709 74.1328 64.2658 74.297C64.4615 74.4623 64.6192 74.678 64.7386 74.9435C64.8591 75.2086 64.919 75.5318 64.919 75.911C64.919 76.292 64.8591 76.6145 64.7386 76.8792C64.6192 77.1447 64.4615 77.3593 64.2658 77.5253C64.0709 77.6909 63.8529 77.8061 63.6131 77.8723C63.3736 77.9407 63.1304 77.9732 62.8854 77.9732C62.6452 77.9732 62.4039 77.9403 62.1608 77.8723C61.9183 77.8057 61.6989 77.6909 61.504 77.5253C61.3076 77.3597 61.1506 77.1447 61.0312 76.8792C60.9111 76.6141 60.8516 76.292 60.8516 75.911C60.8516 75.5318 60.9111 75.2082 61.0312 74.9435Z" fill="black"/>
<path d="M66.0835 74.9716C66.2066 74.7094 66.3668 74.4923 66.5647 74.323C66.7633 74.1522 66.9908 74.0253 67.2478 73.9456C67.5033 73.8641 67.7662 73.8242 68.0335 73.8242C68.3405 73.8242 68.6158 73.8615 68.8585 73.9372C69.1006 74.0122 69.2755 74.0974 69.3813 74.1932C69.3434 74.2762 69.308 74.3646 69.2769 74.4572C69.247 74.5486 69.2203 74.6455 69.1981 74.7467H69.1309C69.0915 74.674 69.0385 74.6005 68.9714 74.5237C68.9049 74.448 68.8257 74.3785 68.7333 74.3142C68.6409 74.2509 68.5395 74.1975 68.4274 74.1559C68.3157 74.1131 68.1926 74.0922 68.0586 74.0922C67.8075 74.0922 67.5913 74.1383 67.4103 74.2308C67.2284 74.3233 67.0813 74.4502 66.9663 74.6122C66.8524 74.7749 66.7688 74.9661 66.7151 75.1866C66.6618 75.4075 66.6352 75.6459 66.6352 75.9029C66.6352 76.4792 66.7586 76.9147 67.0043 77.2068C67.2493 77.5008 67.6096 77.6482 68.0831 77.6482C68.1959 77.6482 68.3102 77.6313 68.427 77.6013C68.5438 77.5699 68.6592 77.5282 68.7695 77.4752C68.8823 77.4222 68.9863 77.3586 69.0842 77.2858C69.1813 77.213 69.2663 77.1351 69.3394 77.0507L69.3802 77.0766C69.3529 77.2105 69.3361 77.348 69.331 77.4862C69.1634 77.6215 68.9553 77.7363 68.707 77.8306C68.4588 77.9249 68.1999 77.9728 67.9327 77.9728C67.6928 77.9728 67.4511 77.9388 67.2084 77.8686C66.9656 77.7995 66.7465 77.6811 66.5512 77.5165C66.3559 77.3509 66.1982 77.1381 66.0792 76.8744C65.9587 76.6126 65.8984 76.2912 65.8984 75.9102C65.8995 75.5482 65.9609 75.2349 66.0835 74.9716Z" fill="black"/>
<path d="M70.9091 74.6834C70.9011 74.4066 70.8835 74.1484 70.8551 73.9071C71.0113 73.936 71.1369 73.9495 71.2326 73.9495C71.326 73.9495 71.452 73.936 71.6086 73.9071C71.5798 74.1484 71.5626 74.4066 71.5546 74.6834C71.5465 74.9595 71.5422 75.2234 71.5422 75.4754V76.3471C71.5422 76.5994 71.5465 76.8637 71.5546 77.1405C71.5626 77.4166 71.5798 77.6667 71.6086 77.8905C71.4797 77.8791 71.3549 77.8737 71.2326 77.8737C71.1092 77.8737 70.9825 77.8791 70.8551 77.8905C70.8835 77.6671 70.9011 77.4166 70.9091 77.1405C70.9179 76.8637 70.9215 76.5997 70.9215 76.3471V75.4754C70.9219 75.2231 70.9182 74.9595 70.9091 74.6834ZM70.9303 72.1473C71.0139 72.0628 71.1146 72.0215 71.2326 72.0215C71.3479 72.0215 71.4498 72.0624 71.533 72.1473C71.6166 72.2314 71.659 72.3312 71.659 72.4482C71.659 72.5659 71.6166 72.6661 71.533 72.7502C71.4494 72.8339 71.3479 72.8767 71.2326 72.8767C71.1146 72.8767 71.0139 72.8343 70.9303 72.7502C70.8467 72.6661 70.8047 72.5659 70.8047 72.4482C70.8047 72.3312 70.8467 72.2317 70.9303 72.1473Z" fill="black"/>
<path d="M75.1813 75.8865C75.0564 75.9088 74.9301 75.9318 74.8019 75.9578C74.6742 75.9823 74.5482 76.0148 74.4226 76.055C74.2981 76.0931 74.1871 76.1464 74.0908 76.213C73.9922 76.2806 73.9152 76.3647 73.8571 76.4646C73.7983 76.5651 73.7695 76.6938 73.7695 76.8503C73.7695 77.1132 73.8443 77.3114 73.9936 77.4459C74.1433 77.5801 74.3113 77.6471 74.4934 77.6471C74.7045 77.6471 74.8976 77.5893 75.0736 77.4715C75.2477 77.3538 75.3828 77.2167 75.4766 77.0606L75.5109 75.8024C75.416 75.8356 75.3061 75.8642 75.1813 75.8865ZM74.1371 73.9244C74.3489 73.8568 74.5672 73.8242 74.7899 73.8242C74.9911 73.8242 75.1751 73.8538 75.343 73.9112C75.5109 73.9701 75.6548 74.0549 75.7734 74.1639C75.8913 74.2714 75.9848 74.4041 76.0531 74.5581C76.1206 74.7105 76.1549 74.8798 76.1549 75.063C76.1549 75.3833 76.1487 75.7 76.1381 76.0155C76.1272 76.3318 76.121 76.6668 76.121 77.017C76.121 77.0854 76.1225 77.156 76.1257 77.2317C76.1283 77.3066 76.1403 77.3732 76.163 77.4328C76.1856 77.492 76.2177 77.5403 76.2605 77.5798C76.3017 77.6193 76.3641 77.6368 76.4485 77.6368C76.4755 77.6368 76.5054 77.6368 76.5361 77.6335C76.5657 77.6306 76.5963 77.6215 76.6237 77.605V77.7886C76.562 77.8167 76.4857 77.839 76.3937 77.8558C76.3017 77.8719 76.1999 77.8811 76.0881 77.8811C75.9071 77.8811 75.7672 77.835 75.6719 77.7421C75.5752 77.6507 75.5179 77.5319 75.5022 77.386C75.3014 77.5885 75.1031 77.7359 74.9107 77.8306C74.7154 77.9253 74.4763 77.9728 74.1923 77.9728C74.0532 77.9728 73.9162 77.9538 73.7841 77.9147C73.6501 77.8752 73.5329 77.8109 73.4292 77.7213C73.3263 77.6328 73.2419 77.5249 73.178 77.3991C73.1149 77.2726 73.082 77.1297 73.082 76.9673C73.082 76.6324 73.1861 76.3713 73.3945 76.1881C73.6034 76.0031 73.8911 75.8806 74.258 75.8188C74.5588 75.768 74.7935 75.7252 74.9629 75.6894C75.1331 75.6521 75.2576 75.6144 75.3386 75.5757C75.42 75.5376 75.4679 75.4912 75.4843 75.4371C75.5014 75.3837 75.5102 75.3153 75.5102 75.2316C75.5102 75.0923 75.4927 74.9577 75.4587 74.8301C75.4251 74.7007 75.3726 74.5892 75.3003 74.4941C75.2269 74.3979 75.1323 74.3222 75.0148 74.2626C74.8987 74.2045 74.7559 74.1749 74.588 74.1749C74.3653 74.1749 74.1572 74.2261 73.9648 74.3266C73.7724 74.4275 73.6289 74.5668 73.5347 74.7456H73.4409V74.3091C73.6939 74.1197 73.925 73.991 74.1371 73.9244Z" fill="black"/>
<path d="M78.6508 72.7852C78.6333 72.9969 78.6212 73.206 78.6128 73.4097C78.6041 73.6141 78.5946 73.8188 78.584 74.0265C78.6449 74.0265 78.7589 74.0243 78.9275 74.0225C79.094 74.0192 79.2751 74.0123 79.4704 74.0009C79.4646 74.017 79.4624 74.0485 79.4624 74.0931V74.1775V74.2686C79.4624 74.3081 79.4649 74.3366 79.4704 74.3527C79.3981 74.3468 79.3222 74.3443 79.2448 74.3406C79.1659 74.3373 79.083 74.3362 78.994 74.3362H78.5836C78.5774 74.3578 78.5705 74.4485 78.5617 74.6046C78.554 74.7607 78.546 74.9469 78.5402 75.1615C78.5354 75.3772 78.5314 75.6017 78.5281 75.8365C78.5245 76.0705 78.5237 76.28 78.5237 76.4654C78.5237 76.6223 78.5281 76.7762 78.5365 76.9257C78.5449 77.0778 78.5723 77.2128 78.6165 77.3327C78.6617 77.4526 78.7282 77.5495 78.8176 77.6227C78.9067 77.694 79.0352 77.7316 79.2021 77.7316C79.2473 77.7316 79.3072 77.7265 79.3817 77.7152C79.4565 77.7035 79.5237 77.6896 79.5788 77.6728V77.8731C79.4839 77.891 79.3795 77.9119 79.2656 77.9371C79.1509 77.9616 79.0411 77.9744 78.9348 77.9744C78.5836 77.9744 78.3237 77.8881 78.1568 77.7155C77.9889 77.5415 77.9057 77.287 77.9057 76.9521C77.9057 76.8014 77.9078 76.6383 77.9133 76.4614C77.9184 76.2855 77.9254 76.0928 77.9349 75.8844C77.9425 75.673 77.9491 75.4408 77.9557 75.1874C77.9615 74.9341 77.9633 74.6496 77.9633 74.3366H77.6961C77.6508 74.3366 77.6041 74.3377 77.5537 74.341C77.503 74.3446 77.4511 74.3476 77.3945 74.353C77.3993 74.319 77.4029 74.2876 77.4062 74.2569C77.4095 74.2265 77.4102 74.194 77.4102 74.1611C77.4102 74.1326 77.4095 74.1033 77.4062 74.077C77.4029 74.0485 77.3989 74.0203 77.3945 73.9925C77.6457 74.0097 77.8286 74.017 77.9469 74.017C77.9407 73.9062 77.9367 73.7665 77.9349 73.598C77.9319 73.4309 77.9243 73.2568 77.9133 73.078L78.6073 72.7852H78.6508Z" fill="black"/>
<path d="M81.617 74.2348C81.4746 74.3306 81.3567 74.4476 81.2654 74.5917C81.1734 74.7328 81.1037 74.8897 81.0569 75.0605C81.0091 75.2312 80.9799 75.391 80.969 75.5435C81.142 75.5486 81.3224 75.553 81.5078 75.5592C81.6958 75.5658 81.8784 75.5676 82.0573 75.5676C82.2405 75.5676 82.4289 75.5654 82.6177 75.5592C82.8079 75.553 82.9915 75.5486 83.1704 75.5435C83.1704 75.391 83.1584 75.232 83.1324 75.0634C83.1087 74.8974 83.0576 74.7405 82.9817 74.5961C82.9072 74.4502 82.8024 74.3306 82.6688 74.2352C82.5337 74.1405 82.3585 74.0922 82.1412 74.0922C81.9339 74.0922 81.759 74.1401 81.617 74.2348ZM80.6962 74.4107C81.0226 74.0195 81.4987 73.8242 82.1237 73.8242C82.4187 73.8242 82.6746 73.8707 82.8893 73.9621C83.1043 74.0549 83.2843 74.1778 83.4296 74.3317C83.5742 74.4842 83.6812 74.6656 83.752 74.8722C83.821 75.0795 83.8557 75.2996 83.8557 75.5351C83.8557 75.5896 83.8546 75.6437 83.8513 75.6971C83.8491 75.7508 83.8444 75.8053 83.8392 75.8612C83.5384 75.8547 83.2391 75.8499 82.9437 75.8437C82.648 75.8378 82.3493 75.836 82.0485 75.836C81.8634 75.836 81.6805 75.8382 81.5005 75.8437C81.3187 75.8499 81.1358 75.8547 80.9507 75.8612C80.946 75.8883 80.943 75.9307 80.943 75.9867V76.0963C80.943 76.3143 80.9755 76.5187 81.0394 76.7081C81.1037 76.8986 81.1964 77.0616 81.3205 77.1988C81.4425 77.3352 81.5936 77.4441 81.7718 77.5257C81.9503 77.6068 82.1577 77.6474 82.3913 77.6474C82.503 77.6474 82.6173 77.6317 82.7349 77.6017C82.8524 77.5703 82.9656 77.5286 83.0773 77.4756C83.1898 77.4225 83.2935 77.3589 83.3906 77.2862C83.4895 77.2134 83.5738 77.1355 83.6461 77.051L83.6881 77.077L83.6385 77.4876C83.4702 77.6218 83.2628 77.7366 83.0142 77.831C82.7663 77.9257 82.5074 77.9732 82.2395 77.9732C81.9394 77.9732 81.6641 77.9279 81.4151 77.8354C81.1668 77.7425 80.9522 77.6079 80.7704 77.4328C80.5889 77.2573 80.4502 77.0485 80.352 76.8083C80.2552 76.5673 80.207 76.3084 80.207 76.0283C80.2074 75.3413 80.3702 74.8027 80.6962 74.4107Z" fill="black"/>
<path d="M85.1594 77.2957C85.2179 77.3633 85.2869 77.4258 85.3686 77.4851C85.4493 77.5432 85.5417 77.5937 85.6446 77.6317C85.7487 77.6712 85.8589 77.6902 85.9754 77.6902C86.0813 77.6902 86.1842 77.6734 86.281 77.6397C86.3785 77.6068 86.4654 77.5589 86.5406 77.4975C86.6165 77.4361 86.6756 77.3575 86.7205 77.2624C86.7651 77.1677 86.7885 77.058 86.7885 76.9351C86.7885 76.7615 86.7388 76.6295 86.6406 76.5369C86.5438 76.4444 86.4219 76.3687 86.2777 76.3106C86.1317 76.2521 85.9728 76.1998 85.7987 76.1552C85.6267 76.1106 85.4672 76.0484 85.3223 75.9673C85.1773 75.8861 85.0561 75.7775 84.9583 75.644C84.8604 75.5106 84.8122 75.3241 84.8122 75.0901C84.8122 74.9058 84.8426 74.7372 84.9046 74.5822C84.9656 74.4297 85.0558 74.2963 85.1726 74.1844C85.2883 74.0729 85.434 73.9844 85.6074 73.9207C85.7801 73.856 85.978 73.8242 86.2018 73.8242C86.4073 73.8242 86.5829 73.8516 86.7246 73.9072C86.8669 73.9632 87.0024 74.014 87.1309 74.0579C87.086 74.142 87.0447 74.2465 87.0046 74.3687C86.9662 74.4919 86.9407 74.587 86.9297 74.6542H86.8293C86.7852 74.52 86.699 74.399 86.5698 74.2941C86.4416 74.1866 86.2824 74.135 86.0922 74.135C86.009 74.135 85.9254 74.1485 85.8411 74.1767C85.7575 74.2045 85.6819 74.2462 85.6147 74.3014C85.5483 74.357 85.4924 74.4305 85.4471 74.52C85.4022 74.6089 85.3803 74.7153 85.3803 74.8382C85.3803 75.0184 85.4303 75.1552 85.5264 75.2532C85.6246 75.3523 85.7461 75.4287 85.8911 75.4839C86.036 75.5406 86.1956 75.5877 86.369 75.6309C86.5424 75.6722 86.7005 75.7311 86.8458 75.806C86.9903 75.8835 87.1123 75.9866 87.2105 76.1216C87.3076 76.255 87.3562 76.4393 87.3562 76.6744C87.3562 76.8357 87.3211 76.9962 87.2506 77.1531C87.1824 77.3096 87.0809 77.4503 86.9509 77.5754C86.8187 77.7008 86.6614 77.7988 86.477 77.8694C86.2938 77.9396 86.0838 77.9736 85.8498 77.9736C85.5928 77.9736 85.3778 77.9487 85.2047 77.8979C85.0317 77.8489 84.8864 77.7893 84.7695 77.722C84.8031 77.6507 84.8378 77.5502 84.8743 77.4251C84.9108 77.299 84.9283 77.1947 84.9283 77.1106H85.0287C85.0576 77.1684 85.101 77.2295 85.1594 77.2957Z" fill="black"/>
<path d="M58.0901 55.1821C57.9171 55.2658 57.7094 55.1971 57.6254 55.0252C57.5414 54.8534 57.6119 54.6457 57.7791 54.5594C57.9547 54.4756 58.1621 54.5451 58.2409 54.717C58.3274 54.8896 58.2595 55.0958 58.0901 55.1821ZM58.0963 53.7806C58.1387 53.5754 58.3837 53.3652 58.568 53.3103L58.5005 53.3176L54.321 44.9217L54.9767 42.956L54.079 42.6543L53.2933 45.0124L57.3238 53.0972C57.3238 53.0972 57.4903 53.4244 57.2636 53.5356C57.0361 53.6496 56.8821 53.3184 56.8821 53.3184L52.8505 45.231L50.4979 44.4438L50.1992 45.3436L52.1637 46L56.341 54.3959L56.3166 54.4318C56.4969 54.3181 56.7667 54.2581 56.9277 54.3641C56.6313 54.7612 56.6919 55.1982 56.7744 55.3623C57.4147 56.648 59.6706 55.5422 59.0244 54.2387C58.9455 54.0756 58.729 53.7853 58.0963 53.7806Z" fill="#AF8B18"/>
<path d="M33.0151 54.7832L33.0279 54.7484C33.1429 54.5195 33.2503 54.1872 33.2722 54.1513C39.1274 56.1894 44.6007 56.5832 50.0357 55.317C50.0357 55.317 51.817 54.7276 52.6388 55.2772C46.7744 57.5456 39.801 57.1573 33.0151 54.7832ZM55.3294 54.5572C55.2199 54.3243 55.1743 54.2245 55.0483 53.9524C55.0483 53.9524 54.9472 53.721 54.8282 53.4676C54.8639 53.4175 54.8924 53.3747 54.9216 53.3188C55.2922 52.601 54.0746 51.0682 54.2933 51.5673C54.4872 51.9969 54.8475 52.7407 54.0097 53.08C53.0882 53.4928 53.6095 53.9572 53.7406 54.0087C53.7921 54.0274 53.8987 54.0658 54.0436 54.0592C54.2784 54.2804 54.5193 54.8552 54.9081 55.6973C55.098 56.1035 54.2141 56.7573 53.7446 55.7331C53.7391 55.7251 53.7344 55.7207 53.726 55.7101C53.734 55.7079 53.7391 55.705 53.7479 55.7039C53.2244 53.3341 49.9043 54.5671 49.9043 54.5671C44.9377 55.7251 39.5209 55.4603 34.0622 53.5707L33.5814 53.6698C33.5814 53.6698 33.8326 53.3604 33.9311 53.114C34.5671 52.6577 34.4821 50.8638 34.3758 51.3775C34.2809 51.8408 34.1345 52.654 33.2539 52.4335C32.2689 52.2258 32.4179 52.9107 32.496 53.0295C32.5223 53.0712 32.5858 53.1579 32.6906 53.2325C32.7833 53.4727 32.5223 53.9305 32.0528 54.8815C31.6965 55.5989 30.8571 55.2698 31.0619 54.4607L31.093 54.3824L31.1182 54.3894L31.1003 54.3678L31.2361 54.0661H31.2313L35.271 45.9601L37.237 45.3034L36.9318 44.4043L34.5781 45.1912L30.5486 53.2771L30.2365 54.1221C30.2219 54.1429 30.2113 54.1627 30.204 54.1879C30.1898 54.2168 30.1584 54.2775 30.1584 54.2775L30.1642 54.2808C30.005 54.7133 30.0397 55.2464 30.2193 55.547C30.848 56.5873 32.2207 56.6684 32.8038 55.5338C32.8103 55.5243 32.8158 55.5357 32.8651 55.5525C39.8612 57.9445 46.3301 58.4287 52.8312 56.0392L52.8498 56.0198C52.8498 56.0198 52.8852 56.0092 52.9432 55.9905L53.1495 56.5127C53.3686 56.9474 53.8432 57.3014 54.2141 57.3317C55.3959 57.422 56.2082 56.4736 55.6817 55.3411L55.3294 54.5572Z" fill="#AF8B18"/>
<path d="M54.2367 52.2357C54.2367 51.8807 53.9534 51.5977 53.6044 51.5977C53.2495 51.5977 52.9688 51.8807 52.9688 52.2357C52.9688 52.5864 53.2499 52.8705 53.6044 52.8705C53.953 52.8708 54.2367 52.5864 54.2367 52.2357Z" fill="#AF8B18"/>
<path d="M25.4684 53.0895C25.2227 53.0277 24.9803 53.1202 24.8295 53.3012C24.8463 53.2632 24.8726 53.2285 24.8854 53.1857C24.9693 52.8445 24.7612 52.499 24.4224 52.4134C24.0782 52.329 23.7306 52.5352 23.6492 52.8774C23.5605 53.2186 23.7715 53.5645 24.1143 53.6508C24.3571 53.71 24.5995 53.6182 24.7514 53.4369C24.7313 53.476 24.7054 53.5107 24.6944 53.5532C24.6119 53.8943 24.8174 54.2391 25.1577 54.3254C25.5013 54.4099 25.8452 54.2055 25.931 53.8621C26.0157 53.5192 25.8072 53.1747 25.4684 53.0895Z" fill="#AF8B18"/>
<path d="M27.289 52.3696C27.7939 51.6324 27.6326 51.0726 27.6326 51.0726C27.2226 49.6331 26.6998 48.014 26.1569 46.1199L26.0134 45.6541C25.8754 45.1217 26.5512 44.9535 26.6757 45.3674C26.8374 45.9159 27.0565 46.5675 27.2171 47.0468C27.5143 47.9412 27.4445 48.9084 28.2466 49.0842C29.0476 49.2597 29.1079 48.2272 29.1079 48.2272C29.7519 48.5354 30.2564 48.7482 30.8351 48.6974C31.8719 48.61 33.1318 47.3529 33.1318 47.3529C32.1147 48.0385 30.4098 47.9328 29.4229 47.554C29.4229 47.554 29.4153 47.5511 29.4134 47.5489C29.4061 47.5467 29.3956 47.543 29.389 47.5394C29.3718 47.535 29.3459 47.5258 29.3225 47.5138C29.3225 47.5138 29.3171 47.5138 29.313 47.5105C29.106 47.4246 28.6395 47.1803 28.2466 46.6066C27.9506 46.1821 27.7125 45.7517 27.4968 44.9513C27.0831 43.503 24.7276 44.2146 25.2128 45.9623C25.4676 46.8896 26.4891 50.2207 26.806 51.3088C26.806 51.3088 26.725 52.4416 25.4483 51.7622C24.6637 51.3472 24.7502 50.639 24.8043 50.2148C24.8638 49.7896 25.4673 49.2422 25.4673 49.2422C25.4673 49.2422 24.8671 48.9566 24.4348 50.1662C24.1752 50.8836 23.0369 51.1125 22.5312 51.1808C22.9664 51.1582 23.912 51.2386 24.6674 52.1707C25.4198 53.0541 26.7852 53.1034 27.289 52.3696Z" fill="#AF8B18"/>
<path d="M22.5329 51.1816C22.3796 51.1882 22.2891 51.2065 22.2891 51.2065C22.2891 51.2065 22.3822 51.2007 22.5329 51.1816Z" fill="#AF8B18"/>
<path d="M30.2837 49.4678C30.1902 49.9293 30.0471 50.7418 29.1654 50.5249C28.18 50.3176 28.3294 50.9999 28.4053 51.1187C28.4458 51.1798 28.5612 51.3422 28.7945 51.4178C29.149 51.8946 29.1654 52.7137 28.5714 53.2556C27.8694 53.9053 26.8986 53.113 26.7383 52.8903C26.7307 53.2622 27.5485 54.6052 28.7978 54.1938C29.6389 53.9108 30.2373 52.3649 29.969 51.0836C30.4666 50.4964 30.3859 48.9943 30.2837 49.4678Z" fill="#AF8B18"/>
<path d="M56.9022 46.7716C57.648 47.0831 59.0719 45.7398 58.5932 46.0019C58.1818 46.2312 57.471 46.6502 57.0643 45.8418C56.5882 44.9752 56.1771 45.4911 56.122 45.6407C55.8427 45.3522 55.5006 45.0121 55.0234 44.9551C55.7463 46.4221 58.3468 51.929 58.9828 53.2008C59.2405 53.0754 59.4957 52.9474 59.7538 52.8242C59.0635 51.4197 57.6353 48.3691 56.8463 46.7449C56.8689 46.7519 56.8832 46.7628 56.9022 46.7716Z" fill="#AF8B18"/>
<path d="M17.7621 43.4293C17.596 43.5145 17.3901 43.4487 17.3014 43.2747C17.212 43.1039 17.2883 42.8977 17.4573 42.811C17.63 42.7273 17.8355 42.7953 17.9195 42.9679C18.006 43.1405 17.9366 43.3441 17.7621 43.4293ZM27.5482 39.5016L29.5076 40.1586L29.8063 39.2595L27.4555 38.473L19.3827 42.5064C19.3827 42.5064 19.056 42.6713 18.9457 42.4494C18.8326 42.2234 19.1633 42.0629 19.1633 42.0629L27.2346 38.0287L28.025 35.6725L27.1247 35.373L26.469 37.3384L18.0856 41.5258L18.0487 41.4987C18.1619 41.6797 18.2258 41.951 18.1159 42.1123C17.722 41.8124 17.2853 41.8786 17.1251 41.958C15.8363 42.6 16.9403 44.8612 18.2397 44.214C18.4061 44.1328 18.696 43.9178 18.7 43.282C18.9063 43.3262 19.1137 43.5705 19.1699 43.75L19.1662 43.6893L27.5482 39.5016Z" fill="#AF8B18"/>
<path d="M17.6991 18.1648L17.7338 18.1776C17.9634 18.2931 18.2964 18.3977 18.3307 18.4196C16.3001 24.2879 15.9032 29.7689 17.1646 35.209C17.1646 35.209 17.7557 36.9963 17.2066 37.815C14.9398 31.9445 15.3297 24.9603 17.6991 18.1648ZM17.9284 40.5091C18.1569 40.4027 18.261 40.3555 18.5286 40.2319C18.5286 40.2319 18.76 40.1302 19.0123 40.0121C19.062 40.0447 19.1069 40.0743 19.1678 40.1036C19.8801 40.474 21.408 39.2538 20.91 39.4765C20.4821 39.6706 19.7414 40.0301 19.3997 39.1905C18.9867 38.2665 18.5282 38.7898 18.4764 38.9225C18.457 38.9701 18.4161 39.0808 18.4223 39.2234C18.2044 39.46 17.6305 39.7017 16.7882 40.09C16.3811 40.2798 15.7324 39.3953 16.7535 38.9225C16.7616 38.917 16.7663 38.9108 16.7747 38.9079C16.7773 38.913 16.7787 38.9192 16.7842 38.9247C19.1459 38.4026 17.9181 35.0777 17.9181 35.0777C16.7601 30.1035 17.0215 24.678 18.9101 19.2123L18.8093 18.7297C18.8093 18.7297 19.1204 18.9805 19.3664 19.0771C19.8206 19.7191 21.6132 19.6336 21.1002 19.525C20.6398 19.4295 19.8235 19.2833 20.044 18.4046C20.2514 17.4145 19.5687 17.568 19.45 17.6437C19.4062 17.6704 19.3212 17.7318 19.2463 17.8397C19.005 17.9348 18.5486 17.6741 17.6027 17.2009C16.8875 16.8437 17.2106 15.9998 18.0196 16.206L18.0992 16.2396L18.0916 16.2623L18.1135 16.2444L18.4179 16.3797L26.5104 20.4215L27.1705 22.3873L28.0635 22.09L27.2793 19.7308L19.2032 15.6974L18.3592 15.3785V15.3796C18.3373 15.3701 18.3205 15.357 18.2967 15.3493C18.2672 15.3325 18.2062 15.3018 18.2062 15.3018C18.2062 15.3047 18.2047 15.3058 18.2047 15.3058C17.7714 15.1486 17.2413 15.1811 16.9364 15.3639C15.8985 15.9939 15.8182 17.3666 16.9532 17.9516C16.9631 17.9542 16.9532 17.9611 16.9335 18.0105C14.5466 25.0199 14.0618 31.4988 16.4501 38.0113L16.468 38.0252C16.468 38.0252 16.4757 38.0629 16.4929 38.1221L15.9766 38.3276C15.54 38.5477 15.187 39.0212 15.1559 39.3975C15.0665 40.5756 16.0128 41.3925 17.1453 40.8674L17.9284 40.5091Z" fill="#AF8B18"/>
<path d="M20.2402 38.1445C19.8905 38.1445 19.6094 38.4283 19.6094 38.7811C19.6094 39.1321 19.8909 39.4184 20.2402 39.4184C20.5951 39.4184 20.8813 39.1321 20.8813 38.7811C20.8817 38.4286 20.5951 38.1445 20.2402 38.1445Z" fill="#AF8B18"/>
<path d="M18.6222 11.0678C18.9596 11.1534 19.3049 10.9431 19.3904 10.6031C19.4528 10.3588 19.3557 10.1186 19.1801 9.965C19.2177 9.98365 19.2535 10.0089 19.2955 10.0206C19.6386 10.1043 19.9822 9.89736 20.0665 9.55584C20.149 9.21579 19.9387 8.86989 19.605 8.78433C19.2626 8.70023 18.9161 8.90755 18.8318 9.2487C18.7679 9.49149 18.8621 9.73538 19.0454 9.88895C19.0045 9.8692 18.9734 9.84251 18.9304 9.83337C18.5846 9.74708 18.2404 9.9544 18.156 10.2955C18.0702 10.6371 18.2783 10.9833 18.6222 11.0678Z" fill="#AF8B18"/>
<path d="M19.5878 11.8791C19.2194 11.8655 17.8763 12.6864 18.2888 13.9347C18.5696 14.7808 20.1139 15.3772 21.395 15.111C21.9773 15.6087 23.4788 15.5282 23.0068 15.4273C22.5457 15.3315 21.7359 15.1863 21.9502 14.3073C22.1598 13.3175 21.4738 13.4715 21.3577 13.5457C21.2953 13.5859 21.1332 13.7015 21.0613 13.9329C20.5834 14.2927 19.7645 14.3073 19.2264 13.7164C18.5729 13.0064 19.3658 12.0403 19.5878 11.8791Z" fill="#AF8B18"/>
<path d="M21.2937 7.6654C21.2872 7.51438 21.2656 7.42188 21.2656 7.42188C21.2656 7.42188 21.2704 7.51767 21.2937 7.6654Z" fill="#AF8B18"/>
<path d="M20.1078 12.4303C20.8468 12.9341 21.4028 12.7718 21.4028 12.7718C22.8412 12.3619 24.4567 11.8375 26.3493 11.2997L26.8115 11.1501C27.3413 11.0141 27.515 11.6887 27.1025 11.8127C26.5508 11.978 25.9021 12.1941 25.426 12.359C24.5297 12.6555 23.5626 12.5842 23.3903 13.389C23.2162 14.1919 24.2453 14.2526 24.2453 14.2526C23.9372 14.8951 23.7273 15.4052 23.7744 15.9811C23.8594 17.0217 25.1194 18.2813 25.1194 18.2813C24.4209 17.2447 24.5422 15.4951 24.9339 14.5155C24.9405 14.5082 24.9405 14.4984 24.9463 14.4903C24.9532 14.4724 24.9591 14.46 24.9667 14.4413C25.0569 14.2278 25.2993 13.7762 25.8638 13.389C26.2854 13.0928 26.7151 12.8526 27.515 12.6369C28.96 12.2248 28.2514 9.86233 26.5059 10.3494C25.5837 10.6024 22.2538 11.6262 21.1691 11.9465C21.1691 11.9465 20.0345 11.8653 20.7172 10.5874C21.1294 9.80346 21.8336 9.88756 22.26 9.94167C22.6872 9.99762 23.2282 10.6024 23.2282 10.6024C23.2282 10.6024 23.5174 10.0027 22.3067 9.57127C21.5923 9.31349 21.3626 8.17085 21.2955 7.66406C21.3141 8.1032 21.2385 9.04657 20.3057 9.80894C19.4248 10.5538 19.374 11.9271 20.1078 12.4303Z" fill="#AF8B18"/>
<path d="M29.1915 2.42469C29.3584 2.34096 29.5679 2.40897 29.6505 2.58046C29.7388 2.75048 29.6662 2.96073 29.4978 3.04556C29.3248 3.12929 29.1185 3.05982 29.0305 2.88906C28.9488 2.71721 29.0156 2.50989 29.1915 2.42469ZM29.182 3.82365C29.1375 4.03061 28.8962 4.23793 28.7133 4.29461L28.7728 4.29022L32.9559 12.6862L32.3032 14.6523L33.1969 14.9517L33.9855 12.5926L29.9568 4.50887C29.9568 4.50887 29.7899 4.18126 30.0122 4.06937C30.2412 3.95821 30.3981 4.28766 30.3981 4.28766L34.429 12.3754L36.7798 13.1626L37.081 12.2628L35.119 11.605L30.9366 3.20864L30.9658 3.1739C30.7818 3.28615 30.5117 3.34758 30.3485 3.24228C30.6486 2.84665 30.5836 2.40897 30.5066 2.24552C29.8633 0.95662 27.6063 2.06343 28.2514 3.3655C28.3365 3.52967 28.5453 3.82073 29.182 3.82365Z" fill="#AF8B18"/>
<path d="M54.263 2.82274L54.2481 2.85638C54.1378 3.08527 54.0308 3.42057 54.0075 3.45384C48.1457 1.41793 42.6804 1.02193 37.2457 2.28889C37.2457 2.28889 35.4608 2.87795 34.6431 2.32985C40.5016 0.0591832 47.4801 0.447865 54.263 2.82274ZM31.9476 3.05017C32.0583 3.28162 32.1035 3.38218 32.2284 3.65276C32.2284 3.65276 32.3277 3.88384 32.4489 4.1398C32.4182 4.18952 32.385 4.23121 32.354 4.28788C31.9874 5.00857 33.2032 6.53624 32.9837 6.04006C32.7877 5.60823 32.4288 4.86707 33.2681 4.52702C34.1889 4.11493 33.6697 3.64873 33.5354 3.60083C33.4861 3.58109 33.3788 3.54123 33.2386 3.54672C33.0013 3.32879 32.7596 2.75144 32.3722 1.91009C32.1798 1.50276 33.0663 0.849711 33.5354 1.87279C33.5438 1.88376 33.5485 1.88815 33.5511 1.89582C33.546 1.89985 33.5387 1.89985 33.5314 1.90533C34.0538 4.27253 37.3732 3.0403 37.3732 3.0403C42.3412 1.88303 47.7572 2.14483 53.2127 4.03815L53.7026 3.93613C53.7026 3.93613 53.4482 4.2473 53.3481 4.49338C52.7132 4.9519 52.7928 6.74174 52.9035 6.22727C53.0002 5.76436 53.1448 4.95409 54.0213 5.17092C55.0082 5.3797 54.8567 4.69668 54.7814 4.57711C54.7555 4.53652 54.6949 4.44804 54.5858 4.37271C54.4908 4.13358 54.7555 3.67469 55.2221 2.72584C55.5795 2.00808 56.4225 2.33168 56.2155 3.14487L56.1826 3.22349L56.1604 3.21581L56.1757 3.23702L56.0432 3.54306L52.0075 11.6472L50.0478 12.305L50.346 13.2031L52.695 12.4158L56.7273 4.32993L57.0457 3.48456C57.0537 3.46481 57.0647 3.44397 57.072 3.42094C57.091 3.38876 57.1205 3.32952 57.1205 3.32952L57.114 3.32514C57.2731 2.89477 57.2414 2.35946 57.0566 2.05927C56.4291 1.01791 55.0585 0.939294 54.4766 2.07499C54.4686 2.08413 54.4646 2.0706 54.4153 2.05671C47.417 -0.338274 40.9481 -0.821659 34.4452 1.56967L34.4317 1.58759C34.4317 1.58759 34.3937 1.59709 34.3331 1.61501L34.1297 1.09762C33.9107 0.658112 33.4375 0.305263 33.0626 0.276011C31.8874 0.184965 31.0718 1.13418 31.5953 2.26915L31.9476 3.05017Z" fill="#AF8B18"/>
<path d="M33.043 5.37243C33.043 5.72308 33.3248 6.01121 33.6757 6.01121C34.0265 6.01121 34.3171 5.72308 34.3171 5.37243C34.3171 5.01921 34.0269 4.73438 33.676 4.73438C33.3252 4.73438 33.043 5.01921 33.043 5.37243Z" fill="#AF8B18"/>
<path d="M61.8082 4.51681C62.0521 4.57751 62.2953 4.48427 62.4471 4.30547C62.43 4.3435 62.4041 4.38043 62.3916 4.42211C62.3077 4.76326 62.514 5.10916 62.8579 5.19326C63.1967 5.27845 63.5417 5.07113 63.6264 4.73072C63.7143 4.38774 63.5077 4.0433 63.1634 3.95701C62.9203 3.89594 62.6753 3.98845 62.5256 4.17018C62.5428 4.12996 62.568 4.09742 62.5789 4.05354C62.6662 3.71202 62.4577 3.36576 62.1153 3.28166C61.7801 3.19427 61.4333 3.40232 61.3482 3.7453C61.2603 4.08791 61.4694 4.43308 61.8082 4.51681Z" fill="#AF8B18"/>
<path d="M64.7422 6.4255C64.8984 6.41635 64.9861 6.39844 64.9861 6.39844C64.9861 6.39844 64.8904 6.40392 64.7422 6.4255Z" fill="#AF8B18"/>
<path d="M59.9844 5.23811C59.4784 5.97196 59.6427 6.53067 59.6427 6.53067C60.0552 7.97314 60.5744 9.59003 61.114 11.4863L61.2622 11.9517C61.3984 12.4841 60.7277 12.6523 60.5999 12.2377C60.4386 11.6896 60.2173 11.038 60.0552 10.5601C59.7603 9.66316 59.8322 8.69639 59.0275 8.52125C58.2287 8.34574 58.1648 9.3754 58.1648 9.3754C57.5252 9.07045 57.0145 8.85618 56.4387 8.90737C55.4001 8.99586 54.1445 10.2522 54.1445 10.2522C55.1609 9.56663 56.8571 9.67413 57.8527 10.0526C57.8527 10.0526 57.8582 10.0544 57.8622 10.057C57.8709 10.0599 57.8819 10.0621 57.8845 10.0635C57.9042 10.0705 57.9286 10.0804 57.9604 10.0895C57.9604 10.0921 57.9604 10.0928 57.9648 10.0957C58.1703 10.182 58.6329 10.4255 59.0275 10.9981C59.3222 11.4227 59.5609 11.8512 59.7789 12.6552C60.191 14.1014 62.5506 13.3906 62.0636 11.6428C61.8065 10.7195 60.7891 7.38409 60.4714 6.29775C60.4714 6.29775 60.5499 5.16352 61.8237 5.84362C62.6105 6.2579 62.5254 6.96652 62.4692 7.3914C62.4126 7.81848 61.8069 8.36292 61.8069 8.36292C61.8069 8.36292 62.406 8.64996 62.8416 7.4404C63.0978 6.72263 64.2402 6.49337 64.7411 6.42573C64.3055 6.44511 63.3636 6.3654 62.6032 5.4341C61.8562 4.55069 60.4868 4.50023 59.9844 5.23811Z" fill="#AF8B18"/>
<path d="M56.9923 8.13596C57.0912 7.67451 57.2303 6.86314 58.1113 7.08143C59.0988 7.28766 58.9466 6.605 58.8754 6.48653C58.8349 6.42473 58.7144 6.26239 58.4866 6.18816C58.1291 5.71063 58.1116 4.88902 58.6998 4.35006C59.4088 3.69665 60.3759 4.49229 60.5365 4.71424C60.5504 4.34238 59.7293 2.99863 58.4818 3.41217C57.6385 3.69299 57.0452 5.23784 57.3103 6.52053C56.8123 7.10776 56.8933 8.61386 56.9923 8.13596Z" fill="#AF8B18"/>
<path d="M30.3722 10.8324C29.627 10.5245 28.2083 11.8668 28.6811 11.6042C29.094 11.3753 29.8016 10.9552 30.2101 11.764C30.6909 12.6306 31.0969 12.1129 31.1557 11.9651C31.4309 12.2569 31.7748 12.5959 32.2564 12.6529C31.531 11.1826 28.9308 5.67748 28.2949 4.4043C28.0382 4.53227 27.7801 4.65952 27.5234 4.78311C28.2109 6.18755 29.6384 9.23668 30.428 10.8609C30.4094 10.8503 30.3955 10.8426 30.3722 10.8324Z" fill="#AF8B18"/>
<path d="M69.514 14.1737C69.6866 14.0889 69.89 14.1562 69.9791 14.3306C70.0641 14.5014 69.9926 14.7076 69.8195 14.7939C69.6516 14.8769 69.4428 14.8089 69.3592 14.6378C69.2734 14.4641 69.3431 14.2582 69.514 14.1737ZM59.7315 18.1037L57.7696 17.4459L57.4688 18.345L59.8221 19.1326L67.8974 15.0992C67.8974 15.0992 68.2234 14.9332 68.3347 15.1548C68.4468 15.3811 68.1157 15.5427 68.1157 15.5427L60.0426 19.5762L59.2566 21.9324L60.1558 22.2322L60.8104 20.2636L69.1916 16.0773L69.2292 16.1055C69.1153 15.9234 69.0558 15.6546 69.1653 15.4912C69.5574 15.7895 69.993 15.727 70.1576 15.6458C71.446 15.0038 70.3361 12.7455 69.0364 13.3898C68.8732 13.4724 68.5834 13.686 68.5808 14.3226C68.3742 14.2809 68.1635 14.0355 68.1098 13.8531L68.1164 13.9141L59.7315 18.1037Z" fill="#AF8B18"/>
<path d="M69.5763 39.4417L69.5463 39.4282C69.3142 39.3145 68.9819 39.2099 68.9454 39.1872C70.9819 33.3204 71.3776 27.8368 70.1108 22.3997C70.1108 22.3997 69.5244 20.6117 70.0713 19.7923C72.3403 25.6624 71.9504 32.6466 69.5763 39.4417ZM70.3254 39.6545C70.317 39.6513 70.3269 39.6454 70.3473 39.5935C72.7357 32.5866 73.2169 26.1084 70.8311 19.5959L70.8132 19.5813C70.8132 19.5813 70.803 19.5411 70.7847 19.4837L71.3039 19.2774C71.7398 19.0595 72.0939 18.586 72.1198 18.2097C72.2133 17.0298 71.2641 16.2155 70.1341 16.7409L69.3514 17.0982C69.1203 17.2035 69.021 17.2525 68.7505 17.3772C68.7505 17.3772 68.5201 17.4777 68.2638 17.594C68.2193 17.5636 68.17 17.534 68.1149 17.5037C67.3975 17.1311 65.8736 18.3513 66.3646 18.1311C66.7995 17.937 67.5366 17.5764 67.8768 18.4174C68.2905 19.3403 68.7519 18.8164 68.8067 18.684C68.8239 18.635 68.864 18.5257 68.8563 18.3834C69.0765 18.1461 69.6511 17.9063 70.489 17.5176C70.8975 17.3271 71.5496 18.2116 70.5303 18.6833C70.5189 18.688 70.5142 18.695 70.5062 18.6982C70.5036 18.6942 70.5036 18.6862 70.4963 18.6785C68.132 19.2021 69.3623 22.5269 69.3623 22.5269C70.5193 27.5045 70.2568 32.9292 68.3671 38.3945L68.4686 38.8786C68.4686 38.8786 68.1583 38.6282 67.9111 38.528C67.4541 37.8881 65.6677 37.9744 66.1832 38.0815C66.6407 38.1773 67.4519 38.3214 67.2365 39.2015C67.0287 40.1902 67.7103 40.0385 67.8286 39.9617C67.8699 39.9346 67.9568 39.8743 68.0331 39.7679C68.2708 39.6743 68.7333 39.9335 69.6778 40.4048C70.3933 40.7628 70.0673 41.6071 69.2587 41.4012L69.1794 41.365L69.186 41.3427L69.1663 41.3599L68.8618 41.2261V41.2272L60.769 37.1846L60.1093 35.2171L59.2148 35.5173L60.002 37.8735L68.0747 41.9088L68.9206 42.2283V42.2261C68.9407 42.2364 68.9597 42.2488 68.9801 42.2576C69.0148 42.2729 69.0736 42.304 69.0736 42.304C69.0736 42.2996 69.0769 42.2993 69.0769 42.2993C69.5091 42.4583 70.0414 42.4269 70.343 42.2415C71.3813 41.6115 71.4619 40.2399 70.3254 39.6545Z" fill="#AF8B18"/>
<path d="M67.0304 19.4632C67.3875 19.4632 67.6719 19.1791 67.6719 18.8234C67.6719 18.4734 67.3875 18.1875 67.0304 18.1875C66.6825 18.1875 66.3984 18.4734 66.3984 18.8234C66.3984 19.1791 66.6825 19.4632 67.0304 19.4632Z" fill="#AF8B18"/>
<path d="M68.657 46.5362C68.3164 46.4521 67.9703 46.6605 67.8859 47.0006C67.8242 47.2437 67.9181 47.4884 68.0984 47.6397C68.0612 47.6185 68.0247 47.5955 67.9812 47.5842C67.6406 47.4997 67.2967 47.7074 67.2098 48.0485C67.1262 48.3908 67.3354 48.7349 67.6775 48.8211C68.0185 48.9063 68.3598 48.6997 68.446 48.356C68.5051 48.1125 68.4124 47.8701 68.2353 47.7191C68.2715 47.7359 68.3069 47.7644 68.3496 47.7725C68.6902 47.8588 69.0341 47.6496 69.1196 47.3103C69.2039 46.968 68.9987 46.6207 68.657 46.5362Z" fill="#AF8B18"/>
<path d="M67.6911 45.7268C68.0617 45.7389 69.403 44.9191 68.9915 43.6726C68.7111 42.825 67.1668 42.2283 65.8821 42.493C65.2965 41.9972 63.7986 42.0795 64.2761 42.1782C64.7317 42.2762 65.5407 42.4184 65.3272 43.2978C65.1194 44.2876 65.8018 44.1359 65.9219 44.0598C65.984 44.02 66.1442 43.9048 66.2183 43.6726C66.6948 43.315 67.5144 43.2978 68.0533 43.8894C68.7027 44.5984 67.9087 45.5674 67.6911 45.7268Z" fill="#AF8B18"/>
<path d="M65.9844 49.9395C65.9902 50.0908 66.0103 50.1855 66.0103 50.1855C66.0103 50.1855 66.0026 50.0897 65.9844 49.9395Z" fill="#AF8B18"/>
<path d="M67.168 45.1754C66.436 44.6708 65.8764 44.8332 65.8764 44.8332C64.4383 45.2434 62.8224 45.7678 60.9335 46.3078L60.4698 46.4552C59.9332 46.593 59.7656 45.9144 60.1822 45.7919C60.729 45.6288 61.3745 45.4113 61.8477 45.2489H61.855C62.7469 44.9502 63.7187 45.0215 63.891 44.2185C64.0641 43.4141 63.0346 43.3541 63.0346 43.3541C63.3427 42.7106 63.5573 42.2002 63.5077 41.6275C63.4164 40.5847 62.1656 39.3262 62.1656 39.3262C62.8608 40.3599 62.7377 42.1106 62.3424 43.0898C62.3405 43.0978 62.3394 43.1055 62.334 43.1161C62.3263 43.1326 62.3212 43.1464 62.3139 43.1644C62.2252 43.3801 61.9736 43.8295 61.4139 44.2185C60.9926 44.5129 60.564 44.752 59.7619 44.9681C58.3202 45.3816 59.0289 47.7444 60.7725 47.2589C61.6932 47.0022 65.025 45.9787 66.1067 45.661C66.1067 45.661 67.2403 45.7411 66.566 47.019C66.1491 47.8055 65.4415 47.7203 65.0191 47.6633C64.5935 47.6066 64.0502 47.0022 64.0502 47.0022C64.0502 47.0022 63.7625 47.6011 64.9702 48.0359C65.6854 48.2929 65.9151 49.4341 65.9852 49.9398C65.9629 49.5017 66.0436 48.5598 66.9767 47.7986C67.8573 47.0494 67.904 45.6785 67.168 45.1754Z" fill="#AF8B18"/>
<path d="M61.5808 15.5187C61.8926 14.7706 60.5513 13.3489 60.8127 13.8268C61.0376 14.2385 61.4625 14.9475 60.6513 15.3567C59.7919 15.8346 60.3016 16.2441 60.4509 16.2982C60.1636 16.5809 59.8215 16.9246 59.7656 17.4021C61.2278 16.6785 66.7278 14.0718 68.0016 13.4352C67.873 13.1782 67.7478 12.9226 67.6233 12.6641C66.2192 13.3529 63.1744 14.7844 61.5542 15.5742C61.5622 15.5541 61.5699 15.5402 61.5808 15.5187Z" fill="#AF8B18"/>
<path d="M25.6992 42.0861C25.3885 42.8335 26.7287 44.2569 26.4673 43.779C26.241 43.3662 25.8207 42.6572 26.625 42.2481C27.4877 41.772 26.9777 41.3614 26.8276 41.3047C27.1186 41.0235 27.4563 40.6783 27.5155 40.2012C26.0467 40.927 20.5486 43.5333 19.2773 44.1673C19.4051 44.4273 19.5329 44.6818 19.6574 44.9418C21.0586 44.2525 24.103 42.8207 25.7266 42.0287C25.7163 42.0517 25.7072 42.0641 25.6992 42.0861Z" fill="#AF8B18"/>
<path d="M37.4861 38.0898C37.4861 38.0898 37.4847 38.1407 37.4609 38.2153C37.4956 38.1366 37.4861 38.0898 37.4861 38.0898Z" fill="#AF8B18"/>
<path d="M34.3628 22.6382C34.3628 22.6382 34.3179 22.6363 34.2383 22.6191C34.3208 22.6513 34.3628 22.6382 34.3628 22.6382Z" fill="#AF8B18"/>
<path d="M49.7896 19.5137C49.7896 19.5137 49.7972 19.4633 49.8144 19.3887C49.7834 19.4691 49.7896 19.5137 49.7896 19.5137Z" fill="#AF8B18"/>
<path d="M52.9141 34.9639C52.9141 34.9639 52.9641 34.968 53.0349 34.9866C52.956 34.9555 52.9141 34.9639 52.9141 34.9639Z" fill="#AF8B18"/>
<path d="M34.3563 23.2712L30.6598 21.4203L29.6055 21.7713L29.9078 22.6719L30.5686 22.451L33.916 24.103C33.2191 25.5235 32.8211 27.1163 32.8211 28.8034C32.8211 30.3486 33.1537 31.8156 33.7357 33.1454L34.5951 32.7125C34.0748 31.5114 33.7857 30.191 33.7857 28.8034C33.7857 25.9905 34.9737 23.4562 36.8674 21.6572L36.4114 20.7676C35.6078 21.4923 34.9149 22.3384 34.3563 23.2712Z" fill="#AF8B18"/>
<path d="M39.3008 18.8872L39.7367 19.7457C40.9382 19.2265 42.2547 18.9369 43.6409 18.9369C46.4513 18.9369 48.9846 20.1274 50.7794 22.0262L51.6757 21.5809C50.9543 20.7713 50.1087 20.0795 49.1803 19.5164L51.0105 15.8007L50.6585 14.748L49.7604 15.0493L49.9806 15.7101L48.3096 19.0502C46.8967 18.3654 45.3177 17.9709 43.6413 17.9709C42.0977 17.9709 40.6344 18.3014 39.3008 18.8872Z" fill="#AF8B18"/>
<path d="M52.9011 34.3646L56.6202 36.1844L57.6702 35.8316L57.3701 34.935L56.706 35.153L53.3801 33.4713C54.061 32.0556 54.452 30.4767 54.452 28.8017C54.452 27.2638 54.127 25.8063 53.548 24.4805L52.6872 24.9097C53.2005 26.105 53.4867 27.4192 53.4867 28.802C53.4867 31.6201 52.2965 34.1588 50.3984 35.9588L50.8413 36.8598C51.6485 36.138 52.34 35.2934 52.9011 34.3646Z" fill="#AF8B18"/>
<path d="M47.9444 38.734L47.5212 37.8689C46.3292 38.3834 45.0197 38.6679 43.6411 38.6679C40.8373 38.6679 38.3047 37.4813 36.5081 35.5898L35.6133 36.0407C36.3511 36.855 37.2054 37.5588 38.1502 38.1223L36.2675 41.8011L36.6169 42.8571L37.5139 42.5547L37.293 41.8929L38.9943 38.5666C40.4021 39.2456 41.9803 39.6372 43.6415 39.6372C45.1708 39.6372 46.6231 39.3114 47.9444 38.734Z" fill="#AF8B18"/>
<path d="M50.3196 22.2578C48.6249 20.5185 46.2548 19.4336 43.6404 19.4336C42.34 19.4336 41.0939 19.7049 39.9688 20.1894L40.4087 21.0516C41.4024 20.6329 42.4951 20.3989 43.6404 20.3989C45.8743 20.3989 47.8998 21.2834 49.4025 22.7131L50.3196 22.2578Z" fill="#AF8B18"/>
<path d="M34.2852 28.8035C34.2852 30.1111 34.5539 31.3554 35.0409 32.4885L35.9021 32.0523C35.483 31.0537 35.249 29.9557 35.249 28.8035C35.249 26.5643 36.131 24.5313 37.564 23.0223L37.104 22.1133C35.3643 23.8172 34.2852 26.1844 34.2852 28.8035Z" fill="#AF8B18"/>
<path d="M36.9688 35.3583C38.6697 37.0904 41.0296 38.1712 43.6407 38.1712C44.9418 38.1712 46.1794 37.9047 47.2992 37.4231L46.8731 36.5562C45.8797 36.9734 44.7856 37.2048 43.6407 37.2048C41.4111 37.2048 39.386 36.324 37.8811 34.8965L36.9688 35.3583Z" fill="#AF8B18"/>
<path d="M52.9972 28.8023C52.9972 27.501 52.7259 26.2596 52.247 25.1309L51.3832 25.5612C51.7997 26.5602 52.0305 27.6535 52.0305 28.8023C52.0305 31.039 51.1506 33.0698 49.7188 34.5762L50.1729 35.4969C51.9129 33.7938 52.9972 31.4244 52.9972 28.8023Z" fill="#AF8B18"/>
<path d="M45.0116 29.5715L45.0106 29.5686C44.7524 30.0326 44.2705 30.3504 43.709 30.3767L43.6999 30.3811C43.6813 30.3811 43.6605 30.3873 43.6393 30.3873C43.6013 30.3873 43.5674 30.3767 43.5301 30.3734C43.4491 30.3697 43.3666 30.3595 43.2917 30.3441C43.2629 30.3383 43.2403 30.3244 43.2125 30.3174C43.1191 30.294 43.03 30.2604 42.9445 30.2184C42.9445 30.2184 42.9358 30.214 42.9329 30.2118C42.4152 29.9522 42.0567 29.4212 42.0567 28.8026C42.0567 28.7722 42.0658 28.7393 42.0665 28.709L42.0658 28.7039C42.0665 28.6925 42.0683 28.6793 42.0716 28.6673C42.0844 28.5751 42.0932 28.4856 42.1198 28.396C42.1213 28.3781 42.1278 28.3616 42.1355 28.3426C42.1633 28.2581 42.191 28.1737 42.2301 28.0958C42.2337 28.0881 42.2337 28.0837 42.2392 28.0775C42.4944 27.593 42.9821 27.2559 43.5626 27.2281L43.5674 27.2255C43.5922 27.2244 43.6185 27.2171 43.6393 27.2171C43.6842 27.2171 43.7338 27.2292 43.7777 27.2343C43.847 27.2413 43.9153 27.2449 43.9788 27.2595C44.0146 27.2694 44.0475 27.2811 44.0803 27.2917C44.1628 27.3144 44.245 27.3469 44.3202 27.3831C44.326 27.3857 44.3337 27.3868 44.3432 27.3926L44.3403 27.3934C44.648 27.5484 44.8992 27.8014 45.0536 28.1141C45.0562 28.1177 45.0598 28.1239 45.0598 28.1298C45.0974 28.2018 45.1241 28.283 45.1485 28.3642C45.1493 28.3824 45.1606 28.4033 45.1657 28.4238C45.1858 28.5064 45.1967 28.5942 45.2062 28.6826C45.2062 28.6965 45.2092 28.7108 45.2124 28.724L45.2092 28.7291C45.2092 28.7532 45.2154 28.7759 45.2154 28.8026V28.8037L45.2183 28.8088C45.2183 28.8296 45.2124 28.8465 45.2095 28.8655C45.2066 28.9737 45.1913 29.0801 45.1661 29.1799C45.1562 29.2041 45.1489 29.23 45.1394 29.2541C45.112 29.3584 45.0708 29.4578 45.0197 29.5525C45.0153 29.5565 45.0153 29.5642 45.0116 29.5715ZM56.6585 21.2648L45.2143 26.9553C45.0701 26.8339 44.9138 26.7279 44.7429 26.6383L56.4373 20.8227L56.7936 19.7671L55.8915 19.4691L55.6721 20.1316L43.1504 26.4123C42.9526 26.4504 42.7678 26.5217 42.5904 26.608L37.1415 15.6711L37.3602 15.0082L36.4628 14.7051L36.1102 15.7596L41.8069 27.2076C41.697 27.3352 41.601 27.4724 41.5163 27.6197L35.667 15.9819L34.6177 15.6305L34.3176 16.5278L34.9748 16.7494L41.2414 29.1814C41.2772 29.4286 41.355 29.6582 41.4623 29.8728L30.5222 35.3089L29.8643 35.0884L29.5664 35.9883L30.6153 36.3385L42.0574 30.6458C42.2031 30.7694 42.3597 30.8762 42.5338 30.9624L30.8358 36.7824L30.4824 37.8362L31.3849 38.1364L31.6007 37.4757L44.4085 31.1054C44.4921 31.078 44.5765 31.0484 44.6561 31.0107L50.1363 41.9344L49.9136 42.5969L50.8154 42.8979L51.1662 41.8459L45.4388 30.4271C45.5731 30.2787 45.6849 30.1156 45.782 29.9357L51.6091 41.6229L52.6609 41.9753L52.9559 41.0762L52.0855 40.432L46.001 28.2278C45.9539 28.0548 45.8959 27.8899 45.8163 27.7331L56.7509 22.293L57.4124 22.516L57.7096 21.614L56.6585 21.2648Z" fill="#AF8B18"/>
<path d="M32.0893 46.6148C32.5117 46.2485 32.9793 45.3398 33.4795 43.8944C33.9866 42.4446 34.6609 41.0058 35.6612 40.9824C35.2275 40.9916 34.2568 41.1119 33.7737 41.5265C33.0983 42.113 32.8793 42.8681 33.1294 43.7873C33.114 43.7061 33.064 43.622 32.9895 43.5365C32.5014 42.9697 31.9666 43.0081 31.442 43.2662C31.013 43.4783 30.8031 43.9727 30.875 44.403C31.4179 43.8849 32.109 43.8027 32.427 44.172C32.9877 44.8235 32.5697 46.617 31.4682 46.862C30.3737 47.1074 30.1704 46.345 30.097 46.1954C30.2032 46.2817 30.3365 46.3391 30.4829 46.3391C30.8359 46.3391 31.1218 46.0558 31.1218 45.7018C31.1218 45.3515 30.8359 45.0641 30.4829 45.0641C30.4533 45.0641 30.4241 45.0769 30.3956 45.0831H30.3942C30.2357 45.1062 30.097 45.1822 30.0039 45.3003C29.6242 45.6473 29.5837 46.2832 29.9714 46.7351C30.5355 47.3867 31.4106 47.1973 32.0893 46.6148Z" fill="#AF8B18"/>
<path d="M22.9413 50.7413C22.9599 50.7413 22.9804 50.7359 22.9986 50.7351C23.0136 50.7359 23.0216 50.7392 23.038 50.7413C23.0253 50.7413 23.0132 50.7381 22.9986 50.7351C23.9785 50.6675 24.2571 49.5077 23.6777 46.7269C23.2994 44.8928 24.6802 43.6328 24.6802 43.6328C24.6802 43.6328 22.1282 44.4504 23.4415 47.3317C24.1979 48.999 23.9102 49.8748 23.5324 50.3198C23.5586 50.2525 23.5754 50.1808 23.5754 50.1033C23.5754 49.7523 23.2965 49.4649 22.9417 49.4649C22.5937 49.4649 22.3046 49.7523 22.3046 50.1033C22.3046 50.3326 22.4338 50.5227 22.6116 50.6346C22.4002 50.5669 22.1593 50.4675 21.9669 50.3428C21.596 50.0963 21.3977 49.8963 21.2966 49.6364C20.9651 48.7917 21.2827 48.123 22.0384 48.1899C22.3396 48.1932 22.6069 48.3288 22.8391 48.6034C23.0738 47.9153 22.5601 47.3993 22.1038 47.4359C21.8508 47.4546 21.5996 47.5405 21.3462 47.8257C21.5686 47.3109 21.4674 46.2428 21.1626 45.8464C20.8534 45.4537 20.539 45.2278 20.2148 45.1725C20.485 45.5521 20.6026 46.204 20.5704 47.1266C20.539 48.0509 20.6058 48.7244 20.7723 49.1457C21.056 49.8627 21.6124 50.5048 22.7065 50.6949C22.7828 50.7216 22.8588 50.7413 22.9413 50.7413Z" fill="#AF8B18"/>
<path d="M28.0809 45.376C28.5668 46.9468 30.4835 47.1205 30.4835 47.1205C30.4835 47.1205 29.6084 46.9698 28.9892 46.3391C28.4033 45.7442 28.0346 44.7683 28.4453 43.811C28.5552 43.8951 28.6815 43.9536 28.8312 43.9536C29.182 43.9536 29.4682 43.671 29.4682 43.3174C29.4682 42.9627 29.1824 42.6797 28.8312 42.6797C28.7191 42.6797 28.6227 42.713 28.5325 42.7638L28.5307 42.7572C28.5307 42.7572 27.4395 43.2965 28.0809 45.376Z" fill="#AF8B18"/>
<path d="M32.857 40.2483C32.5273 41.0253 32.7829 41.7456 32.8351 41.9211C32.8183 41.72 32.8727 40.7895 33.6704 40.385C33.8635 40.2882 34.1209 40.1894 34.3867 40.0914C34.9004 39.9916 35.6042 39.8135 36.2698 39.4899C37.1745 39.0534 37.4037 38.4698 37.4625 38.2149C37.4041 38.3634 37.2008 38.627 36.4961 38.9422C36.4925 38.9444 36.4877 38.9477 36.4845 38.9499C36.4618 38.9598 36.4275 38.9729 36.4034 38.9832C36.0197 39.1195 35.3589 39.2227 34.8007 38.6179C34.5652 38.3144 34.5079 38.0281 34.5309 37.7838C34.6203 38.027 34.8485 38.2058 35.1263 38.2058C35.4757 38.2058 35.7609 37.9206 35.7609 37.5666C35.7609 37.2153 35.4757 36.9297 35.1263 36.9297C35.069 36.9297 35.0194 36.948 34.965 36.9637C34.984 36.9447 34.9949 36.9366 34.9949 36.9366C34.9756 36.9447 34.9584 36.9586 34.9383 36.9692C34.8332 37.0021 34.7372 37.0562 34.6634 37.1341C33.5612 37.9056 34.0117 39.0651 35.0026 39.3013C33.98 39.3857 33.2411 39.3397 32.857 40.2483Z" fill="#AF8B18"/>
<path d="M21.7391 8.13022C21.8052 9.11051 22.9636 9.3884 25.743 8.80959C27.5721 8.43041 28.8272 9.81219 28.8272 9.81219C28.8272 9.81219 28.0127 7.25925 25.1413 8.57155C23.4736 9.3288 22.6 9.0425 22.1571 8.66625C22.221 8.69258 22.294 8.71013 22.3696 8.71013C22.7248 8.71013 23.0063 8.42785 23.0063 8.07391C23.0063 7.72106 22.7248 7.43476 22.3696 7.43476C22.1414 7.43476 21.9487 7.56237 21.8381 7.74446C21.9071 7.53238 22.0082 7.28777 22.1312 7.0969C22.3769 6.72467 22.5755 6.52832 22.8384 6.4263C23.6766 6.09283 24.3451 6.40985 24.2805 7.16564C24.2779 7.46986 24.1414 7.73788 23.869 7.96604C24.5543 8.20335 25.0691 7.69107 25.0402 7.23438C25.0168 6.98245 24.927 6.72833 24.6456 6.4764C25.1585 6.69871 26.2275 6.59633 26.6181 6.28882C27.0153 5.98168 27.2376 5.66539 27.2939 5.3418C26.916 5.61128 26.2625 5.73231 25.3458 5.6994C24.4199 5.66905 23.7485 5.7356 23.3302 5.90197C22.6084 6.18315 21.9677 6.74039 21.7829 7.84062C21.7537 7.91302 21.7351 7.99127 21.7351 8.07391C21.7344 8.09511 21.7391 8.11266 21.7391 8.13022C21.7391 8.14338 21.7344 8.15545 21.7344 8.16751C21.7344 8.15983 21.7373 8.14411 21.7391 8.13022Z" fill="#AF8B18"/>
<path d="M64.3368 6.86328C64.3175 6.86438 64.2999 6.86803 64.2828 6.86803C64.2678 6.86803 64.2561 6.86438 64.2422 6.86328C64.2506 6.86438 64.2678 6.86803 64.2828 6.86803C63.3014 6.93678 63.0218 8.09588 63.6001 10.8784C63.9801 12.7118 62.6016 13.9736 62.6016 13.9736C62.6016 13.9736 65.1491 13.1557 63.8414 10.274C63.0827 8.60851 63.3697 7.73059 63.7424 7.28414C63.7194 7.35215 63.7005 7.42674 63.7005 7.50207C63.7005 7.85235 63.9819 8.13902 64.3372 8.13902C64.6906 8.13902 64.9746 7.85235 64.9746 7.50207C64.9746 7.27281 64.8479 7.08303 64.665 6.96932C64.876 7.03623 65.1206 7.13605 65.3149 7.2622C65.6847 7.50901 65.8764 7.70756 65.9852 7.97009C66.3115 8.80962 65.999 9.48167 65.2429 9.41476C64.9396 9.41147 64.6705 9.27508 64.4423 8.99829C64.2065 9.68826 64.722 10.2042 65.1783 10.1691C65.4266 10.1512 65.6803 10.062 65.9286 9.78004C65.7088 10.2938 65.811 11.3611 66.1162 11.7571C66.4276 12.1535 66.7376 12.378 67.0643 12.4321C66.7982 12.0518 66.6777 11.4013 66.7066 10.477C66.7369 9.55298 66.6719 8.88128 66.5047 8.46042C66.2232 7.74193 65.6686 7.09912 64.569 6.91081C64.496 6.88266 64.4153 6.86328 64.3368 6.86328Z" fill="#AF8B18"/>
<path d="M65.5362 49.4749C65.4709 48.495 64.311 48.2149 61.5345 48.7948C59.7033 49.1751 58.4492 47.793 58.4492 47.793C58.4492 47.793 59.2623 50.3455 62.1369 49.0358C63.801 48.2756 64.6786 48.5634 65.1197 48.9367C65.0536 48.914 64.9846 48.8947 64.9065 48.8947C64.5574 48.8947 64.2694 49.1813 64.2694 49.5316C64.2694 49.8845 64.5574 50.1693 64.9065 50.1693C65.1372 50.1693 65.3237 50.0432 65.4391 49.86C65.369 50.0713 65.2712 50.317 65.1427 50.5075C64.8988 50.8809 64.7049 51.0765 64.4384 51.1803C63.5991 51.512 62.9303 51.1964 62.9996 50.4406C62.9996 50.1353 63.134 49.8687 63.4089 49.6395C62.72 49.4014 62.2059 49.9152 62.2406 50.3733C62.2633 50.6249 62.3472 50.8765 62.6331 51.1295C62.1154 50.9072 61.0501 51.0092 60.6565 51.3167C60.2608 51.6253 60.0366 51.9398 59.9859 52.2645C60.3634 51.9939 61.0128 51.8765 61.9354 51.9065C62.8598 51.9368 63.5308 51.8707 63.9477 51.7017C64.6655 51.4216 65.3088 50.864 65.4961 49.7649C65.526 49.6936 65.5413 49.6153 65.5413 49.532C65.5413 49.5111 65.5391 49.4947 65.5362 49.4764C65.5391 49.4625 65.5413 49.4504 65.5413 49.4365C65.541 49.4468 65.5388 49.4621 65.5362 49.4749Z" fill="#AF8B18"/>
<path d="M25.8528 17.2353C26.2216 17.6587 27.127 18.1249 28.5709 18.6295C30.0184 19.1352 31.4543 19.812 31.4755 20.8102C31.4656 20.3784 31.3466 19.4058 30.9352 18.9242C30.347 18.2441 29.5957 18.0302 28.6771 18.2803C28.76 18.2587 28.8418 18.2116 28.9279 18.1366C29.4923 17.6507 29.4515 17.1132 29.1981 16.5921C28.9838 16.1595 28.4902 15.9453 28.0616 16.0199C28.5785 16.5621 28.66 17.2579 28.2912 17.5731C27.6385 18.1362 25.8514 17.7179 25.6042 16.6126C25.3618 15.523 26.1223 15.3116 26.2734 15.2392C26.1876 15.3493 26.1299 15.4794 26.1299 15.6297C26.1299 15.9807 26.4147 16.2652 26.7637 16.2652C27.1168 16.2652 27.4019 15.9807 27.4019 15.6297C27.4019 15.5954 27.3865 15.5668 27.3836 15.5383C27.3584 15.3785 27.284 15.2425 27.1686 15.1456C26.8177 14.7668 26.1829 14.7255 25.7305 15.1167C25.0821 15.6773 25.2745 16.5566 25.8528 17.2353Z" fill="#AF8B18"/>
<path d="M27.0873 13.2239C25.5233 13.707 25.3477 15.6317 25.3477 15.6317C25.3477 15.6317 25.4999 14.7534 26.1293 14.1307C26.7218 13.5446 27.6999 13.1753 28.6528 13.5863C28.5677 13.6953 28.5089 13.8265 28.5089 13.9746C28.5089 14.3264 28.7966 14.6116 29.1445 14.6116C29.4972 14.6116 29.7827 14.3264 29.7827 13.9746C29.7827 13.8642 29.7495 13.7658 29.698 13.6751L29.7027 13.673C29.7024 13.6722 29.1675 12.5819 27.0873 13.2239Z" fill="#AF8B18"/>
<path d="M32.0746 18.8149C32.1699 19.0094 32.2696 19.2657 32.3689 19.5338C32.4634 20.0482 32.6452 20.7528 32.9691 21.4198C33.4053 22.3262 33.9891 22.5591 34.2377 22.6194C34.0913 22.5591 33.8299 22.3518 33.513 21.6457C33.5116 21.6421 33.5116 21.6421 33.5083 21.6381C33.4973 21.6128 33.4864 21.5777 33.4758 21.5543C33.3378 21.1708 33.233 20.5053 33.8398 19.9506C34.1549 19.7107 34.4447 19.6541 34.6904 19.6837C34.4338 19.7656 34.2458 19.9992 34.2458 20.2822C34.2458 20.6365 34.5272 20.9203 34.8832 20.9203C35.2366 20.9203 35.5184 20.6365 35.5184 20.2822C35.5184 20.2182 35.5027 20.1619 35.4859 20.1056C35.5071 20.1283 35.5184 20.1448 35.5184 20.1448C35.5053 20.1166 35.4881 20.095 35.4768 20.0665C35.4593 20.0168 35.4326 19.9736 35.3987 19.9301C34.6335 18.677 33.3988 19.1264 33.1582 20.151C33.0727 19.1283 33.1187 18.3856 32.2093 18.001C31.4346 17.6726 30.7194 17.9267 30.5391 17.979C30.738 17.9607 31.669 18.0149 32.0746 18.8149Z" fill="#AF8B18"/>
<path d="M55.186 10.9921C54.7618 11.3574 54.3014 12.266 53.7943 13.7129C53.2908 15.159 52.6151 16.6 51.6133 16.6245C52.0485 16.6124 53.0203 16.4929 53.5008 16.0768C54.1776 15.491 54.3927 14.7374 54.1473 13.8171C54.163 13.9004 54.2138 13.982 54.2846 14.0683C54.7709 14.6354 55.3079 14.5955 55.8326 14.3385C56.2634 14.1279 56.4751 13.6328 56.3977 13.2028C55.8588 13.7227 55.1612 13.8021 54.8472 13.4328C54.2879 12.7812 54.7019 10.9899 55.8081 10.7416C56.896 10.4985 57.1052 11.2586 57.1801 11.4104C57.0706 11.3245 56.9409 11.2648 56.7887 11.2648C56.4382 11.2648 56.1542 11.5493 56.1542 11.9022C56.1542 12.2558 56.4382 12.541 56.7887 12.541C56.8256 12.541 56.8489 12.5267 56.8829 12.5219C57.0413 12.4985 57.1801 12.4232 57.2728 12.3051C57.6474 11.9577 57.693 11.3223 57.3035 10.8689C56.7412 10.2184 55.8691 10.4103 55.186 10.9921Z" fill="#AF8B18"/>
<path d="M59.1942 12.2297C58.7116 10.6611 56.7891 10.4863 56.7891 10.4863C56.7891 10.4863 57.6696 10.637 58.2877 11.2659C58.8744 11.8619 59.2402 12.8385 58.8339 13.7958C58.7222 13.7095 58.5929 13.6525 58.4487 13.6525C58.0913 13.6525 57.8084 13.9355 57.8084 14.2898C57.8084 14.6408 58.091 14.9275 58.4487 14.9275C58.555 14.9275 58.655 14.8913 58.7437 14.8434V14.8474C58.7437 14.8474 59.8331 14.3132 59.1942 12.2297Z" fill="#AF8B18"/>
<path d="M54.4224 17.355C54.7488 16.578 54.4969 15.8602 54.441 15.6836C54.4626 15.884 54.4115 16.8153 53.609 17.22C53.4155 17.3191 53.1556 17.4171 52.8923 17.5144C52.3812 17.6135 51.6766 17.7926 51.0114 18.1133C50.1042 18.5525 49.8698 19.1382 49.8125 19.3883C49.8698 19.2366 50.1042 18.9536 50.8833 18.619C51.2644 18.4837 51.9223 18.3865 52.4769 18.9883C52.7467 19.343 52.7821 19.6706 52.7248 19.9419C52.6777 19.6373 52.4276 19.3997 52.1074 19.3997C51.7566 19.3997 51.4718 19.6841 51.4718 20.0377C51.4718 20.3906 51.7566 20.6747 52.1074 20.6747C52.1837 20.6747 52.2545 20.6553 52.3217 20.6323C52.2991 20.6553 52.2801 20.6688 52.2801 20.6688C53.7981 19.9174 53.3542 18.5605 52.2739 18.3024C53.2965 18.219 54.0394 18.2632 54.4224 17.355Z" fill="#AF8B18"/>
<path d="M61.4245 40.3694C61.0584 39.9441 60.1508 39.4797 58.7036 38.9755C57.2593 38.4695 55.8238 37.7926 55.8008 36.793C55.8095 37.2259 55.9293 38.2 56.3429 38.6786C56.9293 39.3583 57.6802 39.5744 58.6021 39.3254C58.5188 39.3441 58.4345 39.3916 58.3542 39.4669C57.7832 39.9547 57.8208 40.4897 58.0778 41.014C58.291 41.4447 58.7872 41.6583 59.2147 41.5837C58.6963 41.0443 58.6189 40.3474 58.984 40.0308C59.6342 39.468 61.4242 39.8893 61.6695 40.9906C61.9148 42.0799 61.1515 42.2923 61.004 42.3647C61.0894 42.2565 61.1485 42.1234 61.1485 41.9764C61.1485 41.6239 60.8641 41.3387 60.5151 41.3387C60.1632 41.3387 59.874 41.6239 59.874 41.9764C59.874 42.0067 59.8894 42.0363 59.8923 42.0649V42.0692C59.9197 42.2265 59.9919 42.3629 60.1088 42.4583C60.4556 42.8389 61.0967 42.8795 61.5406 42.4868C62.1952 41.9255 62.0047 41.0476 61.4245 40.3694Z" fill="#AF8B18"/>
<path d="M60.1876 44.3832C61.7556 43.8991 61.9283 41.9766 61.9283 41.9766C61.9283 41.9766 61.7801 42.8534 61.1481 43.4757C60.5523 44.0618 59.5779 44.4319 58.6192 44.0191C58.7086 43.9119 58.7638 43.7814 58.7638 43.6315C58.7638 43.2797 58.4812 42.9938 58.1315 42.9938C57.7788 42.9938 57.4922 43.2797 57.4922 43.6315C57.4922 43.7419 57.5291 43.8406 57.5758 43.9317L57.57 43.9335C57.57 43.9335 58.107 45.0235 60.1876 44.3832Z" fill="#AF8B18"/>
<path d="M55.2069 38.7898C55.1076 38.5971 55.009 38.3389 54.9104 38.0735C54.8159 37.559 54.637 36.8522 54.3128 36.1849C53.8747 35.2792 53.2931 35.0459 53.0383 34.9863C53.1854 35.0459 53.449 35.2536 53.7659 35.9568C53.7677 35.96 53.7732 35.9633 53.7732 35.9674C53.7808 35.9962 53.7965 36.0273 53.8079 36.0544C53.9451 36.4361 54.0455 37.0994 53.4442 37.6523C53.1084 37.9089 52.8002 37.9576 52.5407 37.9144C52.8214 37.8471 53.0317 37.6084 53.0317 37.3071C53.0317 36.9553 52.7429 36.6694 52.3902 36.6694C52.0445 36.6694 51.7539 36.9553 51.7539 37.3071C51.7539 37.3766 51.7729 37.4358 51.7955 37.4976C51.7714 37.4764 51.7645 37.4592 51.7645 37.4592C51.7714 37.4873 51.7897 37.5075 51.8028 37.5305C51.8141 37.57 51.8357 37.6011 51.8583 37.6336C52.6246 38.936 53.8776 38.4885 54.1215 37.4548C54.208 38.4783 54.1638 39.2194 55.0718 39.6055C55.8461 39.9332 56.5668 39.6783 56.7391 39.626C56.5442 39.6447 55.6096 39.5895 55.2069 38.7898Z" fill="#AF8B18"/>
<path d="M41.971 35.0984C41.462 34.3935 41.1627 34.268 40.8074 34.1463C39.9367 33.8581 38.7695 34.426 38.7695 34.426C38.7695 34.426 39.7228 33.9678 40.9024 35.0849C41.9615 36.0842 42.8804 36.2433 43.8154 36.0762C45.1282 35.8198 45.2567 35.0235 45.1972 34.5254C45.1972 34.5134 45.2063 34.5028 45.2063 34.4936C45.2063 34.3909 45.1753 34.2951 45.13 34.2106C45.1129 34.1503 45.0968 34.1108 45.0968 34.1108C45.0968 34.1108 45.1023 34.1415 45.1129 34.1832C45.0055 33.9905 44.8066 33.8534 44.5689 33.8534C44.2191 33.8534 43.93 34.1386 43.93 34.494C43.93 34.8443 44.2191 35.128 44.5689 35.128C44.8204 35.128 45.0377 34.9756 45.1391 34.7606C45.1132 34.9781 45.038 35.2136 44.854 35.4048C44.5725 35.7043 43.8245 35.8915 43.2272 35.7493C42.0688 35.4714 42.7011 32.8223 42.7011 32.8223C42.213 33.2874 41.8308 33.774 41.9936 34.6099C42.1524 35.4407 42.8957 35.712 42.8957 35.712C42.8957 35.712 42.3342 35.6037 41.971 35.0984Z" fill="#AF8B18"/>
<path d="M36.3149 28.8964C36.5752 30.2112 37.3675 30.3381 37.8665 30.2785C37.8775 30.2785 37.8855 30.2847 37.9012 30.2847C38.0005 30.2847 38.0925 30.2562 38.1776 30.2134C38.2371 30.1955 38.2751 30.1791 38.2751 30.1791C38.2751 30.1791 38.2459 30.1875 38.2039 30.1955C38.3999 30.0876 38.5357 29.8869 38.5357 29.6481C38.5357 29.2949 38.2524 29.0112 37.9012 29.0112C37.5511 29.0112 37.2634 29.2949 37.2634 29.6481C37.2634 29.9023 37.4138 30.1202 37.6296 30.2193C37.4138 30.1937 37.1784 30.1184 36.986 29.937C36.6866 29.654 36.5011 28.9022 36.6395 28.3055C36.9213 27.1446 39.5678 27.7768 39.5678 27.7768C39.1002 27.2901 38.6146 26.9087 37.7844 27.0692C36.9524 27.2283 36.6789 27.9709 36.6789 27.9709C36.6789 27.9709 36.7863 27.4078 37.2941 27.048C38.0005 26.5376 38.1232 26.2378 38.2429 25.8809C38.5357 25.0114 37.9615 23.8398 37.9615 23.8398C37.9615 23.8398 38.4218 24.7945 37.3039 25.9785C36.304 27.0363 36.1495 27.9563 36.3149 28.8964Z" fill="#AF8B18"/>
<path d="M45.3311 22.3639C45.8414 23.0674 46.1397 23.1917 46.4993 23.3109C47.3646 23.6016 48.5325 23.0308 48.5325 23.0308C48.5325 23.0308 47.5811 23.4919 46.4015 22.3741C45.342 21.3715 44.4246 21.2165 43.4823 21.3847C42.1742 21.6403 42.0471 22.437 42.1048 22.9332C42.1048 22.9452 42.0975 22.9569 42.0975 22.9646C42.0975 23.0699 42.1296 23.1635 42.1702 23.2476C42.1873 23.3091 42.2041 23.3489 42.2041 23.3489C42.2041 23.3489 42.1954 23.316 42.1873 23.274C42.2972 23.4703 42.4969 23.6052 42.736 23.6052C43.0887 23.6052 43.372 23.3204 43.372 22.9643C43.372 22.6143 43.0887 22.3295 42.736 22.3295C42.4809 22.3295 42.2644 22.4834 42.1651 22.6977C42.1873 22.4794 42.2644 22.2461 42.4469 22.0549C42.7291 21.7554 43.4757 21.5664 44.0744 21.7094C45.235 21.9858 44.602 24.6396 44.602 24.6396C45.0868 24.1716 45.4694 23.6864 45.3092 22.8509C45.1507 22.018 44.4107 21.7463 44.4107 21.7463C44.4107 21.7463 44.9696 21.8538 45.3311 22.3639Z" fill="#AF8B18"/>
<path d="M50.9853 28.5625C50.7301 27.2491 49.9375 27.1226 49.441 27.1785C49.4279 27.1785 49.4202 27.1716 49.4042 27.1716C49.3019 27.1716 49.2121 27.203 49.1241 27.2425C49.0646 27.2637 49.0245 27.2772 49.0245 27.2772C49.0245 27.2772 49.0595 27.2706 49.0993 27.263C48.9076 27.373 48.7664 27.5697 48.7664 27.8114C48.7664 28.1628 49.0544 28.4484 49.4042 28.4484C49.759 28.4484 50.0442 28.1628 50.0442 27.8114C50.0442 27.554 49.8908 27.3376 49.6743 27.2363C49.8908 27.2637 50.1248 27.3394 50.3154 27.5222C50.6148 27.8052 50.8017 28.5555 50.6619 29.1515C50.3866 30.3121 47.7383 29.6803 47.7383 29.6803C48.2023 30.1677 48.6886 30.549 49.5239 30.3878C50.3523 30.2298 50.6235 29.4857 50.6235 29.4857C50.6235 29.4857 50.5177 30.0496 50.0106 30.409C49.3045 30.9194 49.1829 31.2196 49.0624 31.5772C48.7678 32.4486 49.3421 33.6186 49.3421 33.6186C49.3421 33.6186 48.8817 32.6628 49.9996 31.4789C51.001 30.4222 51.1533 29.5029 50.9853 28.5625Z" fill="#AF8B18"/>
<path d="M44.5485 28.8029C44.5485 28.3013 44.1432 27.8965 43.6405 27.8965C43.1403 27.8965 42.7344 28.3009 42.7344 28.8029C42.7344 29.3031 43.1403 29.7116 43.6405 29.7116C44.1429 29.7119 44.5485 29.3031 44.5485 28.8029Z" fill="#AF8B18"/>
<path d="M48.4137 15.3092L51.9243 14.1304L51.5593 13.0364L50.4428 13.4159L50.521 13.6602L49.234 14.0938L48.3323 11.4473L47.2305 11.8122L48.4137 15.3092Z" fill="#AF8B18"/>
<path d="M50.2612 13.5538L49.8118 12.1925L51.136 11.7365L50.7683 10.6016L48.5234 11.3537L49.3577 13.8565L50.2612 13.5538Z" fill="#AF8B18"/>
<path d="M33.241 16.375L30.5741 15.4679L30.2031 16.5754L33.7141 17.7619L34.8908 14.2422L33.7963 13.877L33.4265 14.9995L33.6703 15.0821L33.241 16.375Z" fill="#AF8B18"/>
<path d="M32.504 13.4368L31.381 13.0488L30.6289 15.2979L33.1275 16.1331L33.4273 15.2266L32.0695 14.7707L32.504 13.4368Z" fill="#AF8B18"/>
<path d="M35.5675 12.9944L35.2031 14.0888L38.7141 15.2651L39.8963 11.7483L38.7901 11.375L37.8901 14.0519L36.6025 13.6149L36.6839 13.3714L35.5675 12.9944Z" fill="#AF8B18"/>
<path d="M36.3573 10.5605L35.9922 11.6951L37.3134 12.1496L36.8593 13.512L37.7672 13.813L38.6018 11.312L36.3573 10.5605Z" fill="#AF8B18"/>
<path d="M57.1133 33.5822L58.2885 37.1015L59.387 36.7344L59.007 35.6184L58.7598 35.7L58.3279 34.4093L60.97 33.5039L60.606 32.4004L57.1133 33.5822Z" fill="#AF8B18"/>
<path d="M58.8655 35.4371L60.228 34.9841L60.6803 36.3085L61.8172 35.9428L61.0604 33.6934L58.5625 34.53L58.8655 35.4371Z" fill="#AF8B18"/>
<path d="M56.0492 18.3875L56.9506 15.7183L55.8462 15.3457L54.6641 18.8621L58.1732 20.0391L58.5423 18.9444L57.4241 18.5725L57.3405 18.8171L56.0492 18.3875Z" fill="#AF8B18"/>
<path d="M58.9841 17.6497L59.3693 16.5202L57.1288 15.7695L56.2891 18.2731L57.1974 18.5737L57.6501 17.2149L58.9841 17.6497Z" fill="#AF8B18"/>
<path d="M59.4248 20.7164L58.331 20.3496L57.1602 23.8701L60.6686 25.0515L61.0421 23.9454L58.3708 23.0437L58.8045 21.7511L59.0451 21.8345L59.4248 20.7164Z" fill="#AF8B18"/>
<path d="M61.8554 21.507L60.7182 21.1406L60.2681 22.4643L58.907 22.0134L58.6055 22.9188L61.1074 23.7561L61.8554 21.507Z" fill="#AF8B18"/>
<path d="M38.8698 42.2988L35.3555 43.4755L35.7235 44.5695L36.8352 44.194L36.7552 43.9475L38.0469 43.5109L38.9497 46.1597L40.0468 45.7951L38.8698 42.2988Z" fill="#AF8B18"/>
<path d="M37.016 44.0495L37.4665 45.4137L36.1445 45.8686L36.5103 47.0046L38.7552 46.2518L37.9221 43.75L37.016 44.0495Z" fill="#AF8B18"/>
<path d="M54.0386 41.2305L56.7063 42.137L57.0816 41.0272L53.5658 39.8418L52.3906 43.3626L53.4833 43.7279L53.8539 42.6072L53.6126 42.5253L54.0386 41.2305Z" fill="#AF8B18"/>
<path d="M54.7771 44.1681L55.903 44.5575L56.6569 42.3099L54.152 41.4707L53.8516 42.3793L55.2089 42.8364L54.7771 44.1681Z" fill="#AF8B18"/>
<path d="M51.7163 44.612L52.0791 43.515L48.5659 42.3398L47.3867 45.8574L48.4889 46.2322L49.3874 43.5527L50.6801 43.9893L50.5976 44.2321L51.7163 44.612Z" fill="#AF8B18"/>
<path d="M50.9257 47.045L51.293 45.9112L49.9699 45.457L50.4193 44.0961L49.5117 43.793L48.6797 46.2944L50.9257 47.045Z" fill="#AF8B18"/>
<path d="M30.1675 24.0236L28.9905 20.5039L27.8938 20.8703L28.2702 21.9888L28.5173 21.908L28.9514 23.2009L26.3086 24.1026L26.6751 25.205L30.1675 24.0236Z" fill="#AF8B18"/>
<path d="M28.4161 22.1682L27.0543 22.6212L26.6016 21.2969L25.4688 21.6622L26.2132 23.9109L28.7125 23.0739L28.4161 22.1682Z" fill="#AF8B18"/>
<path d="M31.2315 39.2166L30.325 41.8883L31.432 42.2613L32.617 38.7438L29.1053 37.5664L28.7344 38.6604L29.8555 39.033L29.9395 38.7891L31.2315 39.2166Z" fill="#AF8B18"/>
<path d="M28.299 39.9558L27.9102 41.0842L30.154 41.8364L30.9885 39.3328L30.0872 39.0293L29.6312 40.3921L28.299 39.9558Z" fill="#AF8B18"/>
<path d="M27.8582 36.891L28.9505 37.2548L30.1217 33.7366L26.6107 32.5566L26.2383 33.6602L28.9147 34.5611L28.4744 35.8548L28.2353 35.7714L27.8582 36.891Z" fill="#AF8B18"/>
<path d="M25.4258 36.0971L26.5564 36.4653L27.0099 35.1391L28.376 35.5922L28.675 34.6853L26.1753 33.8477L25.4258 36.0971Z" fill="#AF8B18"/>
</svg>
